<svg width="70" height="54" viewBox="0 0 70 54" fill="none" xmlns="http://www.w3.org/2000/svg">
<g clip-path="url(#clip0_273_4470)">
<path d="M61.5345 4.99609L67.8478 46.9764L60.2467 52.4311L5.09949 51.0693L9.03699 12.7305L61.5345 4.99609Z" fill="#222222"/>
<path d="M60.0765 5.86194C60.7944 10.6136 61.505 15.3652 62.2229 20.1169C63.3553 27.6218 64.4803 35.1267 65.6127 42.6317C65.8717 44.371 66.1382 46.1103 66.3972 47.8422L67.7221 45.644C65.1908 47.4647 62.6522 49.2781 60.1209 51.0988L60.8536 50.8471C54.6291 50.6917 48.4046 50.5363 42.1875 50.3883C32.2846 50.144 22.3816 49.8998 12.4712 49.6555C10.2138 49.5963 7.96383 49.5445 5.70643 49.4853L6.55018 50.5733C6.99426 46.2657 7.43094 41.9508 7.87502 37.6432C8.57814 30.7674 9.28867 23.8841 9.99179 17.0083C10.1546 15.417 10.3175 13.8332 10.4803 12.2419L8.43752 14.3216C14.3438 13.4557 20.2426 12.5823 26.1489 11.7164C35.5707 10.3323 44.9926 8.94089 54.4071 7.55684C56.5831 7.23858 58.7591 6.91293 60.9351 6.59467C61.8158 6.46885 62.5634 5.72872 62.8668 4.91457C63.0814 4.33727 63.0148 3.30108 62.1267 3.42691C56.2204 4.29286 50.3216 5.16622 44.4153 6.03217C34.9934 7.41622 25.5716 8.80766 16.1571 10.1917C13.9811 10.51 11.8051 10.8356 9.62913 11.1539C8.68176 11.2945 7.68998 12.2567 7.58637 13.2336C7.14229 17.5412 6.70561 21.8562 6.26153 26.1637C5.55841 33.0396 4.84788 39.9228 4.14475 46.7986C3.98192 48.3899 3.8191 49.9738 3.65627 51.5651C3.58966 52.1942 3.8487 52.6383 4.50002 52.6531C6.94985 52.7123 9.39229 52.7715 11.8421 52.8381C17.4523 52.9787 23.0625 53.1119 28.6653 53.2526C34.727 53.4006 40.7961 53.556 46.8578 53.704C50.7582 53.8003 54.6513 53.8965 58.5518 53.9927C59.5066 54.0149 60.0617 53.9927 60.8833 53.4006L67.3816 48.7304L67.9737 48.3085C68.625 47.8348 69.4318 47.0133 69.2985 46.1103C68.5806 41.3586 67.8701 36.607 67.1522 31.8554C66.0198 24.3504 64.8948 16.8455 63.7624 9.34056C63.5033 7.60125 63.2369 5.86194 62.9778 4.13003C62.6966 2.2649 59.8619 4.47789 60.0617 5.85454L60.0765 5.86194Z" fill="#222222"/>
<path d="M6.73522 48.1825L57.7599 49.2113C58.5814 34.6677 59.6842 19.4432 61.3495 4.99585H9.59953C5.54361 17.9482 2.80512 31.4408 1.45068 45.1036C1.37667 45.8807 1.62831 46.6431 2.15381 47.2352C2.79772 47.9605 3.63407 48.1677 4.59624 48.1751C5.30677 48.1751 6.0247 48.1751 6.73522 48.1751V48.1825Z" fill="white"/>
<path d="M6.73522 48.1828L57.7599 49.2116C58.5814 34.668 59.6842 19.4435 61.3495 4.99609H9.59953C5.54361 17.9484 2.80512 31.441 1.45068 45.1112" fill="white"/>
<path d="M6.1357 49.7665C11.9087 49.885 17.6817 50.0034 23.4622 50.1144C32.588 50.2994 41.7212 50.4845 50.847 50.6695C52.949 50.7139 55.0584 50.7509 57.1604 50.7953C58.0633 50.8101 59.1513 49.5593 59.2031 48.7156C60.0395 33.9499 61.1053 19.1917 62.7928 4.5001C62.8668 3.88579 62.6003 3.41211 61.949 3.41211H10.199C9.37747 3.41211 8.48931 4.38168 8.26727 5.09221C4.15214 18.2814 1.38405 31.8628 0.00740618 45.607C-0.0740083 46.3915 0.436683 46.8578 1.21382 46.6136C1.99096 46.3693 2.81251 45.4368 2.89392 44.6078C4.24096 31.1448 6.90543 17.8151 10.9317 4.89237L9 6.57247H60.7426L59.8989 5.48448C58.2114 20.1761 57.1456 34.9343 56.3092 49.6999L58.352 47.6202C52.5789 47.5017 46.8059 47.3833 41.0255 47.2723C31.8997 47.0873 22.7665 46.9022 13.6406 46.7172C11.5387 46.6728 9.42928 46.6358 7.32731 46.5914C5.94326 46.5618 4.21875 49.7221 6.12829 49.7591L6.1357 49.7665Z" fill="#222222"/>
<path d="M38.2722 16.6086C38.1537 16.3495 38.0353 16.0905 37.9391 15.824C37.9095 15.7426 37.9169 15.7426 37.9391 15.824C37.9169 15.7426 37.9021 15.6538 37.8947 15.5724L37.8799 15.4465C37.8799 15.2689 37.8799 15.2763 37.8799 15.4465C37.9687 15.1653 37.7319 15.7722 37.7319 15.7648C37.8133 15.6316 37.7985 15.6464 37.7023 15.7944C37.6282 15.9202 37.532 16.0313 37.4136 16.1201C37.2434 16.2681 37.0583 16.3643 36.8363 16.4013C36.9843 16.4013 36.9695 16.3939 36.7993 16.3865C36.9029 16.4235 36.9177 16.4235 36.8363 16.3865C36.6735 16.3495 36.9547 16.4901 36.9621 16.4975C37.0213 16.5567 37.0065 16.5345 36.9325 16.4309C36.9695 16.4827 36.9991 16.5345 37.0287 16.5938L37.0657 16.6826C37.1101 16.8158 37.1101 16.801 37.0657 16.6456C37.0213 16.9194 37.1398 16.3569 37.0731 16.6604C37.0879 16.5493 37.1249 16.4383 37.1842 16.3421C37.2582 16.2015 37.2582 16.1941 37.1842 16.3199C37.2804 16.1497 37.3988 16.0016 37.5468 15.8758L37.4654 15.9424C37.6948 15.787 37.7319 15.75 37.569 15.8536L37.7541 15.7722C37.7393 15.824 37.1842 15.9276 37.606 15.8462L37.5098 18.4959C37.5838 18.4367 37.6504 18.3849 37.7245 18.3331C38.0723 18.0666 37.5246 18.4589 37.7393 18.3257C37.8947 18.2294 38.0353 18.1258 38.1907 18.0296C38.361 17.926 38.5386 17.8224 38.7162 17.7188C38.7976 17.6743 38.8717 17.6299 38.9531 17.5929C38.9531 17.5929 39.3231 17.4079 39.1307 17.5041C38.9605 17.5855 39.2195 17.4671 39.2491 17.4523C39.3305 17.4153 39.4046 17.3857 39.486 17.3561C39.5082 17.3487 39.6562 17.2895 39.671 17.2969C39.671 17.2969 39.3675 17.3339 39.597 17.3191C39.6562 17.3191 39.7228 17.3117 39.782 17.3043C40.0781 17.2747 39.6118 17.3339 39.7672 17.3043C39.893 17.2821 39.8486 17.4079 39.8264 17.3043C39.7524 17.2599 39.745 17.2599 39.7968 17.3043C39.8634 17.3635 39.8486 17.3339 39.7524 17.2155C39.7894 17.3561 39.7672 17.2451 39.7672 17.1785C39.7672 16.949 39.856 16.69 39.9671 16.4827L40.1225 16.2607C40.3297 16.0609 40.3815 16.009 40.2705 16.1053C40.0929 16.2533 40.5592 15.9128 40.3667 16.0313C40.1965 16.1349 40.611 15.9424 40.4037 16.0239C40.3001 16.0609 40.2039 16.1053 40.1003 16.1349C40.0189 16.1645 39.9374 16.1867 39.856 16.2089C39.745 16.2385 39.7006 16.2385 39.8412 16.2163C39.4564 16.2829 39.0715 16.3125 38.6792 16.3199C38.5016 16.3199 38.3314 16.3199 38.1537 16.3051C38.1241 16.3051 37.8207 16.2829 37.9243 16.2903C38.0131 16.2977 37.6949 16.2681 37.6949 16.2681L37.2804 18.8882C36.9029 19.1694 37.2434 18.9252 37.3174 18.8734C37.3692 18.8438 37.5838 18.6883 37.643 18.6957L37.495 18.7623C37.5542 18.7401 37.606 18.7105 37.6652 18.6883C37.7837 18.6439 37.8947 18.5995 38.0131 18.5699C38.1093 18.5403 38.2129 18.5107 38.3092 18.4885C38.0057 18.5551 38.4054 18.4885 38.435 18.4811C38.6792 18.4515 38.9309 18.4441 39.1751 18.4515L40.0115 15.3577C39.3824 15.5428 38.7606 15.7352 38.1315 15.9202C37.8429 16.009 37.5542 16.0905 37.2656 16.1793C37.236 16.1867 36.8733 16.3125 36.8659 16.2977C36.8659 16.2977 37.0287 16.2607 37.0435 16.2607C37.1323 16.2607 37.1768 16.3273 37.236 16.3495C37.2952 16.3717 37.2656 16.4013 37.2286 16.3051C37.2212 16.2829 37.162 16.1275 37.2064 16.2755C37.2508 16.4087 37.1842 16.1053 37.1768 16.0535C37.1398 15.787 37.1027 15.5206 37.0509 15.2541C36.9251 14.662 36.7253 14.0255 36.2368 13.6184C35.0304 12.634 33.4169 13.4334 32.6324 14.5436C32.0995 15.2911 31.8626 16.2163 32.2179 17.0896C32.4251 17.6077 32.8544 18.074 33.2615 18.4589C34.1126 19.2656 35.2524 19.8281 36.407 20.028C37.2434 20.176 38.0797 19.4803 38.4646 18.7845C38.7162 18.3257 39.1233 17.0674 38.2499 16.9194C37.7171 16.8232 37.1842 16.6678 36.7031 16.4161C36.8733 16.5049 36.4958 16.2903 36.4662 16.2681C36.37 16.2089 36.2738 16.1423 36.1776 16.0683C35.9555 15.9054 35.7483 15.7278 35.5559 15.5428C35.4745 15.4614 35.393 15.3799 35.319 15.2911C35.2672 15.2319 35.2154 15.1727 35.171 15.1135C35.2376 15.2023 35.2228 15.1801 35.1414 15.0617C35.0748 14.9507 35.023 14.8544 34.9712 14.736C34.9934 14.8618 34.986 14.8544 34.9712 14.7064C34.9712 15.2097 34.7269 15.6464 34.2458 16.0016L33.6981 16.3199C33.8388 16.2755 33.7944 16.2829 33.5723 16.3421C33.7055 16.3421 33.6833 16.3347 33.4983 16.3199C33.5427 16.3199 33.5871 16.3347 33.6241 16.3421C33.7055 16.3717 33.9498 16.5049 33.7203 16.3495C33.8092 16.4087 33.8832 16.4679 33.9572 16.5419C34.009 16.5938 34.0016 16.579 33.9276 16.4975C33.972 16.5641 34.009 16.6382 34.046 16.7122C34.0978 16.8232 34.1422 16.9342 34.1718 17.0526C34.1126 16.8454 34.2088 17.3043 34.2162 17.3487C34.2384 17.4745 34.2532 17.5929 34.268 17.7188C34.3643 18.3775 34.5345 19.1472 35.2598 19.3766C35.9851 19.6061 36.8363 19.1842 37.5172 18.977C38.1981 18.7697 38.8643 18.5699 39.5378 18.3701C40.3149 18.1332 40.9588 17.3191 41.1661 16.5641C41.3437 15.9054 41.1365 15.2985 40.3741 15.2763C38.8495 15.2393 37.4654 15.861 36.259 16.7492C35.7927 17.097 35.4004 17.741 35.319 18.3109C35.2672 18.6735 35.356 19.3174 35.8371 19.3692C37.0953 19.5025 38.3314 19.5469 39.5526 19.162C40.2261 18.9474 40.8774 18.5995 41.3955 18.1184C42.0838 17.4745 42.8092 16.4457 42.6685 15.4465C42.4835 14.0625 41.0328 13.9589 39.9523 14.3364C38.694 14.773 37.5246 15.5576 36.481 16.3643C35.9703 16.764 35.5633 17.4671 35.5337 18.111C35.5189 18.5773 35.8297 19.1176 36.3848 19.014C37.8799 18.7327 39.1307 17.7706 39.7302 16.3495C40.1669 15.3207 40.0041 13.9441 38.9235 13.4038C37.569 12.7303 36.0148 14.0477 35.4152 15.1875C35.0748 15.8388 34.8675 16.5493 34.9638 17.2895C35.0378 17.8742 35.2672 18.4293 35.5115 18.9548C35.8667 19.7245 36.9399 19.2434 37.3914 18.8438C37.9391 18.3479 38.6274 17.3857 38.2573 16.6012L38.2722 16.6086Z" fill="#222222"/>
<path d="M37.3174 17.6743C38.8865 18.5847 40.1966 19.9095 41.0847 21.5526C42.1357 23.4917 42.2615 25.7195 41.4696 27.7771C39.0716 34.046 33.6686 38.3314 32.9359 38.9457C32.2031 39.56 29.361 41.625 27.074 42.2245C25.7566 42.5723 24.1135 43.0386 22.8627 42.2763C21.6341 41.5288 21.2566 39.9227 20.9161 38.6274C20.3166 36.3404 20.7163 32.8544 20.8939 31.9144C21.0716 30.9745 22.1448 24.1579 26.4301 18.9991C28.3841 16.6455 31.315 15.8758 34.2385 16.4975C35.3339 16.7269 36.3701 17.134 37.3174 17.6817V17.6743Z" fill="#FF6F1E"/>
<path d="M20.7236 7.25327C20.7014 7.18666 20.6792 7.12005 20.6644 7.04604C20.7014 7.18666 20.7014 7.18666 20.6644 7.04604C20.6422 6.90541 20.6052 6.76479 20.5904 6.62416C20.5534 6.37992 20.5312 6.12827 20.5312 5.87663C20.5312 5.80262 20.5312 5.736 20.5312 5.66199C20.5238 5.84702 20.5238 5.86183 20.5312 5.7064C20.546 5.56577 20.5534 5.42515 20.5756 5.28452C20.5904 5.1587 20.6126 5.04028 20.6422 4.91446C20.6496 4.86265 20.6644 4.81084 20.6792 4.75903C20.7236 4.5888 20.7088 4.61841 20.6496 4.84785C20.62 4.79604 20.7606 4.50739 20.7828 4.44818C20.8273 4.32235 20.9161 4.18913 20.9457 4.06331C20.8495 4.44077 20.8495 4.27054 20.9457 4.10031C21.0123 3.98189 21.1085 3.87087 21.1677 3.74505C20.9087 4.24094 21.0863 3.87087 21.2047 3.73765C21.2491 3.68584 21.3009 3.63403 21.3453 3.58222C21.1307 3.79686 21.0789 3.84867 21.1825 3.75245C21.2787 3.67104 21.3675 3.58962 21.4638 3.50821C21.7154 3.29357 21.0863 3.74505 21.5008 3.49341C21.5526 3.4638 21.6118 3.42679 21.671 3.39719C21.819 3.32318 21.782 3.33798 21.56 3.4416C21.6414 3.4416 21.7524 3.36018 21.8264 3.33058C21.9449 3.28617 22.0707 3.25656 22.1965 3.21216C22.3445 3.17515 22.3223 3.18255 22.1225 3.22696C22.1891 3.21216 22.2483 3.20475 22.3149 3.18995C22.537 3.15295 22.7664 3.13814 22.9958 3.13814C23.0625 3.13814 23.4843 3.17515 23.1587 3.13814C23.2845 3.15295 23.4177 3.16775 23.5435 3.19735C23.7656 3.24176 23.9802 3.30097 24.1949 3.37498C24.3133 3.41939 24.4317 3.4712 24.5501 3.52301C24.6685 3.58222 24.6611 3.57482 24.5353 3.51561C24.5871 3.54522 24.6463 3.58222 24.6981 3.61183C24.8832 3.73025 25.0608 3.86347 25.2236 4.0115C25.3199 4.10031 25.4013 4.18913 25.4827 4.28535C25.5641 4.38897 25.5641 4.38156 25.4827 4.27054C25.5197 4.32235 25.5567 4.37416 25.5937 4.43337C26.0452 5.1365 26.9555 4.78124 27.4736 4.32235C27.8215 4.0041 28.1546 3.61183 28.3026 3.16035C28.4062 2.84949 28.5394 2.38321 28.3396 2.07975C27.1258 0.207222 24.8758 -0.325673 22.796 0.185018C20.2055 0.828932 18.407 3.27137 17.8223 5.76561C17.5189 7.04604 17.6225 8.36347 18.0074 9.60689C18.1036 9.91035 18.5106 10.0288 18.7845 10.014C19.1694 9.99176 19.6134 9.74012 19.8873 9.49587C20.509 8.93337 21.0197 8.10443 20.7532 7.25327H20.7236Z" fill="#222222"/>
<path d="M33.1578 7.25327C33.1356 7.18666 33.1134 7.12005 33.0986 7.04604C33.1356 7.18666 33.1356 7.18666 33.0986 7.04604C33.0764 6.90541 33.0394 6.76479 33.0246 6.62416C32.9876 6.37992 32.9654 6.12827 32.9654 5.87663C32.9654 5.80262 32.9654 5.736 32.9654 5.66199C32.958 5.84702 32.958 5.86183 32.9654 5.7064C32.9802 5.56577 32.9876 5.42515 33.0098 5.28452C33.0246 5.1587 33.0468 5.04028 33.0764 4.91446C33.0838 4.86265 33.0986 4.81084 33.1134 4.75903C33.1578 4.5888 33.143 4.61841 33.0838 4.84785C33.0542 4.79604 33.1948 4.50739 33.2171 4.44818C33.2615 4.32235 33.3503 4.18913 33.3799 4.06331C33.2837 4.44077 33.2837 4.27054 33.3799 4.10031C33.4465 3.98189 33.5427 3.87087 33.6019 3.74505C33.3429 4.24094 33.5205 3.87087 33.6389 3.73765C33.6833 3.68584 33.7351 3.63403 33.7795 3.58222C33.5649 3.79686 33.5131 3.84867 33.6167 3.75245C33.7129 3.67104 33.8018 3.58962 33.898 3.50821C34.1496 3.29357 33.5205 3.74505 33.935 3.49341C33.9868 3.4638 34.046 3.42679 34.1052 3.39719C34.2532 3.32318 34.2162 3.33798 33.9942 3.4416C34.0756 3.4416 34.1866 3.36018 34.2606 3.33058C34.3791 3.28617 34.5049 3.25656 34.6307 3.21216C34.7787 3.17515 34.7565 3.18255 34.5567 3.22696C34.6233 3.21216 34.6825 3.20475 34.7491 3.18995C34.9712 3.15295 35.2006 3.13814 35.43 3.13814C35.4967 3.13814 35.9185 3.17515 35.5929 3.13814C35.7187 3.15295 35.8519 3.16775 35.9777 3.19735C36.1998 3.24176 36.4144 3.30097 36.6291 3.37498C36.7475 3.41939 36.8659 3.4712 36.9843 3.52301C37.1027 3.58222 37.0953 3.57482 36.9695 3.51561C37.0213 3.54522 37.0805 3.58222 37.1323 3.61183C37.3174 3.73025 37.495 3.86347 37.6578 4.0115C37.7541 4.10031 37.8355 4.18913 37.9169 4.28535C37.9983 4.38897 37.9983 4.38156 37.9169 4.27054C37.9539 4.32235 37.9909 4.37416 38.0279 4.43337C38.4794 5.1365 39.3897 4.78124 39.9078 4.32235C40.2557 4.0041 40.5888 3.61183 40.7368 3.16035C40.8404 2.84949 40.9736 2.38321 40.7738 2.07975C39.56 0.207222 37.31 -0.325673 35.2302 0.185018C32.6397 0.828932 30.8412 3.27137 30.2565 5.76561C29.9531 7.04604 30.0567 8.36347 30.4416 9.60689C30.5378 9.91035 30.9448 10.0288 31.2187 10.014C31.6036 9.99176 32.0476 9.74012 32.3215 9.49587C32.9432 8.93337 33.4539 8.10443 33.1874 7.25327H33.1578Z" fill="#222222"/>
<path d="M45.5846 7.25327C45.5624 7.18666 45.5402 7.12005 45.5254 7.04604C45.5624 7.18666 45.5624 7.18666 45.5254 7.04604C45.5032 6.90541 45.4662 6.76479 45.4514 6.62416C45.4144 6.37992 45.3922 6.12827 45.3922 5.87663C45.3922 5.80262 45.3922 5.736 45.3922 5.66199C45.3848 5.84702 45.3848 5.86183 45.3922 5.7064C45.407 5.56577 45.4144 5.42515 45.4366 5.28452C45.4514 5.1587 45.4736 5.04028 45.5032 4.91446C45.5106 4.86265 45.5254 4.81084 45.5402 4.75903C45.5846 4.5888 45.5698 4.61841 45.5106 4.84785C45.481 4.79604 45.6216 4.50739 45.6438 4.44818C45.6882 4.32235 45.777 4.18913 45.8066 4.06331C45.7104 4.44077 45.7104 4.27054 45.8066 4.10031C45.8732 3.98189 45.9695 3.87087 46.0287 3.74505C45.7696 4.24094 45.9473 3.87087 46.0657 3.73765C46.1101 3.68584 46.1619 3.63403 46.2063 3.58222C45.9917 3.79686 45.9399 3.84867 46.0435 3.75245C46.1397 3.67104 46.2285 3.58962 46.3247 3.50821C46.5764 3.29357 45.9473 3.74505 46.3617 3.49341C46.4135 3.4638 46.4728 3.42679 46.532 3.39719C46.68 3.32318 46.643 3.33798 46.4209 3.4416C46.5024 3.4416 46.6134 3.36018 46.6874 3.33058C46.8058 3.28617 46.9316 3.25656 47.0575 3.21216C47.2055 3.17515 47.1833 3.18255 46.9834 3.22696C47.0501 3.21216 47.1093 3.20475 47.1759 3.18995C47.3979 3.15295 47.6274 3.13814 47.8568 3.13814C47.9234 3.13814 48.3453 3.17515 48.0196 3.13814C48.1455 3.15295 48.2787 3.16775 48.4045 3.19735C48.6265 3.24176 48.8412 3.30097 49.0558 3.37498C49.1742 3.41939 49.2927 3.4712 49.4111 3.52301C49.5295 3.58222 49.5221 3.57482 49.3963 3.51561C49.4481 3.54522 49.5073 3.58222 49.5591 3.61183C49.7441 3.73025 49.9218 3.86347 50.0846 4.0115C50.1808 4.10031 50.2622 4.18913 50.3436 4.28535C50.4251 4.38897 50.4251 4.38156 50.3436 4.27054C50.3807 4.32235 50.4177 4.37416 50.4547 4.43337C50.9061 5.1365 51.8165 4.78124 52.3346 4.32235C52.6825 4.0041 53.0155 3.61183 53.1635 3.16035C53.2672 2.84949 53.4004 2.38321 53.2006 2.07975C51.9867 0.207222 49.7367 -0.325673 47.657 0.185018C45.0665 0.828932 43.268 3.27137 42.6833 5.76561C42.3798 7.04604 42.4834 8.36347 42.8683 9.60689C42.9645 9.91035 43.3716 10.0288 43.6455 10.014C44.0303 9.99176 44.4744 9.74012 44.7482 9.49587C45.37 8.93337 45.8807 8.10443 45.6142 7.25327H45.5846Z" fill="#222222"/>
</g>
<defs>
<clipPath id="clip0_273_4470">
<rect width="69.3207" height="54" fill="white"/>
</clipPath>
</defs>
</svg>
