<svg width="95" height="172" viewBox="0 0 95 172" fill="none" xmlns="http://www.w3.org/2000/svg">
<g clip-path="url(#clip0_273_3980)">
<path d="M52.4787 69.8963C52.3132 67.077 51.9386 64.2229 51.2243 61.4909C50.7713 59.5969 49.9088 57.9472 48.6195 56.5332C47.5915 54.9447 46.2325 53.6965 44.5425 52.78C41.0578 50.9384 37.216 50.2925 33.3393 51.3137C26.3701 53.1466 20.5159 59.2477 18.9129 66.3002C17.9808 70.3938 18.1202 73.9113 18.9565 77.9961C19.5315 80.7979 20.873 83.495 22.0665 86.0436C22.9813 87.7369 24.227 89.1073 25.8125 90.1285C27.2151 91.4203 28.8616 92.2844 30.7607 92.7382C32.6947 93.3492 34.6287 93.4278 36.5539 93.0001C38.4879 92.9128 40.2912 92.3367 41.9551 91.2719C44.3595 89.7182 46.5374 87.5711 47.7919 84.9613C47.8703 84.9002 47.9487 84.8391 48.0271 84.778C49.8304 82.9625 51.0762 80.8154 51.7644 78.354C52.1477 75.526 52.6443 72.7504 52.4787 69.8963Z" fill="black"/>
<path d="M68.6823 84.7867C68.6038 84.8478 68.5254 84.9089 68.447 84.97C67.1926 87.5798 65.0147 89.727 62.6103 91.2806C60.9376 92.3455 59.1431 92.9215 57.2091 93.0088C55.2751 93.4452 53.3411 93.3579 51.4159 92.747C49.5254 92.2931 47.879 91.429 46.4677 90.1372C44.8822 89.1073 43.6364 87.7456 42.7217 86.0523C41.5195 83.495 40.1866 80.8066 39.6116 78.0049C38.7753 73.92 38.6359 70.3938 39.5681 66.3089C41.171 59.2565 47.0339 53.1554 53.9945 51.3224C58.6726 50.0917 63.9344 51.2788 67.6107 54.4384C68.9959 55.6255 70.1458 57.0831 70.9473 58.724C71.9143 60.6966 73.0119 63.7515 73.0119 67.1468C73.0119 73.0559 71.1128 78.7555 69.4314 82.98L68.6823 84.7867Z" fill="black"/>
<path d="M9.09497 159.379C16.3343 167.007 27.8336 169.032 36.5626 169.748C48.0881 170.691 59.0647 170.062 69.6406 165.105C79.5457 160.461 85.2866 150.764 85.6699 140.761C85.8093 137.218 85.5044 133.674 85.156 130.148C84.7813 126.368 84.3022 122.598 83.675 118.853C82.3421 110.806 80.1555 102.819 76.575 95.5138C73.3692 88.9676 69.5186 82.2817 63.0808 78.45C61.5127 77.5161 59.7703 76.8265 58.0803 76.1632C57.0436 75.753 55.9808 75.4562 54.8831 75.2554C51.9386 74.7056 49.0986 74.8016 46.4416 76.3639C44.7777 77.3415 43.1747 78.9999 42.199 80.8503C41.929 80.8503 41.6589 80.8503 41.4063 80.8503C40.1605 80.8939 38.8277 81.086 37.6777 81.6097C36.9721 81.9326 36.4755 82.5174 36.249 83.1633C36.2229 83.0847 36.2055 82.9975 36.1793 82.9189C35.3256 80.2655 33.6791 77.6994 31.144 76.3552C30.2729 75.9886 29.4017 75.6133 28.5306 75.2467C26.5879 74.723 24.6452 74.723 22.7025 75.2467C19.8451 75.7791 17.0051 77.0098 14.5397 78.5286C12.0482 80.0647 9.57411 81.9239 7.71854 84.2107C3.05783 89.9452 1.69882 95.0076 2.22152 101.982C2.58741 106.852 4.44298 110.596 7.2394 113.442C2.03858 127.617 -2.77894 147.142 9.10368 159.379" fill="black"/>
<path d="M68.7694 139.897C68.8565 140.028 68.9175 140.142 68.9784 140.281L67.6369 137.104C67.6891 137.244 67.7153 137.375 67.7414 137.523L67.271 133.988C67.2884 134.189 67.2884 134.372 67.271 134.564L67.7414 131.029C67.7066 131.23 67.6543 131.413 67.5846 131.597L68.9262 128.42C68.8478 128.603 68.7519 128.769 68.6387 128.935L70.7121 126.246C70.5901 126.403 70.4594 126.534 70.3026 126.665L72.9858 124.588C72.8638 124.675 72.7506 124.745 72.6199 124.815L75.7909 123.471C75.6515 123.532 75.5209 123.567 75.3728 123.602L78.901 123.13L78.7529 123.148C76.9234 123.078 75.2247 123.462 73.6392 124.291C71.9927 124.824 70.5727 125.74 69.3705 127.041C68.0724 128.245 67.1577 129.668 66.6263 131.317C65.7987 132.906 65.4154 134.608 65.4851 136.441L65.9555 139.976C66.5828 142.228 67.724 144.183 69.3705 145.841L72.0536 147.919C74.127 149.123 76.3572 149.725 78.7529 149.734C81.7409 149.35 83.7708 149.272 86.3842 147.543C87.2293 146.985 88.6405 146.025 89.4768 145.047C90.1128 144.296 91.1321 143.074 91.6373 142.237C91.6983 142.132 91.7593 142.018 91.8116 141.914C92.16 141.233 92.9789 139.33 93.2054 138.597C93.2403 138.475 93.2838 138.361 93.3099 138.248C93.5539 137.279 93.7281 135.568 93.8065 134.564C93.8152 134.442 93.8239 134.32 93.8239 134.198C93.8239 133.587 93.58 132.295 93.5713 132.216C93.4842 131.571 93.4406 130.829 93.2751 130.165L93.2315 130.026L91.89 126.849C91.8203 126.709 91.768 126.595 91.6809 126.464C90.8446 124.911 89.7033 123.671 88.2659 122.729C86.9853 121.55 85.4782 120.756 83.7533 120.346C81.9849 119.787 80.2251 119.709 78.4567 120.11C76.6882 120.189 75.0417 120.712 73.5172 121.69L70.834 123.767C69.1875 125.426 68.055 127.381 67.4191 129.633L66.9486 133.168C66.9486 135.568 67.5585 137.803 68.7607 139.88L68.7694 139.897Z" fill="black"/>
<path d="M93.519 125.469C92.7088 123.872 91.5501 122.414 90.0953 121.358C88.4575 120.171 86.994 119.106 85.0077 118.565L85.635 119.386C84.5722 112.595 83.0041 105.857 80.5125 99.4416C78.021 93.0263 74.9284 87.0037 70.5639 81.9413L70.7381 83.495C73.5868 76.6607 76.0086 68.5521 74.005 61.1767C73.0728 57.7377 71.3392 54.5432 68.4818 52.3262C65.6244 50.1092 62.1049 48.9832 58.5245 48.9658C54.1251 48.9396 50.0045 50.8598 46.5547 53.4609L48.5497 53.0419C46.032 50.6067 42.4864 49.2887 39.0366 49.0182C35.5868 48.7476 32.3722 49.6728 29.3842 51.209C23.922 54.0195 19.4442 59.3001 17.6671 65.2004C16.4649 69.1893 16.3081 73.3614 16.9614 77.4637L18.9564 74.6706C12.4053 77.3502 6.70788 82.0722 3.32778 88.3479C0.418101 93.742 -0.426924 100.393 1.02791 106.363C1.8468 109.697 3.44974 112.639 5.83672 115.109L5.66248 113.555C0.130618 128.673 -4.72174 148.853 8.27596 161.639C14.5832 167.837 23.6606 170.254 32.198 171.258C42.2948 172.445 52.7487 172.436 62.5579 169.486C67.9417 167.863 73.1687 165.445 77.3241 161.587C81.1659 158.017 84.093 153.54 85.7831 148.564L83.9275 150.459C89.2329 148.311 93.2576 143.581 94.8867 138.125C95.1219 137.331 95.0522 136.371 94.0155 136.371C93.066 136.371 91.9944 137.506 91.7418 138.352C91.4717 139.269 91.0884 140.15 90.7051 141.023C90.6354 141.18 90.5657 141.337 90.496 141.486C90.1824 142.158 90.8968 140.936 90.2957 141.861C89.9821 142.341 89.6336 142.786 89.2764 143.231C88.6056 144.061 87.9348 144.776 87.055 145.396C86.5758 145.737 86.088 146.068 85.574 146.356C84.9293 146.723 84.1714 146.924 83.6052 147.412C82.6033 148.268 82.3333 149.69 81.8367 150.869C81.4098 151.881 80.9046 152.859 80.3383 153.801C79.2145 155.687 77.8381 157.441 76.2439 158.951C72.5066 162.469 67.7936 164.529 62.9238 165.977C57.5923 167.566 52.0256 168.186 46.4763 168.238C37.1026 168.325 26.9449 167.453 18.3727 163.359C14.2434 161.386 10.4974 158.375 7.9275 154.561C5.35758 150.747 4.12053 146.732 3.6501 142.402C2.56115 132.513 5.43598 122.51 8.79866 113.311C8.99032 112.778 9.0513 112.194 8.62443 111.757C3.92888 106.896 2.77894 99.3456 4.469 92.9303C6.26358 86.0785 11.9871 80.8328 18.3814 78.2143C19.3571 77.8128 20.568 76.5996 20.3764 75.4213C19.2787 68.491 20.7074 61.3862 26.2044 56.6816C28.6437 54.5868 31.7276 53.0768 34.9509 52.7626C38.7927 52.3873 42.9481 53.6791 45.7446 56.3848C46.3108 56.9347 47.2691 56.3237 47.7395 55.9659C52.8794 52.0992 59.9445 51.5057 65.276 55.3636C67.933 57.2926 69.5534 59.9984 70.5203 63.0969C71.6267 66.6406 71.3654 70.3676 70.6684 73.9724C70.0151 77.324 68.9 80.571 67.5932 83.7219C67.3667 84.2631 67.3755 84.8304 67.7675 85.2755C71.9578 90.1372 74.972 96.247 77.2805 102.208C79.5891 108.17 81.1833 114.865 82.2113 121.411C82.2723 121.777 82.4552 122.126 82.8385 122.231C84.6244 122.72 85.8266 123.636 87.2989 124.693C88.5882 125.626 89.5726 126.814 90.287 128.236C91.1668 129.964 94.2856 126.979 93.519 125.461V125.469Z" fill="#222222"/>
<path d="M41.929 59.6231C37.9739 64.4062 35.7437 70.3502 35.5869 76.556C35.5608 77.6034 36.8675 77.455 37.4599 77.1059C38.3834 76.5647 38.9932 75.5784 39.0193 74.5136C39.1413 69.6257 41.0143 64.8339 43.9326 61.2989C44.4118 60.7141 45.0913 59.4223 44.3334 58.7851C43.5755 58.148 42.3994 59.047 41.929 59.6143V59.6231Z" fill="#222222"/>
<path d="M22.232 87.7457L21.8748 88.8629C21.7093 89.3691 21.8225 90.0412 22.0839 90.4863C22.3452 90.9315 22.8418 91.3417 23.347 91.4552C24.5057 91.717 25.5772 91.1061 25.9431 89.9801L26.3003 88.8629C26.4658 88.3566 26.3525 87.6846 26.0912 87.2394C25.8299 86.7943 25.3333 86.384 24.828 86.2706C23.6694 86.0087 22.5978 86.6197 22.232 87.7457Z" fill="#FF6F1E"/>
<path d="M37.5121 87.7806L37.1549 88.8978C36.9894 89.404 37.1027 90.0761 37.364 90.5213C37.6254 90.9664 38.1219 91.3766 38.6272 91.4901C39.7858 91.7519 40.8574 91.141 41.2233 90.015L41.5804 88.8978C41.7459 88.3915 41.6327 87.7195 41.3714 87.2743C41.11 86.8292 40.6134 86.419 40.1082 86.3055C38.9495 86.0436 37.878 86.6546 37.5121 87.7806Z" fill="#FF6F1E"/>
<path d="M68.6213 133.657C60.955 132.391 52.7052 133.604 46.2673 138.187C40.2214 142.49 35.9963 149.42 36.0573 156.97C36.0573 158.009 37.3118 157.878 37.9303 157.52C38.8276 156.996 39.4984 155.984 39.4897 154.927C39.4461 149.228 42.6955 143.834 47.4172 140.753C52.9839 137.113 59.9968 136.258 66.4608 137.322C67.4713 137.488 68.4035 136.677 68.8826 135.856C69.1962 135.324 69.6492 133.822 68.63 133.657H68.6213Z" fill="#222222"/>
<path d="M65.4067 17.2908C64.431 7.71582 53.9248 0.951383 41.9464 2.18207C29.9679 3.40404 21.0385 12.1585 22.0142 21.7335C22.8505 29.9555 30.7258 36.1003 40.5176 36.8946L43.0789 41.8959L47.0688 36.6327C58.237 34.8259 66.3388 26.438 65.4067 17.2908Z" fill="#FF6F1E"/>
<path d="M66.9138 16.3132C66.2517 10.3954 62.4273 5.60355 57.2701 2.85413C51.3984 -0.279328 44.2811 -0.724472 37.9129 0.977548C31.5447 2.67957 26.2306 6.43274 23.0073 11.9403C19.9583 17.1424 19.4966 23.5751 22.4759 28.9081C25.9606 35.1401 33.0431 38.3434 39.9078 38.9457L39.0977 38.3085C39.9514 39.9756 40.8051 41.6427 41.6589 43.3098C42.2513 44.4707 43.3576 43.7637 43.9587 42.9782C45.2916 41.2238 46.6158 39.4694 47.9487 37.715L46.8423 38.6227C57.4791 36.8422 67.994 27.9917 66.9138 16.3219C66.8267 15.3793 66.0339 15.0301 65.2499 15.5102C64.3874 16.0339 63.8125 17.2908 63.8996 18.2858C64.3439 23.1125 61.9046 27.2847 58.1064 30.1737C55.8414 31.8932 53.2802 33.1326 50.5534 33.9269C49.0812 34.3546 47.1907 34.3109 46.1889 35.5766C45.8666 35.9781 45.5704 36.397 45.2568 36.8072C44.2375 38.1514 43.227 39.4868 42.2077 40.831L44.5076 40.4993C43.7235 38.9719 42.9395 37.4444 42.1642 35.9257C42.0683 35.7337 41.9812 35.5067 41.8505 35.3322C41.3453 34.6077 40.0037 34.7561 39.1761 34.6252C37.5209 34.3633 35.9092 33.9182 34.3586 33.3072C28.9748 31.1862 24.0702 26.6824 23.5126 20.625C22.9899 14.9603 26.6227 10.343 31.3531 7.49759C37.0766 4.04991 44.5163 3.1509 50.928 5.0013C57.3398 6.8517 63.1417 11.4428 63.9083 18.2858C64.0128 19.2197 64.7707 19.5776 65.5722 19.0975C66.4172 18.5825 67.0358 17.3082 66.9225 16.3219L66.9138 16.3132Z" fill="#222222"/>
<path d="M43.0963 13.4765C42.7478 16.1212 42.3906 18.7659 42.0422 21.4105C41.9376 22.1699 42.3558 23.2435 43.3053 22.9031C44.2549 22.5627 44.8996 21.4105 45.0302 20.4242C45.3787 17.7796 45.7359 15.1349 46.0843 12.4902C46.1889 11.7308 45.7707 10.6573 44.8212 10.9977C43.8716 11.3381 43.2269 12.4902 43.0963 13.4765Z" fill="#222222"/>
<path d="M42.2164 28.9169C43.9065 28.9169 45.3439 24.832 43.436 24.832C41.746 24.832 40.3086 28.9169 42.2164 28.9169Z" fill="#222222"/>
</g>
<defs>
<clipPath id="clip0_273_3980">
<rect width="95" height="172" fill="white"/>
</clipPath>
</defs>
</svg>
