<svg width="68" height="54" viewBox="0 0 68 54" fill="none" xmlns="http://www.w3.org/2000/svg">
<path d="M2.05715 43.7954C1.55947 40.9152 4.39867 38.0436 7.21339 36.4914C16.3021 31.4899 27.153 30.6017 37.2208 31.1364C46.4155 31.6279 56.369 32.8697 63.9076 38.9922C69.9368 43.8902 61.4274 48.1329 57.3399 49.6419C50.1685 52.2979 42.5973 52.8412 35.0669 52.9705C27.5365 53.0999 19.9979 52.8671 12.6633 50.9699C8.99197 50.0214 2.87301 48.5037 2.05715 43.7954Z" fill="#DDDDDD"/>
<path d="M9.01948 47.2687C6.64406 46.4047 1.31565 43.603 3.71547 40.2225C4.76488 38.7461 6.48136 37.8234 8.05141 37.06C9.98754 36.1205 12.0213 35.374 14.0794 34.7616C22.2307 32.3458 30.8944 32.2954 39.2897 32.933C47.1481 33.5285 55.6167 35.03 61.9863 40.1805C62.5639 40.6503 63.1496 41.1704 63.4995 41.8498C63.7354 42.3112 63.8167 42.7977 63.7516 43.041C63.7028 43.2171 63.6703 43.2423 63.5889 43.3681C63.8004 43.0326 63.3937 43.6114 63.3042 43.7204C63.4913 43.5107 62.93 44.0727 62.8324 44.1566C62.5151 44.4334 62.3687 44.5341 62.0433 44.7606C59.3669 46.5641 56.2349 47.621 53.1599 48.4263C48.1081 49.7433 42.8691 50.1627 37.679 50.3221C32.4889 50.4815 26.8351 50.4982 21.4497 49.9194C20.4898 49.8188 19.66 50.5066 19.1882 51.3287C18.9198 51.7984 18.4642 53.3419 19.4241 53.4426C24.8583 54.0214 30.325 54.0801 35.7836 53.9291C41.2421 53.7781 46.2207 53.3503 51.3295 52.1591C55.0635 51.2867 58.8788 50.0369 62.1409 47.9062C64.7441 46.2118 68.1689 42.8984 66.607 39.3752C65.8179 37.5885 63.9632 36.4057 62.4175 35.4159C60.4651 34.166 58.3663 33.1343 56.2105 32.329C51.9478 30.7436 47.441 29.9802 42.9424 29.544C33.4407 28.6381 23.6543 28.6213 14.4374 31.3979C9.51571 32.8826 3.5365 35.1727 0.900765 40.0547C-0.303212 42.2776 -0.368292 44.8193 1.12041 46.9164C2.60911 49.0135 4.79742 49.9949 7.002 50.7918C8.47443 51.3287 10.7604 47.8895 9.02761 47.2603L9.01948 47.2687Z" fill="#222222"/>
<path d="M14.0339 42.3977C13.7384 40.9576 15.4242 39.5218 17.0955 38.7457C22.4919 36.245 28.9346 35.8009 34.9123 36.0682C40.3717 36.314 46.2816 36.9348 50.7576 39.9961C54.3375 42.4451 49.285 44.5664 46.8581 45.321C42.6 46.649 38.1046 46.9206 33.6335 46.9853C29.1623 47.0499 24.6863 46.9335 20.3314 45.985C18.1515 45.5107 14.5183 44.7518 14.0339 42.3977Z" fill="#EEEEEE"/>
<path d="M31.3738 5.33117V41.6158C31.3738 42.4696 32.5713 42.362 33.1494 42.0678C34.0083 41.6301 34.6277 40.805 34.6277 39.9368V3.65936C34.6277 2.80552 33.4302 2.91315 32.8521 3.20733C31.9932 3.64501 31.3738 4.47015 31.3738 5.33834V5.33117Z" fill="#222222"/>
<path d="M27.9218 2.71221C27.9218 2.71221 32.9264 -1.03321 45.1406 4.82169C48.477 6.42175 52.086 7.77785 55.8601 8.33751C58.2963 8.70344 64.3167 7.45497 62.5081 11.1286C60.8069 14.5942 54.7617 16.675 51.0206 17.5432C47.3374 18.397 41.2591 18.806 37.6089 19.8392C34.0991 20.8294 30.9609 22.6088 27.8887 24.3524L27.93 2.71938L27.9218 2.71221Z" fill="#FF6F1E"/>
<path d="M28.4833 3.74545C28.632 3.63783 27.8887 4.03246 28.4503 3.78133C28.5907 3.71675 28.7228 3.65218 28.8632 3.5876C28.3347 3.84591 28.9376 3.56608 29.1523 3.49432C29.4 3.4154 29.656 3.35082 29.912 3.29342C30.0111 3.2719 30.3745 3.20732 30.0855 3.25755C30.2754 3.22884 30.4654 3.20014 30.6553 3.17144C31.5224 3.06382 32.4144 3.04229 33.298 3.09969C39.7478 3.48715 44.9259 7.24692 50.8802 8.97612C52.3502 9.39945 53.8946 9.79409 55.4471 9.90889C56.3638 9.98064 57.2805 9.94476 58.1972 9.94476C59.0148 9.94476 59.9315 9.92324 60.6995 10.2031C61.162 10.3753 61.2941 10.6049 61.1372 10.9349C60.3774 12.6139 58.1394 13.7619 56.1409 14.5727C53.8037 15.527 51.3014 16.1512 48.7661 16.5459C45.3471 17.0768 41.8455 17.3782 38.4926 18.2105C34.5781 19.1791 31.1013 21.1451 27.7236 23.0609L29.4991 23.5129C29.5074 17.206 29.5239 10.8919 29.5322 4.58494C29.5322 3.68088 29.5322 2.78399 29.5322 1.87992C29.5322 0.975855 28.3347 1.13371 27.7566 1.42789C26.8977 1.86557 26.2866 2.69071 26.2783 3.5589C26.2701 9.86584 26.2536 16.1799 26.2453 22.4869C26.2453 23.3909 26.2453 24.2878 26.2453 25.1919C26.2453 26.0314 27.4593 25.9668 28.0209 25.6439C31.1838 23.8502 34.4046 21.9918 38.0879 21.1021C41.2839 20.3343 44.6286 20.076 47.8824 19.5523C53.5064 18.641 60.4352 16.5961 63.4413 12.0112C64.5479 10.3179 65.2251 7.78505 62.4586 7.10341C60.5261 6.62985 58.3128 7.06754 56.5125 6.78053C52.5154 6.13477 48.9725 4.57777 45.4049 2.96337C42.5392 1.66467 39.4836 0.566873 36.271 0.172241C33.3476 -0.186515 29.7304 -0.0645384 27.3602 1.68619C26.7491 2.13823 25.9563 3.13557 26.394 3.86026C26.8316 4.58494 27.9631 4.14009 28.4916 3.75263L28.4833 3.74545Z" fill="#222222"/>
</svg>
