<svg width="32" height="32" viewBox="0 0 32 32" fill="none" xmlns="http://www.w3.org/2000/svg">
<path d="M27.1125 26H4.925C4.80353 26 4.68324 25.9761 4.57102 25.9296C4.45879 25.8831 4.35682 25.815 4.27093 25.7291C4.18503 25.6432 4.1169 25.5412 4.07041 25.429C4.02393 25.3168 4 25.1965 4 25.075V10H27C27.2652 10 27.5196 10.1054 27.7071 10.2929C27.8946 10.4804 28 10.7348 28 11V25.1125C28 25.3479 27.9065 25.5736 27.7401 25.7401C27.5736 25.9065 27.3479 26 27.1125 26Z" stroke="#FF541E" stroke-width="2.31111" stroke-linecap="round" stroke-linejoin="round"/>
<path d="M4 10V7.00001C4 6.73479 4.10536 6.48044 4.29289 6.2929C4.48043 6.10536 4.73478 6.00001 5 6.00001H11.5875C11.7174 5.99955 11.846 6.02471 11.9661 6.07404C12.0862 6.12338 12.1955 6.19591 12.2875 6.28751L16 10" stroke="#FF541E" stroke-width="2.31111" stroke-linecap="round" stroke-linejoin="round"/>
</svg>
