<svg width="32" height="32" viewBox="0 0 32 32" fill="none" xmlns="http://www.w3.org/2000/svg">
<g clip-path="url(#clip0_313_5777)">
<g clip-path="url(#clip1_313_5777)">
<path d="M15.9628 13.074C13.3898 13.4026 11.5441 15.2906 11.1035 17.7684C10.9469 18.6534 10.5215 19.1374 10.0344 19.8882C9.1637 21.2296 7.94675 22.4337 7.74117 24.081C7.56242 25.5204 8.43989 27.3745 9.64496 28.1836C11.6351 29.5223 14.0039 29.1177 15.8591 27.6782C16.4555 27.2165 17.788 26.0514 19.4232 26.0164C20.7026 25.9902 21.9453 26.4781 23.2248 26.2071C24.9424 25.8426 27.0754 24.7262 27.3623 22.8785C27.5688 21.5495 27.2461 19.7713 26.3357 18.7249C26.2306 18.6058 26.1147 18.4952 25.9962 18.3889C24.1944 16.7733 21.7939 16.1078 20.0958 14.3337C19.0696 13.2613 17.4898 12.8802 15.961 13.0745L15.9628 13.074Z" fill="#DDDDDD"/>
<path d="M16.0848 12.6548C14.2398 12.9007 12.6106 13.9446 11.6604 15.5356C11.4093 15.9563 11.205 16.3976 11.048 16.8612C10.8909 17.3248 10.8515 17.7936 10.6947 18.2443C10.5591 18.634 10.3167 18.9751 10.0857 19.3168C9.81679 19.7128 9.55402 20.1108 9.27137 20.4977C8.69528 21.2871 8.09727 22.0787 7.74345 22.9907C7.38964 23.9028 7.32109 24.8157 7.55918 25.7533C7.78116 26.6307 8.24605 27.4909 8.89386 28.1309C9.54341 28.7704 10.4112 29.1748 11.3112 29.3423C12.2112 29.5097 13.1814 29.3934 14.0504 29.074C14.9193 28.7547 15.5988 28.2671 16.3025 27.7232C17.1046 27.1052 18.021 26.5431 19.0538 26.4504C20.0866 26.3577 21.1506 26.6966 22.2045 26.7106C23.1039 26.7218 24.0172 26.4421 24.8266 26.0614C25.636 25.6807 26.3408 25.1899 26.8907 24.5125C27.4811 23.7837 27.7187 22.9138 27.7302 21.9977C27.7404 21.0213 27.5576 20.01 27.1014 19.1401C26.6451 18.2702 25.8039 17.6084 24.9523 17.0543C24.1006 16.5003 23.2517 16.0687 22.412 15.5593C21.9915 15.3057 21.5787 15.0389 21.194 14.7371C20.7881 14.4188 20.4511 14.036 20.0586 13.705C19.3428 13.0979 18.4529 12.7584 17.5159 12.6487C17.0395 12.5923 16.5599 12.6011 16.0823 12.6592C15.8715 12.6843 15.7274 12.8886 15.6732 13.078C15.6391 13.1957 15.6274 13.5228 15.8399 13.4972C16.7478 13.3864 17.6774 13.4613 18.5226 13.8092C18.9253 13.9755 19.306 14.1993 19.629 14.4882C19.9792 14.8012 20.2919 15.1426 20.6624 15.4336C22.1441 16.603 23.955 17.2866 25.421 18.4749C25.7926 18.7766 26.1375 19.0983 26.394 19.5027C26.6349 19.8836 26.7995 20.3162 26.9177 20.7502C27.1306 21.5307 27.2293 22.4798 26.9845 23.267C26.5616 24.6283 24.8379 25.4178 23.51 25.746C22.5304 25.9882 21.5673 25.788 20.591 25.6648C20.0825 25.6005 19.5659 25.5622 19.0543 25.6404C18.5426 25.7185 18.0484 25.8896 17.5822 26.1232C16.8302 26.5013 16.223 27.0414 15.5425 27.5182C14.862 27.9951 14.0103 28.3926 13.1469 28.5228C12.2835 28.6529 11.4151 28.5542 10.6235 28.2104C9.83194 27.8667 9.19527 27.3102 8.73413 26.576C8.30521 25.8921 8.00551 25.0465 8.0292 24.2321C8.05288 23.4177 8.46461 22.6097 8.93304 21.9154C9.43896 21.1651 9.98557 20.4407 10.4932 19.6898C10.7419 19.3232 10.9905 18.9492 11.1579 18.538C11.3355 18.1021 11.3934 17.6466 11.5187 17.1971C11.9441 15.6565 13.0628 14.3867 14.5847 13.8096C14.99 13.6568 15.41 13.5516 15.839 13.4938C16.0506 13.4647 16.1925 13.2665 16.2481 13.0749C16.2808 12.9594 16.2947 12.6262 16.0813 12.6557L16.0848 12.6548Z" fill="#D1D1D1"/>
<path d="M5.64481 12.82C5.50126 12.7812 5.21093 12.7265 5.06277 12.7054C4.58045 12.634 4.19986 12.7323 3.74661 12.8814C3.29511 13.03 3.00308 13.2628 2.68985 13.6265C2.44368 13.9115 2.2613 14.2457 2.13179 14.5952C1.19154 17.1259 2.95927 18.9991 3.40876 19.3609C3.85826 19.7227 4.84518 20.5646 6.40762 20.076C7.97005 19.5874 8.66451 18.5049 8.63083 17.0634C8.61188 16.2439 8.29385 15.4419 7.91807 14.7253C7.43264 13.8025 6.65271 13.0893 5.64702 12.8213L5.64481 12.82Z" fill="#DDDDDD"/>
<path d="M5.83807 12.4148C5.41985 12.3097 4.98385 12.2222 4.55059 12.2849C4.11733 12.3476 3.62844 12.4897 3.24 12.7336C2.37951 13.2734 1.86269 14.277 1.66034 15.2295C1.3336 16.7675 1.82169 18.3651 2.91658 19.4909C3.72743 20.3265 4.83494 20.8066 6.02127 20.566C6.797 20.4097 7.56834 20.006 8.08759 19.4104C8.60684 18.8148 8.88512 18.0757 8.93394 17.3061C9.00482 16.1919 8.61915 15.1025 8.05398 14.1551C7.561 13.33 6.78529 12.6746 5.83936 12.4126C5.64075 12.3572 5.47847 12.5425 5.40018 12.7052C5.34629 12.819 5.25582 13.1672 5.45222 13.2213C6.19162 13.4263 6.80658 13.8598 7.26737 14.4597C7.77677 15.1221 8.15888 15.9952 8.28059 16.8204C8.33137 17.1639 8.33528 17.5144 8.27593 17.8598C8.25464 17.9833 8.22194 18.1062 8.1826 18.2253C8.15975 18.294 8.0752 18.4824 8.046 18.5344C7.75098 19.057 7.21059 19.3988 6.64085 19.603C6.01825 19.8268 5.35312 19.8781 4.72884 19.6477C4.32277 19.497 3.96737 19.2554 3.64585 18.9863C2.81785 18.2897 2.25574 17.1996 2.18103 16.13C2.11826 15.2449 2.38866 14.2944 3.05101 13.666C3.67864 13.0689 4.66071 13.0248 5.45314 13.2248C5.65434 13.2758 5.81274 13.0971 5.89233 12.9322C5.94538 12.8223 6.03752 12.4663 5.84028 12.4161L5.83807 12.4148Z" fill="#D1D1D1"/>
<path d="M10.4481 5.21566C10.3004 5.16136 9.99827 5.07665 9.84376 5.0389C9.3411 4.91957 8.93298 4.99211 8.44648 5.11511C7.95999 5.2381 7.635 5.46691 7.27969 5.83454C7.0011 6.12455 6.78291 6.472 6.62116 6.84114C5.44793 9.51711 7.17269 11.7129 7.61914 12.1473C8.06559 12.5818 9.04309 13.5844 10.7243 13.1891C12.4055 12.7939 13.2154 11.6731 13.2836 10.1013C13.3234 9.20707 13.0476 8.30357 12.7022 7.4905C12.2582 6.44246 11.4894 5.59561 10.4498 5.21519L10.4481 5.21566Z" fill="#DDDDDD"/>
<path d="M10.6418 4.81221C10.2133 4.66195 9.75579 4.53606 9.29666 4.56521C8.78799 4.59843 8.24459 4.73299 7.80817 5.00086C6.87741 5.57238 6.30386 6.6372 6.05804 7.65838C5.67576 9.24809 6.08796 10.9194 7.09388 12.1961C7.8363 13.1402 8.96965 13.8287 10.2269 13.6777C11.0788 13.5746 11.9261 13.2168 12.5312 12.6056C13.1363 11.9943 13.4534 11.2044 13.56 10.3843C13.7131 9.21312 13.3921 7.99408 12.8788 6.94622C12.4124 5.99624 11.6594 5.19482 10.6435 4.81174C10.2934 4.68098 9.91818 5.49204 10.2581 5.61999C11.0465 5.91678 11.6683 6.47357 12.1049 7.17936C12.5841 7.9529 12.9026 8.93148 12.9669 9.83643C12.9933 10.1938 12.9707 10.5643 12.8846 10.915C12.8081 11.2245 12.7003 11.4872 12.5339 11.7269C12.1683 12.2519 11.557 12.574 10.9298 12.7457C10.2274 12.9376 9.50442 12.892 8.86127 12.5563C8.46902 12.3522 8.13453 12.0626 7.83134 11.75C7.02933 10.9194 6.54081 9.71208 6.53232 8.56761C6.52462 7.62908 6.85497 6.62942 7.56438 5.97364C7.93405 5.63162 8.42018 5.47927 8.91448 5.42045C9.38117 5.36351 9.82223 5.46989 10.259 5.62343C10.613 5.74763 10.9856 4.93361 10.6444 4.81518L10.6418 4.81221Z" fill="#D1D1D1"/>
<path d="M23.0693 8.15109C23.1742 8.04568 23.3983 7.85311 23.5161 7.76081C23.8981 7.45781 24.2768 7.35265 24.7439 7.25511C25.2109 7.15757 25.5785 7.2137 26.0316 7.37207C26.3873 7.4958 26.7123 7.69402 26.9992 7.9319C29.0789 9.65344 28.4846 12.1596 28.2762 12.6976C28.0683 13.2375 27.6341 14.4582 26.0367 14.8163C24.4392 15.1744 23.2966 14.5841 22.605 13.319C22.2117 12.5998 22.0861 11.7462 22.0532 10.9377C22.0122 9.89584 22.3311 8.88823 23.068 8.15328L23.0693 8.15109Z" fill="#DDDDDD"/>
<path d="M23.1836 8.45182C23.4394 8.20288 23.7173 7.96642 24.0559 7.83706C24.4249 7.69583 24.842 7.60065 25.2391 7.63412C26.0897 7.70809 26.8392 8.26563 27.3544 8.90067C27.8277 9.48435 28.1073 10.1917 28.1828 10.9354C28.2123 11.2275 28.2115 11.5186 28.1809 11.8102C28.1535 12.0789 28.1297 12.2142 28.0727 12.4282C28.0543 12.4994 28.0297 12.5686 28.009 12.6386C27.9774 12.7446 28.041 12.5619 28.0103 12.6364C27.9937 12.6795 27.9784 12.7204 27.9619 12.7635C27.927 12.8501 27.8903 12.9373 27.8514 13.0232C27.8288 13.0716 27.8056 13.1183 27.7825 13.1649C27.7727 13.1842 27.6881 13.3375 27.7307 13.2654C27.4405 13.7573 26.9991 14.1185 26.4231 14.3133C25.8008 14.5243 25.0717 14.5816 24.4446 14.3759C23.8652 14.187 23.4105 13.7989 23.0727 13.3078C22.5297 12.5201 22.3525 11.5018 22.3623 10.5586C22.3706 9.77775 22.6254 9.02106 23.1853 8.45135C23.321 8.31376 23.4449 8.04861 23.3618 7.85737C23.2787 7.66612 23.0776 7.72737 22.9567 7.84997C22.3053 8.51229 21.913 9.36473 21.7847 10.2716C21.6479 11.2378 21.7743 12.3396 22.1432 13.2403C22.4265 13.9338 22.9014 14.5722 23.5601 14.959C24.2188 15.3457 24.9669 15.4012 25.6899 15.2792C26.497 15.1421 27.2335 14.7901 27.7642 14.1602C28.1361 13.7218 28.3822 13.2123 28.5743 12.6767C29.0321 11.4036 28.9 9.85414 28.2191 8.69843C27.6793 7.78282 26.7879 7.03139 25.7128 6.82617C25.2148 6.73135 24.6868 6.83234 24.2118 6.99827C23.7368 7.16419 23.3227 7.49421 22.958 7.84778C22.8196 7.9824 22.6988 8.25223 22.7814 8.44176C22.8641 8.63129 23.0648 8.56832 23.1866 8.44916L23.1836 8.45182Z" fill="#D1D1D1"/>
<path d="M15.1073 3.96738C15.208 3.84651 15.4273 3.62209 15.5422 3.51214C15.9179 3.15747 16.3076 3.01624 16.7904 2.8795C17.2732 2.74277 17.6691 2.77844 18.1606 2.91916C18.5469 3.03101 18.9095 3.22282 19.2342 3.46163C21.5882 5.19247 21.1924 7.95648 21.023 8.55592C20.8536 9.15537 20.5084 10.5124 18.8548 11.0107C17.2012 11.509 15.9394 10.9433 15.0944 9.61621C14.6128 8.86172 14.4 7.94135 14.2925 7.06452C14.153 5.93491 14.3954 4.81708 15.1055 3.96785L15.1073 3.96738Z" fill="#DDDDDD"/>
<path d="M15.2216 4.26804C15.4759 3.97163 15.7562 3.67382 16.1162 3.50558C16.504 3.32249 16.9549 3.19248 17.387 3.21658C18.3357 3.27164 19.1865 3.8646 19.7801 4.55411C20.6622 5.57862 20.992 6.97752 20.7937 8.28786C20.7872 8.33376 20.7785 8.37842 20.7703 8.42479C20.7606 8.48631 20.7937 8.32283 20.7737 8.40918C20.7703 8.42479 20.767 8.44041 20.7637 8.45602C20.7445 8.53113 20.7247 8.60452 20.7033 8.67837C20.6772 8.77003 20.6507 8.85997 20.6206 8.95085C20.6134 8.97302 20.5503 9.15009 20.5851 9.05609C20.5613 9.12136 20.5331 9.18414 20.5054 9.24863C20.4777 9.31312 20.4494 9.36855 20.4181 9.42664C20.4048 9.45412 20.3893 9.48036 20.3739 9.50659C20.3305 9.58264 20.4324 9.41727 20.3502 9.54423C20.2736 9.66416 20.1847 9.78737 20.1055 9.8767C19.8777 10.1255 19.6011 10.3248 19.2907 10.4613C18.6365 10.7489 17.8393 10.8742 17.1413 10.6838C16.4817 10.5035 15.9551 10.085 15.5513 9.55081C14.9284 8.72375 14.6633 7.66459 14.5805 6.64863C14.5089 5.75852 14.7123 4.88677 15.2903 4.18152C15.3988 4.04753 15.4894 3.74898 15.3555 3.6063C15.2079 3.44708 15.0132 3.6373 14.918 3.75114C14.2877 4.5201 13.9646 5.50492 13.9434 6.4825C13.9215 7.51362 14.1396 8.64243 14.6062 9.56477C14.9769 10.2974 15.5457 10.9715 16.3071 11.3289C17.0686 11.6862 17.8487 11.665 18.6173 11.4682C21.6866 10.6826 22.1127 6.61097 20.6565 4.33953C20.042 3.38319 19.0538 2.61351 17.9058 2.4094C17.3486 2.31023 16.7784 2.44276 16.2637 2.6635C15.749 2.88424 15.3458 3.24813 14.9885 3.66416C14.86 3.81455 14.7248 4.05878 14.812 4.25814C14.8919 4.43737 15.1029 4.39922 15.2171 4.26554L15.2216 4.26804Z" fill="#D1D1D1"/>
</g>
</g>
<defs>
<clipPath id="clip0_313_5777">
<rect width="32" height="32" fill="white"/>
</clipPath>
<clipPath id="clip1_313_5777">
<rect width="28" height="25" fill="white" transform="translate(-1 7.24695) rotate(-15)"/>
</clipPath>
</defs>
</svg>
