<svg width="136" height="136" viewBox="0 0 136 136" fill="none" xmlns="http://www.w3.org/2000/svg">
<g clip-path="url(#clip0_511_5003)">
<path d="M25.4847 72.2973C20.0557 67.7915 12.9766 65.3199 5.91791 65.4622C6.38645 64.5773 6.855 63.7026 7.32354 62.8177L42.8616 37.2878L59.6375 60.9462L25.4847 72.2973Z" fill="#EEEEEE"/>
<path d="M27.1246 70.3445C21.3799 65.6555 14.148 63.1839 6.74296 63.2754L7.48651 65.8793C7.95506 64.9944 8.4236 64.1197 8.89215 63.2348L7.51707 64.6384C11.5099 61.7701 15.5027 58.9018 19.4955 56.0335C25.8718 51.4564 32.248 46.8794 38.6243 42.2921C40.1013 41.2343 41.5782 40.1663 43.0653 39.1085L40.9874 38.8949C45.8766 45.8012 50.7759 52.6973 55.6651 59.6036C56.3679 60.5902 57.0605 61.5768 57.7633 62.5533L59.9838 58.8611C50.012 62.177 40.0503 65.4826 30.0785 68.7984C28.6627 69.2663 27.2367 69.7444 25.8208 70.2122C24.7004 70.5784 23.6615 71.7888 23.5087 72.9687C23.3661 74.057 24.0995 74.708 25.169 74.352C35.1408 71.0361 45.1025 67.7305 55.0743 64.4146C56.4901 63.9468 57.9161 63.4687 59.3319 63.0008C60.3811 62.655 62.4488 60.5801 61.5524 59.3087C56.6633 52.4024 51.7639 45.5063 46.8748 38.6C46.172 37.6133 45.4793 36.6267 44.7765 35.6503C44.2876 34.9586 43.3811 34.9485 42.6986 35.4367C38.4715 38.4677 34.2546 41.5089 30.0276 44.54L10.6441 58.4644L7.79209 60.5089C7.59856 60.6513 7.40503 60.7835 7.2115 60.9259C5.79568 61.943 5.16417 63.5196 4.36968 65.0147C3.88076 65.9403 3.54463 67.6389 5.11324 67.6186C11.9377 67.5372 18.589 69.9173 23.8652 74.2299C25.4847 75.5522 28.7543 71.6566 27.1348 70.3343L27.1246 70.3445Z" fill="#222222"/>
<path d="M27.0228 74.5655C27.0228 74.5655 23.7939 59.9189 1.98621 59.6646L56.3169 17.3013C56.3169 17.3013 79.3673 14.0567 83.7471 32.8125" fill="#EEEEEE"/>
<path d="M29.0294 73.3857C27.5219 66.6726 21.2678 61.6887 15.0851 59.4714C11.1636 58.0576 6.96704 57.5592 2.81125 57.4981L2.67884 61.1395C8.81066 56.359 14.9425 51.5785 21.0743 46.798C30.8322 39.1899 40.5902 31.5818 50.3481 23.9635C52.5686 22.2344 54.7891 20.5053 57.0096 18.7761L55.4919 19.4881C62.6627 18.4913 71.2391 19.956 76.719 25.0925C79.2552 27.4726 80.9359 30.6358 81.7406 34.0025C82.3619 36.5657 86.1917 33.4838 85.7537 31.6326C84.4907 26.3842 81.6387 21.7665 76.9838 18.8982C73.2762 16.6198 69.0389 15.4806 64.7304 15.0941C62.2858 14.8704 59.6986 14.7483 57.254 15.1145C55.9197 15.3179 54.6261 16.6198 53.5872 17.4335C47.9137 21.858 42.2403 26.2825 36.5668 30.707C29.1414 36.4945 21.7262 42.2819 14.3008 48.0694C10.0431 51.3852 5.64289 54.5892 1.49729 58.0474C1.43618 58.0982 1.36488 58.1491 1.29358 58.2101C0.315748 58.973 -0.988026 61.8209 1.16116 61.8514C10.42 61.9938 20.6159 65.4012 24.4763 74.3316C24.6597 74.7588 24.8226 75.1961 24.9754 75.6437C25.0162 75.7657 25.0467 75.8878 25.0875 76.02C24.8838 75.3691 24.9856 75.603 25.0162 75.7657C25.5866 78.3289 29.447 75.2572 29.0294 73.3958V73.3857Z" fill="#222222"/>
<path d="M118.226 10.0899C118.47 7.73016 118.969 4.4245 121.312 3.20395C124.195 1.70877 128.554 2.01391 131.386 3.48874C135.246 5.50265 134.065 9.78475 132.904 13.1209" fill="#FEDB22"/>
<path d="M120.212 9.39828C120.294 8.60493 120.395 7.81157 120.558 7.01821C120.579 6.93684 120.721 6.34691 120.67 6.54016C120.62 6.73341 120.762 6.24519 120.793 6.16382C120.864 5.95023 120.945 5.7468 121.037 5.5332C121.058 5.48235 121.21 5.20772 121.058 5.47218C120.905 5.7468 121.108 5.39081 121.139 5.33995C121.159 5.29926 121.241 5.11618 121.282 5.10601C121.282 5.10601 120.976 5.52303 121.159 5.28909C121.18 5.25858 121.302 5.0755 121.333 5.0755C121.129 5.0755 121.007 5.44166 121.241 5.17721C121.526 4.85173 120.956 5.35012 121.333 5.11618C121.353 5.10601 121.628 4.95344 121.424 5.05515C121.22 5.15687 121.597 4.98396 121.638 4.96361C122.585 4.58728 123.186 4.47539 124.195 4.41437C126.059 4.29231 127.963 4.62796 129.664 5.40098C130.276 5.6756 131.04 6.27571 131.315 6.65204C131.539 6.95718 131.681 7.29283 131.824 7.63866C131.936 7.91328 131.824 7.57763 131.895 7.86242C131.946 8.08619 131.977 8.32013 131.997 8.5439C132.017 8.74732 132.017 8.95075 132.028 9.16435C132.028 9.38811 132.028 9.144 132.028 9.11349C132.028 9.26606 132.007 9.41863 131.987 9.5712C131.946 9.99839 131.865 10.4256 131.773 10.8528C131.742 10.9748 131.722 11.0969 131.691 11.2189C131.691 11.2596 131.59 11.6461 131.651 11.402C131.702 11.2088 131.549 11.7478 131.518 11.8496C131.376 12.3174 131.223 12.7853 131.06 13.2532C130.754 14.1279 130.877 15.3586 132.078 15.2976C133.28 15.2366 134.38 14.0262 134.737 12.9887C136.041 9.23555 137.355 3.88546 133.026 1.54607C128.697 -0.793323 122.158 -0.69161 118.878 3.26501C117.126 5.38064 116.525 8.10653 116.24 10.7714C116.128 11.8394 116.83 12.5107 117.9 12.1547C118.969 11.7987 120.09 10.5578 120.212 9.39828Z" fill="#222222"/>
<path d="M83.7472 32.8125L129.614 90.9311L75.8532 133.783L27.0228 74.5655" fill="#EEEEEE"/>
<path d="M82.1072 34.7553C87.3019 41.3361 92.4865 47.9067 97.6812 54.4875C105.891 64.8927 114.101 75.2878 122.31 85.693C124.205 88.0832 126.089 90.4836 127.984 92.8739L128.931 89.4665C122.871 94.2978 116.81 99.1292 110.75 103.961C101.093 111.65 91.4374 119.35 81.7915 127.039C79.5812 128.799 77.381 130.558 75.1707 132.318L77.5033 131.83C71.9928 125.147 66.4721 118.455 60.9616 111.772C52.1917 101.133 43.4218 90.504 34.6519 79.8648C32.6555 77.4441 30.6692 75.0335 28.6728 72.6127C27.9496 71.7278 26.3301 73.0196 25.8616 73.579C25.1893 74.3825 24.6495 75.6031 25.393 76.5083C30.9035 83.1908 36.4242 89.8835 41.9347 96.566C50.7046 107.205 59.4745 117.834 68.2444 128.473C70.2408 130.894 72.2271 133.305 74.2235 135.725C74.7939 136.417 76.0875 135.614 76.556 135.237C82.6165 130.406 88.677 125.574 94.7375 120.743C104.394 113.054 114.05 105.354 123.696 97.6645C125.906 95.9049 128.106 94.1453 130.316 92.3857C131.264 91.633 132.119 90.0564 131.264 88.9783C126.069 82.3975 120.884 75.8268 115.69 69.246C107.48 58.8408 99.2702 48.4458 91.0605 38.0406C89.1659 35.6503 87.2816 33.2499 85.387 30.8597C84.6842 29.9646 83.0341 31.2869 82.5758 31.8259C81.8831 32.6498 81.384 33.8297 82.1072 34.7553Z" fill="#222222"/>
<path d="M27.0228 74.5656L83.7472 32.8024C83.7472 32.8024 89.6651 21.97 83.7472 16.0605C77.8293 10.151 65.9934 16.0605 65.9934 16.0605L11.734 57.9356C11.734 57.9356 22.0929 53.9993 27.0228 58.4238C31.9527 62.8585 30.9647 70.5277 27.0228 74.5758V74.5656Z" fill="#EEEEEE"/>
<path d="M27.7154 76.0303C36.0779 69.8766 44.4506 63.7129 52.8131 57.5592C63.0396 50.0325 73.266 42.5058 83.4823 34.979C84.6944 34.084 85.3973 33.138 86.039 31.7344C87.8418 27.7879 89.0947 23.0075 87.9641 18.7152C86.5381 13.2532 81.4248 10.9342 76.1079 11.3105C72.7364 11.5444 68.764 12.4802 65.8101 14.2297C64.9647 14.728 64.1906 15.4502 63.4063 16.0503L57.9773 20.2409C52.2427 24.6654 46.4979 29.0899 40.7634 33.5245C31.0258 41.0411 21.2882 48.5577 11.5506 56.0641C11.3775 56.1963 11.1941 56.3387 11.021 56.4709C10.3284 57.01 9.56443 58.1899 9.70703 59.1256C9.83944 59.9597 10.6034 60.3055 11.3775 60.0105C15.0444 58.6272 19.74 57.7322 23.4883 59.207C29.2229 61.4752 29.5489 69.6631 25.8311 73.5993C25.2097 74.2503 24.5273 75.7861 25.3625 76.5286C26.2589 77.3118 27.5932 76.1625 28.1738 75.5624C32.1462 71.3617 33.8778 64.3028 30.7915 59.1256C27.7969 54.101 22.0725 53.5823 16.8065 54.5994C15.1971 54.9147 13.5776 55.2911 12.0396 55.8708L12.4063 59.4002C20.5141 53.1449 28.6118 46.8896 36.7196 40.6444C46.4368 33.1482 56.154 25.652 65.861 18.1558C66.1157 17.9625 66.4009 17.7794 66.625 17.5658C66.3703 17.8099 66.0444 17.9625 65.9832 17.9828C66.5536 17.7693 67.0935 17.4946 67.6639 17.281C71.4734 15.8367 76.3523 14.6467 80.1924 16.6199C84.6639 18.9186 84.888 24.3602 83.6453 28.5711C83.4009 29.4052 83.1055 30.2392 82.7693 31.0428C82.6573 31.3275 82.5249 31.6022 82.4027 31.887C82.3415 32.0192 82.2804 32.1514 82.2193 32.2836C82.5554 31.531 82.3619 32.07 82.2601 32.1921C81.71 32.8939 83.7472 30.8902 82.7082 31.592C79.3571 33.8805 76.1588 36.4132 72.8994 38.8136C66.9509 43.1872 61.0126 47.5609 55.0641 51.9447C45.6423 58.8815 36.2205 65.8183 26.7987 72.7551L26.2996 73.1213C25.5153 73.701 24.5884 75.2166 25.1079 76.2032C25.6783 77.2915 27.0228 76.549 27.695 76.0506L27.7154 76.0303Z" fill="#222222"/>
<path d="M105.636 48.7813C103.66 55.6571 101.684 62.5227 99.7184 69.3985L104.679 81.4921L116.851 73.9552C117.197 72.755 117.554 71.5446 117.9 70.3444C120.966 59.7866 124.032 49.2288 127.098 38.6812C128.697 33.1887 130.286 27.6963 131.885 22.1936C132.466 20.1797 133.148 18.176 133.647 16.1417C134.136 14.1176 133.403 13.0293 131.457 12.5207C128.89 11.8494 126.324 11.168 123.726 10.6187C121.842 10.222 119.275 9.42867 117.462 10.4356C116.352 11.0561 115.853 12.3783 115.527 13.7311L105.646 48.7711L105.636 48.7813Z" fill="#FF6F1E"/>
<path d="M103.793 48.9136C102.367 53.867 100.951 58.8204 99.5249 63.7738L98.4248 67.6083C98.1192 68.6763 97.5081 69.9172 97.8238 71.0157C97.9563 71.4633 98.1905 71.9006 98.3637 72.3278C99.8406 75.9183 101.307 79.5189 102.784 83.1094C103.131 83.9434 104.282 83.6789 104.862 83.323C107.358 81.7769 109.843 80.2411 112.339 78.695C113.683 77.861 115.038 77.0269 116.382 76.1929C116.606 76.0607 116.83 75.9284 117.044 75.786C118.888 74.5553 119.173 72.1956 119.744 70.202C124.307 54.4772 128.88 38.7525 133.443 23.0175C133.983 21.146 134.584 19.2847 135.114 17.403C135.531 15.9078 136.122 14.2499 135.603 12.7039C135.206 11.5138 134.207 10.8527 133.056 10.4662C131.08 9.79487 128.962 9.37785 126.935 8.8998C123.889 8.18781 120.212 6.89606 117.279 8.59466C115.71 9.51008 114.61 11.0866 114.009 12.7751C113.927 13.009 113.571 14.3109 113.693 13.8736C113.673 13.9346 113.663 13.9854 113.642 14.0465C112.074 19.7119 110.454 25.3671 108.855 31.0223C107.174 36.9827 105.494 42.943 103.813 48.9136C103.548 49.8391 103.609 50.958 104.832 50.958C105.932 50.958 107.205 49.6459 107.49 48.6491C110.067 39.5255 112.634 30.4019 115.211 21.2782L116.932 15.1755C117.065 14.7076 117.197 14.2499 117.33 13.782C117.35 13.721 117.36 13.66 117.38 13.5989C117.493 13.1921 117.594 12.4699 117.849 12.1241C117.981 11.9308 117.493 12.358 117.666 12.2665C117.88 12.1546 118.195 12.1546 118.419 12.1343C119.55 12.0427 120.701 12.358 121.791 12.6021C123.237 12.9276 124.684 13.2429 126.12 13.5989C127.556 13.9549 128.982 14.2702 130.388 14.7076C131.09 14.9212 131.773 15.2365 131.814 16.0502C131.875 17.1487 131.233 18.5116 130.917 19.5491C130.439 21.1257 129.97 22.692 129.512 24.2788L126.833 33.4939C122.901 47.0319 118.969 60.5698 115.038 74.1078L116.688 72.1447C112.634 74.657 108.57 77.1693 104.516 79.6816L106.594 79.8952C104.944 75.8674 103.283 71.8294 101.633 67.8016L101.582 69.2866C103.558 62.4108 105.534 55.5452 107.5 48.6694C107.765 47.7439 107.704 46.625 106.482 46.625C105.382 46.625 104.108 47.9371 103.823 48.9339L103.793 48.9136Z" fill="#222222"/>
<path d="M120.263 12.2463C118.297 19.061 116.331 25.8758 114.366 32.7007L105.005 65.147C104.292 67.6288 103.569 70.1208 102.856 72.6026C102.591 73.5281 102.652 74.647 103.874 74.647C104.974 74.647 106.247 73.3349 106.533 72.3381C108.499 65.5234 110.464 58.7086 112.43 51.8837L121.791 19.4373C122.504 16.9556 123.227 14.4636 123.94 11.9818C124.205 11.0562 124.144 9.93738 122.922 9.93738C121.821 9.93738 120.548 11.2495 120.263 12.2463Z" fill="#222222"/>
<path d="M126.751 12.7445C124.887 19.3457 123.023 25.957 121.159 32.5582C118.185 43.0854 115.221 53.6025 112.247 64.1298C111.564 66.5404 110.882 68.951 110.21 71.3616C109.945 72.2871 110.006 73.406 111.228 73.406C112.328 73.406 113.602 72.0939 113.887 71.0971C115.751 64.4959 117.615 57.8846 119.479 51.2835C122.453 40.7562 125.417 30.2391 128.391 19.7119C129.074 17.3013 129.756 14.8907 130.428 12.4801C130.693 11.5545 130.632 10.4357 129.41 10.4357C128.31 10.4357 127.037 11.7478 126.751 12.7445Z" fill="#222222"/>
<path d="M117.207 72.7144L101.409 91.8873L99.7897 69.3884C99.7897 69.3884 102.051 72.2974 105.636 70.7412C105.636 70.7412 107.867 73.0704 110.974 71.6159C110.974 71.6159 114.416 74.291 117.207 72.7043V72.7144Z" fill="white"/>
<path d="M116.036 71.738C111.422 77.3423 106.808 82.9365 102.194 88.5409C101.542 89.3343 100.89 90.1276 100.238 90.9108L103.416 90.7074C102.947 84.1571 102.479 77.5966 102 71.0463L101.796 68.2187L98.16 71.3515C99.861 73.4874 102.927 73.7824 105.321 72.8263L104.017 72.7042C105.738 74.4537 108.498 74.6164 110.658 73.701L109.354 73.579C111.727 75.3894 114.712 75.9387 117.411 74.5554C118.379 74.057 119.387 72.6737 119.234 71.5345C119.061 70.314 117.88 70.4666 117.044 70.8937C115.73 71.5651 113.683 70.4869 112.634 69.6834C112.277 69.4087 111.727 69.3884 111.33 69.5613C109.914 70.1614 108.397 69.9275 107.297 68.8086C106.991 68.5035 106.339 68.5442 105.993 68.6866C104.312 69.3477 102.581 68.8697 101.45 67.4559C100.9 66.7642 99.5656 67.5678 99.1174 67.9441C98.3739 68.5747 97.7322 69.5918 97.8035 70.5988C98.272 77.1491 98.7406 83.7095 99.2193 90.2598L99.423 93.0874C99.5656 95.02 101.969 93.6367 102.601 92.884C107.215 87.2797 111.829 81.6855 116.443 76.0811C117.095 75.2877 117.747 74.4944 118.399 73.7112C118.969 73.0195 119.744 71.5447 118.868 70.7819C117.992 70.019 116.586 71.1073 116.056 71.7481L116.036 71.738Z" fill="#222222"/>
<path d="M102.957 82.8856C101.735 85.6014 100.818 88.429 100.146 91.338C100.055 91.7448 100.156 92.3246 100.492 92.5992C100.829 92.8738 101.399 92.8738 101.796 92.7213C102.988 92.2737 103.833 91.1752 104.108 89.9648C104.19 89.6292 104.271 89.2834 104.353 88.9477C104.373 88.8867 104.536 88.2968 104.434 88.6426C104.333 88.9884 104.506 88.3985 104.516 88.3374C104.699 87.6967 104.903 87.0559 105.117 86.4151C105.555 85.1233 106.064 83.8519 106.624 82.6008C107.001 81.777 106.757 80.4445 105.606 80.5564C104.353 80.6886 103.426 81.7973 102.947 82.8653L102.957 82.8856Z" fill="#222222"/>
<path d="M100.421 83.9129C100.442 84.3706 100.442 84.8283 100.421 85.2759L100.442 84.7775C100.421 85.2861 100.38 85.8048 100.309 86.3134C100.258 86.7405 100.299 87.2695 100.655 87.5746C101.012 87.8797 101.562 87.8492 101.959 87.6966C102.54 87.483 103.07 87.0864 103.457 86.6083C103.844 86.1303 104.19 85.5607 104.271 84.9402C104.414 83.8112 104.465 82.672 104.414 81.543C104.394 81.1158 104.088 80.709 103.681 80.5869C103.446 80.5259 103.212 80.5259 102.988 80.5971C102.713 80.6378 102.458 80.7395 102.224 80.8921C101.674 81.2379 101.165 81.7159 100.849 82.2957C100.574 82.8043 100.38 83.323 100.411 83.9129H100.421Z" fill="#222222"/>
<path d="M105.198 83.0483L105.086 83.1602C104.821 83.3738 104.597 83.6281 104.414 83.9231C104.21 84.1773 104.058 84.452 103.945 84.7673C103.833 85.0216 103.782 85.286 103.793 85.5708C103.762 85.8047 103.793 86.0285 103.895 86.2523L104.149 86.5778C104.394 86.7609 104.658 86.8422 104.964 86.8117L105.453 86.71C105.83 86.5676 106.176 86.3642 106.472 86.0997L106.584 85.9878C106.848 85.7742 107.072 85.52 107.256 85.225C107.46 84.9707 107.612 84.6961 107.724 84.3808C107.836 84.1265 107.887 83.862 107.877 83.5772C107.908 83.3433 107.877 83.1195 107.775 82.8958L107.521 82.5703C107.276 82.3872 107.011 82.3058 106.706 82.3363L106.217 82.4381C105.84 82.5805 105.494 82.7839 105.198 83.0483Z" fill="#222222"/>
<g clip-path="url(#clip1_511_5003)">
<path d="M77.5874 74.6453C73.8179 75.3499 71.2565 78.3502 70.8457 82.1157C70.7008 83.4641 70.1088 84.2293 69.4684 85.4076C68.3086 87.509 66.6171 89.4161 66.4721 91.9183C66.3392 94.1048 67.8132 96.8379 69.6738 97.9675C72.7426 99.826 76.2101 99.0243 78.8197 96.7043C79.6534 95.9633 81.514 94.0927 83.9303 93.9105C85.8151 93.7647 87.6998 94.4085 89.5725 93.8983C92.0734 93.2059 95.1301 91.3596 95.3839 88.5415C95.5651 86.5129 94.9127 83.8528 93.4749 82.3465C93.3058 82.1765 93.1246 82.0186 92.9433 81.8606C90.1283 79.5649 86.5158 78.751 83.8337 76.2002C82.2147 74.6575 79.8467 74.2081 77.5995 74.6332L77.5874 74.6453Z" fill="#222222"/>
<path d="M62.3039 75.0826C62.0865 75.034 61.6515 74.9733 61.434 74.9611C60.7091 74.8883 60.1534 75.0705 59.501 75.3255C58.8485 75.5806 58.4378 75.9572 58.0028 76.5402C57.6645 76.9897 57.4229 77.512 57.2658 78.0465C56.1181 81.9457 58.9089 84.6301 59.6097 85.1403C60.3104 85.6505 61.8448 86.8409 64.1162 85.9784C66.3876 85.116 67.3058 83.4276 67.1246 81.2533C67.0158 80.0143 66.4721 78.8239 65.8439 77.7792C65.0344 76.4188 63.8142 75.4106 62.3039 75.0826Z" fill="#222222"/>
<path d="M68.6952 63.215C68.4656 63.1422 68.0186 63.045 67.789 62.9964C67.04 62.8506 66.4359 62.9964 65.723 63.2272C65.0102 63.458 64.5511 63.8224 64.0678 64.4055C63.6812 64.867 63.3913 65.4015 63.1859 65.9846C61.6998 70.1145 64.4665 73.297 65.1673 73.9165C65.868 74.536 67.4145 75.9694 69.855 75.2406C72.2955 74.5117 73.395 72.7504 73.3467 70.3696C73.3225 69.0213 72.8271 67.673 72.2351 66.4704C71.474 64.9278 70.2658 63.7009 68.6831 63.215H68.6952Z" fill="#222222"/>
<path d="M87.6394 66.6404C87.7844 66.4704 88.0985 66.1667 88.2677 66.0209C88.7993 65.5351 89.355 65.3407 90.0316 65.1585C90.7082 64.9763 91.264 65.0249 91.9526 65.2314C92.4842 65.3893 92.9917 65.6687 93.4387 65.9966C96.6766 68.426 96.0363 72.2645 95.7825 73.0905C95.5288 73.9165 94.9972 75.7993 92.6654 76.4673C90.3337 77.1354 88.5939 76.3337 87.4461 74.4752C86.7937 73.4184 86.5279 72.143 86.4071 70.9162C86.25 69.3492 86.6246 67.7944 87.6394 66.6283V66.6404Z" fill="#222222"/>
<path d="M75.461 60.9557C75.5939 60.7613 75.8959 60.4091 76.0651 60.239C76.5846 59.6681 77.1524 59.4252 77.8532 59.1822C78.5539 58.9393 79.1459 58.9636 79.8829 59.1336C80.4628 59.2673 81.0186 59.5345 81.526 59.8625C85.1747 62.2919 84.8485 66.4947 84.6552 67.4179C84.4619 68.3411 84.0753 70.4182 81.6831 71.2928C79.2909 72.1674 77.3699 71.4264 75.9926 69.4829C75.2073 68.3775 74.8086 67.0049 74.5669 65.693C74.2528 63.9924 74.5065 62.2919 75.4731 60.9557H75.461Z" fill="#222222"/>
</g>
</g>
<defs>
<clipPath id="clip0_511_5003">
<rect width="136" height="136" fill="white"/>
</clipPath>
<clipPath id="clip1_511_5003">
<rect width="39" height="40" fill="white" transform="translate(57 59)"/>
</clipPath>
</defs>
</svg>
