<svg width="137" height="136" viewBox="0 0 137 136" fill="none" xmlns="http://www.w3.org/2000/svg">
<g clip-path="url(#clip0_511_5065)">
<path d="M43.1482 45.6462L35.8036 48.3882C35.8036 48.3882 34.0525 49.445 32.6116 53.5928C31.1807 57.7506 16.3415 100.764 16.3415 100.764C16.3415 100.764 14.5703 105.081 19.7336 107.873C24.8968 110.665 98.1726 133.767 98.1726 133.767C98.1726 133.767 103.916 134.843 106.028 128.741C108.139 122.629 122.468 81.0818 122.468 81.0818C122.468 81.0818 122.398 77.2431 117.845 70.3036L43.1482 45.6462Z" fill="#EEEEEE"/>
<path d="M43.4684 43.6123C41.1269 44.4897 38.7654 45.3272 36.434 46.2445C33.3921 47.431 31.7511 51.0304 30.7504 53.882C29.2595 58.1494 27.7986 62.4368 26.3277 66.7042C22.4753 77.8713 18.6229 89.0384 14.7704 100.206C14.3302 101.482 13.9799 102.748 14.1 104.124C14.3502 107.145 16.6816 109.229 19.3333 110.356C22.8655 111.861 26.5678 113.028 30.2001 114.274C43.0081 118.631 55.8861 122.769 68.7642 126.907C77.9199 129.848 87.0756 132.76 96.2414 135.661C101.214 137.236 106.098 133.268 107.759 128.791C109.42 124.314 110.981 119.469 112.582 114.812C116.424 103.655 120.386 92.5381 124.129 81.3511C124.639 79.8156 124.249 78.4596 123.779 76.9441C123.108 74.7605 122.078 72.6866 120.927 70.7224C120.396 69.8051 119.916 68.5588 118.886 68.1599C116.284 67.1629 113.562 66.4051 110.911 65.5277C98.9831 61.5893 87.0456 57.6509 75.1182 53.7125C65.4021 50.502 55.696 47.3014 45.9799 44.0909C45.4496 43.9114 44.9193 43.7419 44.389 43.5624C42.5578 42.9542 39.7661 47.0521 41.8974 47.7601C50.3027 50.5319 58.6979 53.3037 67.1032 56.0756C80.5015 60.5025 93.9099 64.9295 107.308 69.3464C110.4 70.3635 113.492 71.3904 116.584 72.4074L115.974 71.8989C117.575 74.3716 119.046 76.974 119.956 79.7857C120.206 80.5435 120.456 81.3511 120.487 82.2584L120.647 81.2314C118.745 86.7552 116.834 92.2789 114.933 97.8026C111.921 106.527 108.919 115.241 105.907 123.966L104.567 127.844C104.366 128.412 104.196 129.021 103.946 129.569C103.746 129.998 103.416 130.476 103.316 130.576C102.976 130.935 102.795 131.065 102.235 131.324C102.385 131.254 101.395 131.583 101.365 131.593C101.164 131.633 100.574 131.703 100.214 131.713C100.054 131.713 99.8936 131.713 99.7335 131.713C99.6635 131.713 99.2833 131.673 99.5734 131.713C99.8636 131.753 99.4734 131.713 99.4033 131.683C99.1432 131.603 98.883 131.523 98.6228 131.434C93.4096 129.788 88.1963 128.133 82.9831 126.468C74.1676 123.656 65.3621 120.835 56.5566 117.973C48.2814 115.291 40.0062 112.589 31.7711 109.767C29.0694 108.84 26.3677 107.913 23.706 106.906C22.9556 106.627 22.2151 106.337 21.4846 106.018C21.3746 105.969 21.2745 105.919 21.1644 105.869C20.9143 105.749 21.4046 105.998 21.3546 105.969C20.9543 105.729 20.5441 105.5 20.1638 105.211C19.1932 104.483 18.3627 103.526 18.1025 102.309C18.0525 102.07 18.0325 101.831 18.0225 101.591C18.0025 101.233 17.9925 101.681 18.0225 101.362C18.0325 101.183 18.0725 101.013 18.0925 100.834C18.1426 100.365 18.1225 100.694 18.0725 100.834C18.1125 100.724 18.1526 100.604 18.1926 100.495C18.4227 99.8366 18.6429 99.1786 18.873 98.5205C19.9737 95.3299 21.0744 92.1393 22.1751 88.9487C25.197 80.1845 28.2188 71.4303 31.2407 62.6661C32.2113 59.8644 33.1719 57.0527 34.1425 54.2509C34.3127 53.7723 34.4728 53.2838 34.6529 52.8052C34.903 52.1372 35.1932 51.499 35.5634 50.8809C35.6635 50.7213 35.7536 50.5618 35.8636 50.4122C35.8336 50.4521 35.6635 50.6814 35.8336 50.4621C35.9237 50.3424 36.444 49.7641 36.1438 50.0633C35.8436 50.3624 36.1938 50.0034 36.2739 49.9636C36.6241 49.7841 36.0337 50.1331 35.9737 50.1729C35.6335 50.3724 35.3233 50.4422 35.8636 50.2527C36.7042 49.9636 37.5347 49.6246 38.3652 49.3155C39.8561 48.7571 41.3471 48.1988 42.838 47.6404C43.9287 47.2316 44.9593 46.1249 45.1094 44.9384C45.2395 43.9114 44.519 43.1935 43.4784 43.5824L43.4684 43.6123Z" fill="#222222"/>
<path d="M34.7629 75.8373L51.8936 26.1537L124.119 48.6873L104.957 104.254L78.8205 120.845L53.0844 110.056L34.7629 75.8373Z" fill="white"/>
<path d="M36.564 75.7077C38.5052 70.0842 40.4365 64.4708 42.3777 58.8474C45.4396 49.9735 48.5015 41.0996 51.5634 32.2258C52.2739 30.1619 52.9843 28.098 53.7047 26.0241L50.6528 28.2575C58.7779 30.79 66.903 33.3226 75.0281 35.8651C87.9862 39.9131 100.944 43.9512 113.912 47.9993C116.904 48.9366 119.896 49.8638 122.878 50.8011L122.318 48.8368C120.166 55.0884 118.005 61.34 115.854 67.5816C112.411 77.5522 108.979 87.5229 105.537 97.4935C104.747 99.7967 103.946 102.1 103.156 104.393L104.777 102.469C97.1519 107.315 89.5171 112.15 81.8924 116.996C80.8117 117.684 79.721 118.372 78.6403 119.06L80.0712 118.761C72.5565 115.61 65.0418 112.459 57.5371 109.309C56.4765 108.86 55.4058 108.411 54.3451 107.973L54.9555 108.481C49.6022 98.4905 44.2588 88.5 38.9055 78.5094C38.145 77.0936 37.3946 75.6778 36.6341 74.2619C35.5834 72.2977 32.0112 75.7276 32.9218 77.4326C38.3652 87.5927 43.8086 97.7527 49.252 107.923C49.8924 109.119 50.4327 110.555 51.2432 111.642C51.6234 112.16 52.2839 112.34 52.8642 112.579L56.0562 113.915C62.4202 116.587 68.7842 119.249 75.1481 121.922C76.6191 122.54 77.7498 123.397 79.2807 122.48C81.1719 121.343 83.0131 120.107 84.8742 118.93C90.7779 115.181 96.6916 111.432 102.595 107.683C104.096 106.726 106.108 105.809 106.798 104.074C107.228 102.997 107.558 101.861 107.939 100.764C109.92 95.0307 111.891 89.2976 113.872 83.5745C117.815 72.1282 121.767 60.6819 125.71 49.2456L125.94 48.5676C126.18 47.8797 126.24 46.8726 125.38 46.6034C117.254 44.0709 109.129 41.5384 101.004 38.9958C88.0462 34.9478 75.0881 30.9097 62.12 26.8616C59.1281 25.9244 56.1363 24.9971 53.1544 24.0599C51.8936 23.661 50.4527 25.2763 50.1025 26.2933C48.1613 31.9167 46.2301 37.5302 44.2889 43.1536C41.227 52.0274 38.165 60.9013 35.1031 69.7752C34.3927 71.8391 33.6822 73.903 32.9618 75.9769C32.6516 76.8742 32.7917 77.981 33.9624 77.981C35.1331 77.981 36.2438 76.6848 36.574 75.7176L36.564 75.7077Z" fill="#222222"/>
<path d="M32.2313 74.6209L22.5153 102.798L48.9818 111.532L96.1113 127.086L106.458 107.604L115.043 82.717L73.7773 95.4395L63.8311 92.1592C55.9161 80.683 47.6209 69.486 38.9655 58.5781" fill="#EEEEEE"/>
<path d="M17.3621 104.523L63.681 90.1651C63.681 90.1651 70.9856 87.0343 75.2182 93.9738C79.0106 100.196 98.3027 126.967 102.285 132.47" fill="#EEEEEE"/>
<path d="M17.0418 106.547C21.7648 105.081 26.4977 103.615 31.2207 102.15C39.2357 99.6671 47.2407 97.1844 55.2557 94.7017L62.4702 92.4683C62.7804 92.3686 63.0906 92.2789 63.4008 92.1792C63.8311 92.0396 64.2413 91.89 64.6816 91.7903C64.3514 91.8701 64.7416 91.7803 64.8717 91.7604C65.0918 91.7305 65.312 91.6906 65.5421 91.6707C66.0124 91.6208 66.4827 91.5909 66.953 91.6108C71.4258 91.7504 73.347 95.639 75.5284 98.8894C78.0599 102.658 80.6716 106.367 83.2932 110.086C88.6265 117.644 94.0199 125.172 99.4333 132.67C99.7735 133.138 100.104 133.607 100.444 134.076C101.785 135.94 105.257 132.431 104.156 130.905C99.0731 123.866 94.0099 116.797 88.9868 109.708C86.155 105.699 83.3232 101.691 80.5515 97.6431C79.6009 96.2472 78.6503 94.8513 77.7397 93.4355C76.4289 91.3915 75.1281 89.4971 72.8867 88.3704C68.3139 86.0672 63.2607 88.3903 58.7679 89.7862C50.943 92.2091 43.1181 94.6419 35.3032 97.0648C29.5396 98.8495 23.706 100.485 17.9924 102.429C17.8923 102.459 17.8023 102.489 17.7022 102.519C16.6015 102.858 15.5809 104.084 15.4308 105.221C15.2807 106.357 16.0112 106.906 17.0618 106.577L17.0418 106.547Z" fill="#222222"/>
<path d="M74.898 95.9978C80.2013 94.5521 85.5046 93.1063 90.8079 91.6606C99.3132 89.3474 107.809 87.0242 116.314 84.7111C118.255 84.1826 120.196 83.6542 122.138 83.1257C123.238 82.8266 124.269 81.5304 124.409 80.4237C124.549 79.317 123.819 78.7785 122.778 79.0677C117.475 80.5134 112.171 81.9592 106.868 83.4049C98.3627 85.7181 89.8673 88.0413 81.362 90.3544C79.4208 90.8829 77.4796 91.4113 75.5384 91.9398C74.4377 92.2389 73.4071 93.5351 73.267 94.6418C73.1269 95.7485 73.8573 96.287 74.898 95.9978Z" fill="#222222"/>
<path d="M92.569 54.9687C92.5189 54.5599 92.4789 54.1411 92.4789 53.7224C92.4789 54.1013 92.5289 53.4233 92.549 53.3435C92.4789 53.6027 92.4789 53.6127 92.559 53.3834L92.4189 53.6825C92.1587 54.0215 92.1187 54.0913 92.2888 53.8819C92.1387 54.0713 91.9686 54.2209 91.7585 54.3405C91.3682 54.4702 92.1387 54.1013 91.7585 54.3405C91.4983 54.3904 91.4683 54.4103 91.6784 54.3904C91.4683 54.3705 91.4583 54.3804 91.6484 54.4203C91.8185 54.4901 91.7985 54.4801 91.6084 54.3904C91.6584 54.4203 91.6984 54.4602 91.7485 54.5001C91.8285 54.5798 91.8085 54.5499 91.6884 54.3904C91.7384 54.4502 91.7685 54.52 91.8085 54.5898C91.8485 54.6596 91.8685 54.7394 91.8985 54.8092C91.8485 54.5998 91.8285 54.5599 91.8485 54.6795C91.8585 54.7394 91.8685 54.7992 91.8685 54.859C91.8885 54.5699 91.8885 54.53 91.8685 54.7294C91.8285 54.9488 91.8385 54.8889 91.9186 54.54C91.9886 54.3605 92.0787 54.191 92.1987 54.0414C92.2988 53.8819 92.4289 53.7323 92.589 53.6127C92.3989 53.7722 92.4489 53.7423 92.7391 53.513C92.3889 53.7523 93.1493 53.3235 92.639 53.5329C92.5089 53.5728 92.549 53.5628 92.7591 53.513C92.659 53.5329 92.559 53.5429 92.4589 53.5429C92.3588 53.5429 92.2588 53.5429 92.1587 53.5429C92.3388 53.5628 92.3488 53.5628 92.1587 53.5429L90.5877 57.6707C91.1881 57.4614 91.8085 57.2819 92.4289 57.1423C92.1787 57.2021 92.5089 57.1323 92.599 57.1124C92.7591 57.0825 92.9092 57.0526 93.0693 57.0326C93.3895 56.9828 93.6997 56.9429 94.0199 56.913C94.25 56.893 94.4802 56.8731 94.7203 56.8631C94.9204 56.8631 94.9505 56.893 94.7403 56.8631C94.8504 56.8831 94.9505 56.893 95.0605 56.9229C95.1706 56.9529 95.2607 56.9828 95.3607 57.0127C95.3207 56.9329 95.6009 57.0725 95.3607 57.0127C95.3807 57.0526 95.5308 57.1622 95.5708 57.1921L95.4408 57.0426C95.4908 57.1722 95.5008 57.1722 95.4508 57.0426C95.4208 56.2649 95.9211 55.4174 96.6215 55.0185C96.2313 55.2379 96.9517 54.9288 96.7016 54.9986C96.6315 55.0185 96.4514 55.1282 96.3713 55.1083C96.6215 55.0584 96.6615 55.0485 96.5014 55.0684C96.4414 55.0684 96.3814 55.0883 96.3213 55.0883C96.1712 55.1083 96.0111 55.1183 95.861 55.1183C95.7109 55.1183 95.5508 55.1183 95.4007 55.1183C95.0805 55.1083 95.761 55.1781 95.1906 55.0983C93.9498 54.9288 92.7791 54.4801 91.6384 53.9716L90.0674 58.0995C90.2475 58.0396 90.4176 57.9898 90.5977 57.9499C90.2575 58.0396 90.8079 57.92 90.8379 57.92C91.1981 57.8701 91.5683 57.8502 91.9386 57.8502C92.3088 57.8502 92.3288 57.8602 92.7791 57.9499C93.1393 58.0197 93.4895 58.1294 93.8398 58.249L95.891 54.0215C94.9705 53.9916 94.0499 53.9617 93.1293 53.9318C92.689 53.9218 92.2488 53.9018 91.7985 53.8919C91.5984 53.8919 91.3882 53.8819 91.1881 53.8719C90.9379 53.8021 91.078 53.8719 91.1881 53.8719C90.9379 53.8021 91.1681 53.862 91.1681 53.8919C91.1681 53.9218 91.3182 54.0913 91.2181 53.9417C91.1181 53.7922 91.2381 54.0015 91.2481 54.0315C91.2181 53.9716 91.2882 53.7623 91.2481 53.9916C91.1981 54.2608 91.2782 53.9118 91.2882 53.852C91.3682 53.4033 91.4683 52.9646 91.5183 52.5159C91.6184 51.6086 91.6284 50.5417 91.088 49.7541C90.6678 49.1459 90.0674 48.6673 89.3169 48.5376C88.0261 48.3183 86.8154 49.0362 85.9949 49.9834C85.1743 50.9306 84.694 52.1769 84.8942 53.4133C85.0242 54.191 85.3244 54.9488 85.7147 55.6268C86.5452 57.0924 87.766 58.3388 89.2669 59.1364C90.2675 59.6649 91.3782 59.0068 92.0286 58.1892C92.3989 57.7206 92.7591 57.1622 92.8291 56.554C92.8692 56.1751 92.8892 55.5271 92.4889 55.3177C91.7885 54.9488 91.1381 54.4901 90.5777 53.9318C89.9673 53.3335 89.7472 53.0543 89.3269 52.2467C89.1568 51.9177 89.0268 51.5787 88.8867 51.2497C88.8266 51.0602 88.8266 51.0602 88.8767 51.2397C88.8566 51.14 88.8366 51.0403 88.8266 50.9406C88.7466 50.5717 88.7366 51.1998 88.8266 50.8409C88.6165 51.6884 87.9461 52.5957 87.0355 52.7552C86.7954 52.7153 86.7653 52.7153 86.9555 52.7552C87.0355 52.7752 87.1156 52.7951 87.1956 52.825C87.0455 52.7353 87.0155 52.7153 87.1156 52.7851C87.1756 52.815 87.2256 52.8549 87.2757 52.8948C87.3757 52.9746 87.6259 53.3335 87.4658 53.0444C87.4958 53.1042 87.6459 53.4631 87.6059 53.3235C87.6259 53.3834 87.6559 53.9118 87.6559 53.5828C87.6559 54.0913 87.5058 54.6098 87.4157 55.1083C87.2556 56.0356 87.2256 57.2021 88.0962 57.7904C88.9167 58.3487 90.2775 58.1593 91.2281 58.1992C92.2488 58.2291 93.2694 58.269 94.29 58.2989C94.7804 58.3188 95.4408 57.9001 95.781 57.6009C96.1912 57.232 96.5314 56.8033 96.7716 56.3048C97.1318 55.5669 97.3319 54.4103 96.3413 54.0614C94.5302 53.4133 92.559 53.4731 90.7378 54.0414C89.8172 54.3306 88.9167 55.2977 88.6065 56.2051C88.3463 56.9728 88.3363 57.7904 89.1668 58.1693C90.7778 58.8971 92.4689 59.4555 94.26 59.3957C96.5314 59.3259 98.943 57.7704 99.3432 55.4174C99.4833 54.5898 99.2832 53.6625 98.5527 53.154C97.9223 52.7253 97.1718 52.6156 96.4214 52.5957C94.7003 52.5658 92.8592 53.0643 91.2481 53.6127C90.3276 53.9318 89.427 54.849 89.1168 55.7763C88.9167 56.3646 88.7766 57.6209 89.6772 57.7405C91.6184 58.0097 93.5096 57.242 94.7203 55.6766C95.761 54.3206 96.4214 52.1271 95.0605 50.7312C93.5796 49.2156 91.2481 50.5916 90.1074 51.808C88.6765 53.3335 88.4264 55.2678 88.6465 57.252C88.7766 58.3786 90.0174 58.3687 90.7979 57.8801C91.7284 57.3018 92.7191 56.1053 92.589 54.9188L92.569 54.9687Z" fill="#222222"/>
<path d="M91.2382 56.1652C93.0093 58.1494 94.2201 60.5822 94.6904 63.2444C95.2407 66.4051 94.3602 69.5159 92.2789 71.9886C85.9349 79.4965 76.2989 82.8865 74.9781 83.385C73.6573 83.8935 68.6841 85.4091 65.182 85.1698C63.1607 85.0302 60.6391 84.9105 59.2382 83.2853C57.8574 81.69 58.0975 79.2971 58.2276 77.3628C58.4678 73.9428 60.6891 69.3264 61.3796 68.12C62.07 66.9136 66.823 58.0397 75.2983 52.9148C79.1607 50.5817 83.6435 50.8908 87.4659 53.1042C88.8968 53.9318 90.1676 54.9687 91.2282 56.1652H91.2382Z" fill="#FF6F1E"/>
<path d="M32.6015 54.909C42.7378 66.8737 52.4839 79.1475 61.8297 91.7404C62.5102 92.6478 63.6209 92.229 64.3713 91.5909C64.9817 91.0724 66.2025 89.4572 65.5421 88.5698C56.0361 75.7675 46.1299 63.2643 35.8135 51.0902C34.5727 49.6245 31.2306 53.2937 32.6015 54.909Z" fill="#222222"/>
</g>
<path d="M37.8678 14.9667C37.3634 14.8466 36.9191 14.6184 36.4507 14.4263C36.2825 14.3542 36.6548 14.5224 36.6548 14.5344C36.6548 14.5344 36.4867 14.4383 36.4627 14.4263C36.3666 14.3662 36.2705 14.3062 36.1745 14.2461C35.9343 14.09 35.7061 13.9218 35.4779 13.7417C35.2497 13.5615 35.0455 13.3694 34.8534 13.1652C34.7573 13.0691 34.6732 12.949 34.5772 12.8529C34.433 12.7088 34.6492 12.949 34.6612 12.961C34.6132 12.877 34.5531 12.8049 34.4931 12.7208C34.313 12.4446 34.1688 12.1564 34.0367 11.8561C33.9647 11.688 33.9166 11.5078 33.8446 11.3277C33.9887 11.688 33.8326 11.2556 33.8085 11.0995C33.7725 10.9073 33.7485 10.7151 33.7365 10.523C33.7365 10.4509 33.7365 10.3548 33.7365 10.2948C33.6764 10.0426 33.7725 10.523 33.7245 10.511C33.7125 10.511 33.7725 10.1026 33.7725 10.0666C33.7725 9.99454 33.8085 9.92248 33.8085 9.85042C33.8446 9.55017 33.6044 10.4269 33.7605 10.0186C33.8085 9.88645 33.8566 9.75434 33.9046 9.62223C34.0607 9.17785 33.5804 10.1867 33.8206 9.79037C33.9046 9.65826 34.0007 9.51413 34.0728 9.38202C34.2049 9.12981 33.8206 9.80238 33.8085 9.75434C33.8085 9.73032 33.9527 9.56218 33.9767 9.53816C34.0728 9.41806 34.1808 9.29796 34.2769 9.17785C34.6252 8.7575 33.9407 9.49012 34.0848 9.37002C34.3009 9.17785 34.5171 8.97368 34.7453 8.78152C34.8414 8.70946 34.9375 8.6374 35.0215 8.56534C35.4419 8.22905 34.4691 8.93765 34.8294 8.69745C35.0215 8.56534 35.2137 8.44524 35.4058 8.31312C35.658 8.15699 35.9102 8.03689 36.1624 7.89277C36.5227 7.6886 35.6821 8.10895 35.7061 8.10895C35.8382 8.08493 35.9823 8.00086 36.1024 7.96483C36.2105 7.9288 36.5828 7.90478 36.2946 7.90478C35.9823 7.90478 36.2705 7.90478 36.3426 7.90478C36.4627 7.90478 36.5948 7.88076 36.7149 7.86875C37.1232 7.85674 37.2673 7.89277 37.7958 8.09694C38.144 8.24106 37.6276 7.97684 37.8798 8.14498C37.9519 8.19302 38.036 8.24106 38.108 8.30111C38.2521 8.4092 38.3722 8.52931 38.5043 8.64941C38.7325 8.85358 38.4923 8.5173 38.6124 8.79353C38.6485 8.88961 38.7085 8.98569 38.7565 9.08177C38.8646 9.29795 38.7565 9.18986 38.7565 9.03373C38.7565 9.29795 38.7685 9.44208 38.8046 9.06976C38.7926 9.2379 38.6845 9.49012 38.8766 8.91363C38.8406 9.00971 38.7085 9.2379 38.9007 8.91363C38.9727 8.79353 39.0928 8.46926 39.2249 8.4092C39.1649 8.43323 39.1048 8.56534 39.0568 8.60137C38.8166 8.81755 39.345 8.34916 39.309 8.34916C39.285 8.34916 38.7325 8.7575 39.1769 8.49328C39.5492 8.26508 38.9847 8.60137 38.9007 8.66142C38.8166 8.70946 38.2882 8.97368 38.5524 8.85358C38.8646 8.70946 38.4323 8.88961 38.3602 8.92564C38.2521 8.96167 38.1561 8.9977 38.048 9.03373C37.8078 9.1178 37.5556 9.18986 37.3034 9.24991C37.0512 9.30996 37.2914 9.24991 37.3394 9.24991C37.2673 9.26192 37.1953 9.27393 37.1232 9.28594C37.0031 9.29795 36.883 9.32197 36.7749 9.33398C36.4627 9.37001 36.1624 9.40604 35.8502 9.41805C35.6821 9.41805 35.5139 9.41805 35.3458 9.41805C35.2737 9.41805 35.2017 9.41805 35.1176 9.41805C34.6372 9.41805 35.3818 9.47811 35.1176 9.41805C34.7213 9.34599 34.337 9.29796 33.9407 9.17785C33.7485 9.1178 33.5684 9.05775 33.3882 8.98569C33.2801 8.94966 32.8478 8.70946 33.124 8.8776C32.7277 8.6374 32.3554 8.37318 32.0191 8.0489C31.6228 7.67659 31.4667 7.47242 31.2145 6.99201C31.0823 6.75181 30.9743 6.48759 30.8902 6.22336C30.9863 6.51161 30.8542 5.98316 30.8422 5.88708C30.8422 5.791 30.8181 5.70693 30.8181 5.61085C30.8181 5.53879 30.8542 5.04637 30.8181 5.37065C30.7821 5.65889 30.8662 5.09441 30.8782 4.99833C30.8902 4.92627 30.9142 4.8422 30.9262 4.77014C30.9622 4.4819 30.71 5.35864 30.9022 4.91426C30.9743 4.74612 31.0343 4.58999 31.1064 4.42185C31.5747 3.44903 31.2385 1.8757 29.9054 2.00782C28.4042 2.16395 27.3713 3.47305 26.7709 4.73411C25.7741 6.82387 25.8101 9.56218 27.1792 11.4718C28.5483 13.3814 30.3858 14.3062 32.6076 14.4983C34.8294 14.6905 36.9431 14.1861 38.8886 13.2012C41.3506 11.9642 44.1129 9.06976 43.4643 6.06723C43.2241 4.93828 42.5396 3.97747 41.5308 3.413C40.1977 2.66837 38.7806 2.60832 37.3154 2.96863C36.4627 3.1728 35.67 3.59315 34.9254 4.04954C31.6828 6.06723 28.4402 9.73032 29.0887 13.8378C29.5571 16.8403 31.923 19.3264 34.9014 20.023C36.2345 20.3352 37.6396 19.0862 38.2401 18.0053C38.6845 17.2006 39.285 15.303 37.8918 14.9787L37.8678 14.9667Z" fill="#C4F832"/>
<path d="M0.932349 24.8656C2.34949 26.7152 3.76664 28.5527 5.18378 30.4023C5.49603 30.7986 6.34872 30.6665 6.72102 30.5464C7.38155 30.3302 8.06611 29.7898 8.48645 29.2613C8.90679 28.7329 9.36315 28.0243 9.44722 27.2917L9.47124 26.7032C9.44722 26.3429 9.30311 26.0426 9.03889 25.8024C7.62175 23.9529 6.2046 22.1153 4.78746 20.2657C4.47521 19.8694 3.62252 20.0015 3.25022 20.1216C2.58969 20.3378 1.90513 20.8783 1.48479 21.4067C1.06446 21.9352 0.608087 22.6438 0.524019 23.3764L0.5 23.9649C0.524019 24.3252 0.668136 24.6254 0.932349 24.8656Z" fill="#005AC5"/>
<path d="M115.603 2.16967C114.198 0.512269 111.832 -0.160298 109.718 0.0318641C106.74 0.308097 104.194 2.08559 102.608 4.57169C102.284 5.07611 102.02 5.86878 102.092 6.4813C102.152 6.9617 102.44 7.49015 102.957 7.61025C104.338 7.92251 105.623 6.62542 106.295 5.59255C106.644 5.05209 105.935 6.03692 106.115 5.83275C106.199 5.73667 106.283 5.62858 106.367 5.5325C106.668 5.1842 105.743 6.10898 106.115 5.79672C106.199 5.72466 106.283 5.6526 106.367 5.58054C106.716 5.28029 105.743 5.98888 106.115 5.74868C106.223 5.67662 106.331 5.60456 106.439 5.54451C106.475 5.52049 106.776 5.38838 106.776 5.36436C106.776 5.4124 106.067 5.67662 106.572 5.47245C106.776 5.38838 106.992 5.31632 107.196 5.25626C107.712 5.11214 106.944 5.29229 107.1 5.25626C107.232 5.23224 107.352 5.20822 107.484 5.19621C107.965 5.13616 108.445 5.12415 108.925 5.16018L108.397 5.11214C109.178 5.18421 109.922 5.38838 110.619 5.74868L110.186 5.52049C110.775 5.83275 111.291 6.24109 111.724 6.75753C112.06 7.15386 112.865 7.03376 113.261 6.90165C113.921 6.68547 114.606 6.14501 115.026 5.61657C115.783 4.65576 116.48 3.22655 115.579 2.15765L115.603 2.16967Z" fill="#005AC5"/>
<path d="M116.24 24.9408C116.577 25.6854 117.237 26.1898 118.006 26.442C118.822 26.7063 119.711 26.6102 120.528 26.382C120.996 26.2499 121.465 26.0097 121.885 25.7454C122.329 25.4572 122.774 25.1329 123.158 24.7606C123.554 24.3643 123.963 23.9679 124.299 23.5236C124.635 23.0792 124.995 22.5748 125.332 22.0824C125.668 21.59 125.92 20.7613 125.848 20.1728C125.788 19.6924 125.5 19.1639 124.983 19.0438C124.395 18.9117 123.77 19.0918 123.266 19.4041L122.665 19.8365C122.257 20.1848 121.921 20.5931 121.645 21.0615C121.597 21.1216 121.549 21.1936 121.501 21.2537L121.969 20.6051C121.669 21.0255 121.368 21.4338 121.008 21.8061L121.573 21.2417C121.38 21.4338 121.188 21.602 120.972 21.7581L121.573 21.3257C121.392 21.4458 121.212 21.5539 121.02 21.65L121.621 21.3618C121.465 21.4338 121.308 21.4819 121.14 21.5179L121.717 21.3978C121.465 21.4458 121.212 21.4578 120.948 21.4458L121.477 21.4939C121.2 21.4698 120.948 21.3978 120.696 21.2777L121.128 21.5059C120.912 21.3858 120.72 21.2417 120.576 21.0495L120.876 21.4338C120.804 21.3377 120.744 21.2296 120.684 21.1216C120.468 20.6411 119.927 20.437 119.423 20.461C118.798 20.497 118.078 20.9054 117.633 21.3017C117.069 21.8181 116.529 22.4547 116.288 23.1873C116.096 23.7518 115.964 24.3763 116.228 24.9408H116.24Z" fill="#C4F832"/>
<path d="M11.0651 44.4477C8.73519 47.5824 7.42613 51.5697 8.41092 55.449C9.26361 58.7878 11.4614 61.382 14.5359 62.8833C15.0042 63.1115 15.8689 62.7391 16.2533 62.523C16.8898 62.1506 17.5263 61.5021 17.8746 60.8656C18.451 59.8207 18.7873 58.4515 17.5263 57.839C16.6616 57.4187 15.5447 56.5059 14.7881 55.6412C14.1275 54.8845 13.503 53.6715 13.1187 52.5546C13.0947 52.4945 13.0226 52.2303 13.0827 52.4345C13.0467 52.2783 13.0106 52.1342 12.9866 51.9781C12.9266 51.6298 12.8785 51.2815 12.8545 50.9332C12.8545 50.7771 12.8305 50.6209 12.8305 50.4648C12.8305 50.4048 12.8305 49.9123 12.8185 50.2366C12.8185 49.9243 12.8665 49.6121 12.9146 49.2998C12.9386 49.1077 12.9746 48.9155 13.0226 48.7233C13.0226 48.6753 13.1427 48.2069 13.0707 48.4711C12.9986 48.7353 13.1307 48.279 13.1548 48.2309C13.2148 48.0508 13.2869 47.8586 13.3589 47.6785C13.419 47.5343 13.479 47.3902 13.5391 47.2461C13.443 47.4743 13.3829 47.5463 13.5391 47.2821C13.6351 47.114 13.7312 46.9458 13.8393 46.7777C13.9234 46.6456 14.2717 46.1772 13.8393 46.7537C14.4638 45.913 15.4606 44.1955 14.3918 43.2948C13.3829 42.442 11.6776 43.631 11.0771 44.4357L11.0651 44.4477Z" fill="#F5693C"/>
<path d="M67.6756 18.4254C68.8165 17.8609 69.9454 17.2965 71.0863 16.732C71.4226 16.5398 71.7108 16.2996 71.963 16.0114C72.2633 15.7351 72.5035 15.4229 72.7076 15.0746C72.9118 14.7623 73.0439 14.4381 73.1159 14.0898C73.224 13.7895 73.2601 13.4893 73.224 13.177C73.14 12.6846 72.8998 12.1802 72.3593 12.048L71.8309 12C71.4106 12.048 71.0142 12.1802 70.6419 12.4083C69.501 12.9728 68.3721 13.5373 67.2312 14.1018C66.8949 14.2939 66.6067 14.5341 66.3545 14.8224C66.0542 15.0986 65.814 15.4109 65.6099 15.7592C65.4057 16.0714 65.2736 16.3957 65.2016 16.744C65.0935 17.0442 65.0574 17.3445 65.0935 17.6568C65.1775 18.1492 65.4177 18.6536 65.9582 18.7857L66.4866 18.8338C66.9069 18.7857 67.3033 18.6536 67.6756 18.4254Z" fill="#FEDB22"/>
<path d="M115.69 100.003C115.762 99.9552 115.834 99.9192 115.906 99.8831C115.99 99.8351 116.086 99.7991 116.158 99.751C116.495 99.5468 115.882 99.8831 115.894 99.8711C116.062 99.691 116.591 99.5829 116.819 99.4988C117.011 99.4388 117.191 99.3787 117.383 99.3187C117.407 99.3187 118.056 99.1625 117.648 99.2466C119.605 98.8743 121.527 99.2466 123.088 100.544C124.337 101.589 124.829 102.958 124.949 104.435C124.986 104.843 124.998 105.24 124.986 105.648C124.998 105.144 124.937 106.044 124.925 106.2C124.853 106.837 124.709 107.462 124.577 108.098C124.481 108.59 124.769 107.486 124.625 107.918C124.601 108.014 124.577 108.11 124.541 108.194C124.505 108.302 124.469 108.41 124.433 108.518C124.421 108.554 124.397 108.602 124.385 108.639C124.217 109.203 124.709 108.134 124.457 108.494C124.373 108.614 124.289 108.759 124.229 108.891C123.941 109.443 124.709 108.338 124.253 108.855C123.797 109.371 124.649 108.518 124.301 108.831C124.181 108.939 123.773 109.215 124.253 108.903C124.217 108.927 123.532 109.227 123.941 109.071C123.941 109.071 123.196 109.239 123.556 109.191C123.028 109.263 122.908 109.251 122.5 109.131C120.998 108.687 121.046 106.777 121.443 105.66C121.695 104.963 121.695 104.903 122.019 104.363C122.127 104.183 122.247 104.003 122.355 103.822C121.935 104.339 122.884 102.934 122.355 103.822C122.596 103.534 122.812 103.234 123.052 102.958C123.136 102.862 123.232 102.754 123.328 102.657C123.556 102.417 123.52 102.453 123.208 102.778C123.316 102.681 123.424 102.573 123.532 102.477C123.7 102.333 123.869 102.189 124.049 102.045C123.52 102.477 124.169 101.973 124.301 101.889C124.469 101.781 124.637 101.685 124.817 101.601C124.373 101.829 125.25 101.444 125.346 101.42C126.162 101.156 127.327 101.108 128.348 101.384C130.162 101.865 131.339 103.138 131.915 104.771C132.384 106.08 134.305 105.18 134.966 104.591C135.938 103.714 136.851 102.309 136.371 100.952C134.461 95.5595 127.736 94.959 123.46 97.8174C121.287 99.2706 119.413 101.324 118.176 103.63C116.867 106.056 115.51 109.791 117.155 112.386C118.801 114.98 122.235 114.716 124.577 113.286C126.427 112.157 127.964 110.308 128.733 108.278C129.91 105.156 130.318 100.976 128.624 97.9975C125.934 93.2656 119.497 93.0614 115.246 95.6796C114.117 96.3762 112.928 97.8174 113.096 99.2466C113.264 100.676 114.729 100.592 115.678 100.003H115.69Z" fill="#F5693C"/>
<defs>
<clipPath id="clip0_511_5065">
<rect width="112" height="112" fill="white" transform="translate(14.08 24)"/>
</clipPath>
</defs>
</svg>
