<svg width="110" height="142" viewBox="0 0 110 142" fill="none" xmlns="http://www.w3.org/2000/svg">
<path d="M60.6698 24.1313C60.4784 20.8809 60.0454 17.5903 59.2196 14.4406C58.696 12.257 57.699 10.355 56.2085 8.72484C55.0202 6.89338 53.4492 5.45437 51.4955 4.39776C47.4673 2.27446 43.0262 1.5298 38.5448 2.70717C30.4884 4.8204 23.721 11.8544 21.868 19.9853C20.7905 24.7049 20.9516 28.7603 21.9184 33.4698C22.583 36.7 24.1339 39.8094 25.5135 42.7478C26.5709 44.7001 28.011 46.28 29.8439 47.4573C31.4652 48.9467 33.3686 49.9429 35.5639 50.4662C37.7996 51.1706 40.0353 51.2611 42.2608 50.7681C44.4965 50.6674 46.5811 50.0033 48.5046 48.7756C51.284 46.9844 53.8017 44.5089 55.2518 41.5C55.3425 41.4296 55.4331 41.3591 55.5237 41.2887C57.6083 39.1956 59.0484 36.7201 59.844 33.8823C60.2871 30.6219 60.8611 27.4219 60.6698 24.1313Z" fill="black"/>
<path d="M79.4009 41.2988C79.3103 41.3692 79.2197 41.4397 79.129 41.5101C77.6789 44.519 75.1612 46.9945 72.3818 48.7857C70.4482 50.0134 68.3737 50.6775 66.138 50.7781C63.9024 51.2813 61.6667 51.1807 59.4411 50.4763C57.2558 49.953 55.3525 48.9567 53.7211 47.4674C51.8882 46.28 50.4481 44.7102 49.3907 42.7579C48.001 39.8095 46.4602 36.7101 45.7956 33.4799C44.8288 28.7704 44.6676 24.7049 45.7452 19.9954C47.5982 11.8645 54.3756 4.8305 62.422 2.71727C67.8299 1.29838 73.9125 2.66695 78.1623 6.30976C79.7635 7.67833 81.0928 9.35885 82.0193 11.2507C83.1371 13.5249 84.406 17.047 84.406 20.9615C84.406 27.7741 82.2106 34.3453 80.267 39.2158L79.4009 41.2988Z" fill="black"/>
<path d="M10.5187 127.297C18.8873 136.092 32.1804 138.427 42.2711 139.252C55.5944 140.339 68.2833 139.614 80.5089 133.899C91.9591 128.545 98.5956 117.365 99.0387 105.833C99.1999 101.747 98.8474 97.6617 98.4446 93.5962C98.0115 89.2389 97.4577 84.8917 96.7326 80.5747C95.1918 71.2966 92.6641 62.089 88.5251 53.6662C84.8191 46.119 80.368 38.4107 72.9258 33.9931C71.1131 32.9163 69.099 32.1213 67.1453 31.3566C65.9469 30.8836 64.7183 30.5415 63.4494 30.31C60.0456 29.676 56.7626 29.7867 53.6911 31.588C51.7676 32.7151 49.9146 34.627 48.7867 36.7604C48.4745 36.7604 48.1624 36.7604 47.8703 36.7604C46.4302 36.8107 44.8894 37.0321 43.5601 37.6359C42.7444 38.0082 42.1704 38.6824 41.9086 39.4271C41.8783 39.3365 41.8582 39.2359 41.828 39.1453C40.8411 36.0862 38.9377 33.1276 36.0072 31.5779C35.0002 31.1553 33.9931 30.7226 32.9861 30.2999C30.7403 29.6962 28.4946 29.6962 26.2489 30.2999C22.9457 30.9138 19.6627 32.3327 16.8128 34.0836C13.9326 35.8547 11.0726 37.9981 8.92755 40.6346C3.53981 47.246 1.9688 53.0826 2.57304 61.1229C2.996 66.7381 5.14102 71.0551 8.37367 74.3356C2.36156 90.6779 -3.20745 113.189 10.5288 127.297" fill="black"/>
<path d="M79.5017 104.837C79.6024 104.988 79.6729 105.119 79.7434 105.28L78.1925 101.617C78.2529 101.778 78.2832 101.929 78.3134 102.1L77.7696 98.0241C77.7897 98.2556 77.7897 98.4669 77.7696 98.6883L78.3134 94.6128C78.2731 94.8442 78.2127 95.0555 78.1321 95.2669L79.683 91.6039C79.5923 91.8152 79.4816 92.0064 79.3506 92.1976L81.7474 89.0982C81.6064 89.2794 81.4554 89.4303 81.2741 89.5813L84.3758 87.1863C84.2348 87.2869 84.1039 87.3674 83.9529 87.4479L87.6186 85.8982C87.4574 85.9686 87.3064 86.0089 87.1352 86.0491L91.2137 85.5057L91.0425 85.5259C88.9277 85.4454 86.964 85.8881 85.1311 86.8441C83.2278 87.458 81.5863 88.5146 80.1966 90.014C78.6961 91.4027 77.6386 93.0429 77.0243 94.9448C76.0676 96.7763 75.6245 98.7386 75.7051 100.852L76.2489 104.927C76.974 107.524 78.2932 109.778 80.1966 111.69L83.2983 114.085C85.6951 115.473 88.2731 116.168 91.0425 116.178C94.4967 115.735 96.8432 115.644 99.8643 113.652C100.841 113.008 102.473 111.901 103.439 110.774C104.175 109.909 105.353 108.5 105.937 107.534C106.007 107.413 106.078 107.282 106.138 107.161C106.541 106.376 107.488 104.183 107.75 103.337C107.79 103.196 107.84 103.066 107.87 102.935C108.152 101.818 108.354 99.8455 108.444 98.6883C108.454 98.5474 108.465 98.4065 108.465 98.2656C108.465 97.5612 108.183 96.0719 108.173 95.9813C108.072 95.2367 108.021 94.3813 107.83 93.6165L107.78 93.4555L106.229 89.7926C106.148 89.6316 106.088 89.5008 105.987 89.3498C105.02 87.5586 103.701 86.1296 102.04 85.0428C100.559 83.6843 98.817 82.7686 96.823 82.2956C94.7787 81.6516 92.7445 81.561 90.7001 82.0239C88.6558 82.1145 86.7525 82.7183 84.9901 83.8453L81.8884 86.2403C79.9851 88.1523 78.6759 90.4064 77.9408 93.0027L77.397 97.0782C77.397 99.8455 78.1019 102.422 79.4916 104.817L79.5017 104.837Z" fill="black"/>
<path d="M108.112 88.2025C107.176 86.361 105.836 84.6804 104.154 83.4628C102.261 82.0942 100.569 80.8666 98.2732 80.2427L98.9983 81.1886C97.7697 73.3596 95.957 65.5909 93.0768 58.1946C90.1966 50.7983 86.6216 43.8548 81.5762 38.0183L81.7776 39.8095C85.0707 31.9302 87.8703 22.5817 85.5541 14.0784C84.4765 10.1136 82.4725 6.43056 79.1694 3.87456C75.8662 1.31856 71.7977 0.020431 67.6587 0.000305043C62.5731 -0.029884 57.8098 2.18398 53.8218 5.18275L56.128 4.69973C53.2176 1.89215 49.1189 0.372637 45.131 0.0606844C41.143 -0.251269 37.427 0.815408 33.9728 2.5865C27.6586 5.82678 22.4823 11.9149 20.4279 18.7175C19.0382 23.3163 18.8569 28.1264 19.6122 32.856L21.9184 29.6358C14.3453 32.7252 7.75919 38.1693 3.85182 45.4046C0.48826 51.6235 -0.488582 59.2915 1.1932 66.1746C2.13983 70.0187 3.99281 73.4099 6.75214 76.2577L6.55072 74.4665C0.155933 91.8956 -5.45336 115.161 9.57189 129.904C16.863 137.048 27.3565 139.836 37.2256 140.993C48.8973 142.362 60.982 142.351 72.3214 138.95C78.545 137.078 84.5873 134.291 89.391 129.843C93.8321 125.727 97.2158 120.565 99.1695 114.829L97.0244 117.013C103.157 114.537 107.81 109.083 109.693 102.794C109.965 101.878 109.885 100.771 108.686 100.771C107.588 100.771 106.35 102.079 106.058 103.055C105.746 104.112 105.302 105.128 104.859 106.135C104.779 106.316 104.698 106.497 104.618 106.668C104.255 107.443 105.081 106.034 104.386 107.101C104.023 107.654 103.621 108.167 103.208 108.681C102.432 109.637 101.657 110.462 100.64 111.176C100.086 111.569 99.5219 111.951 98.9278 112.283C98.1826 112.706 97.3064 112.937 96.6518 113.501C95.4937 114.487 95.1815 116.127 94.6075 117.486C94.1141 118.653 93.53 119.78 92.8754 120.867C91.5763 123.041 89.9851 125.063 88.1422 126.804C83.822 130.86 78.3738 133.234 72.7444 134.905C66.5812 136.736 60.1461 137.451 53.7312 137.511C42.8953 137.612 31.1531 136.606 21.2436 131.886C16.4702 129.612 12.1399 126.14 9.16906 121.742C6.19826 117.345 4.76824 112.716 4.22443 107.725C2.96561 96.3233 6.28889 84.7911 10.1761 74.1847C10.3977 73.5709 10.4682 72.8967 9.97471 72.3935C4.54669 66.7884 3.21738 58.0839 5.17106 50.6876C7.24559 42.7882 13.8619 36.7403 21.2537 33.7214C22.3816 33.2585 23.7814 31.8598 23.5599 30.5013C22.291 22.5112 23.9425 14.32 30.2971 8.896C33.1168 6.48088 36.6818 4.73998 40.4079 4.37771C44.849 3.945 49.6526 5.43432 52.8853 8.55385C53.5399 9.18782 54.6476 8.48342 55.1914 8.07083C61.133 3.61293 69.3002 2.92864 75.4634 7.37648C78.5349 9.60041 80.408 12.7199 81.5259 16.2923C82.8048 20.3779 82.5027 24.6748 81.6971 28.8308C80.9418 32.695 79.6528 36.4384 78.1422 40.0712C77.8803 40.6951 77.8904 41.3492 78.3436 41.8624C83.1875 47.4675 86.6719 54.5116 89.3406 61.3846C92.0093 68.2576 93.8522 75.976 95.0405 83.5232C95.111 83.9458 95.3225 84.3484 95.7656 84.4691C97.8301 85.0326 99.2198 86.0893 100.922 87.3069C102.412 88.3836 103.55 89.7522 104.376 91.3925C105.393 93.3849 108.998 89.9434 108.112 88.1924V88.2025Z" fill="#222222"/>
<path d="M48.4746 12.2872C43.9026 17.8017 41.3245 24.6546 41.1433 31.8094C41.1131 33.017 42.6236 32.8459 43.3084 32.4434C44.3759 31.8195 45.0809 30.6824 45.1111 29.4547C45.2521 23.8194 47.4172 18.2948 50.7908 14.2193C51.3447 13.5451 52.1302 12.0558 51.2541 11.3212C50.378 10.5866 49.0184 11.6231 48.4746 12.2772V12.2872Z" fill="#222222"/>
<path d="M25.7047 44.7102L25.2918 45.9983C25.1004 46.5819 25.2314 47.3568 25.5335 47.87C25.8356 48.3832 26.4096 48.8562 26.9937 48.987C28.3331 49.2889 29.5718 48.5845 29.9947 47.2863L30.4076 45.9983C30.599 45.4146 30.468 44.6398 30.1659 44.1266C29.8638 43.6134 29.2898 43.1404 28.7057 43.0096C27.3663 42.7077 26.1276 43.4121 25.7047 44.7102Z" fill="#FF6F1E"/>
<path d="M43.3685 44.7504L42.9556 46.0385C42.7643 46.6222 42.8952 47.397 43.1973 47.9102C43.4994 48.4234 44.0734 48.8964 44.6575 49.0272C45.9969 49.3291 47.2356 48.6247 47.6585 47.3266L48.0714 46.0385C48.2628 45.4549 48.1319 44.68 47.8297 44.1668C47.5276 43.6536 46.9536 43.1806 46.3695 43.0498C45.0301 42.7479 43.7915 43.4523 43.3685 44.7504Z" fill="#FF6F1E"/>
<path d="M79.3305 97.6416C70.4684 96.1825 60.9316 97.5812 53.4895 102.864C46.5005 107.825 41.6163 115.815 41.6868 124.52C41.6868 125.717 43.1369 125.566 43.852 125.154C44.8892 124.55 45.6647 123.383 45.6546 122.165C45.6042 115.594 49.3605 109.375 54.8188 105.823C61.2538 101.627 69.3606 100.64 76.833 101.868C78.0012 102.059 79.0787 101.123 79.6326 100.177C79.9951 99.5636 80.5188 97.8328 79.3405 97.6416H79.3305Z" fill="#222222"/>
</svg>
