<svg width="18" height="18" viewBox="0 0 18 18" fill="none" xmlns="http://www.w3.org/2000/svg">
<path d="M8.97895 7.21529C7.53168 7.40015 6.49347 8.46212 6.24564 9.8559C6.15751 10.3537 5.91823 10.6259 5.64427 11.0483C5.15447 11.8028 4.46994 12.4801 4.3543 13.4067C4.25375 14.2164 4.74733 15.2593 5.42518 15.7145C6.54466 16.4675 7.87711 16.2399 8.92066 15.4301C9.25613 15.1704 10.0056 14.5151 10.9254 14.4954C11.6451 14.4806 12.3441 14.7551 13.0638 14.6026C14.03 14.3976 15.2298 13.7696 15.3912 12.7303C15.5073 11.9827 15.3258 10.9825 14.8137 10.3939C14.7546 10.3269 14.6894 10.2647 14.6228 10.2049C13.6092 9.29613 12.2589 8.92178 11.3038 7.92386C10.7266 7.32062 9.83791 7.10627 8.97797 7.21555L8.97895 7.21529Z" fill="#FF541E"/>
<path d="M9.04774 6.97961C8.00993 7.11791 7.09346 7.70516 6.559 8.60005C6.41777 8.83669 6.30285 9.08491 6.2145 9.34569C6.12615 9.60647 6.104 9.87022 6.0158 10.1237C5.93953 10.3429 5.80317 10.5348 5.67324 10.727C5.52196 10.9497 5.37415 11.1736 5.21516 11.3912C4.89111 11.8353 4.55473 12.2805 4.35571 12.7936C4.15669 13.3066 4.11813 13.8201 4.25205 14.3475C4.37691 14.8411 4.63842 15.3249 5.00281 15.6849C5.36818 16.0447 5.85633 16.2721 6.36258 16.3663C6.86883 16.4605 7.41456 16.3951 7.90334 16.2154C8.39212 16.0358 8.77431 15.7615 9.17019 15.4556C9.62133 15.108 10.1368 14.7918 10.7178 14.7396C11.2987 14.6875 11.8973 14.8781 12.4901 14.886C12.996 14.8923 13.5097 14.7349 13.965 14.5208C14.4202 14.3067 14.8167 14.0306 15.126 13.6496C15.4581 13.2396 15.5918 12.7503 15.5982 12.235C15.604 11.6857 15.5012 11.1169 15.2445 10.6276C14.9879 10.1383 14.5147 9.76603 14.0357 9.45436C13.5566 9.14268 13.0791 8.89996 12.6068 8.6134C12.3702 8.47074 12.138 8.3207 11.9217 8.15089C11.6933 7.97187 11.5038 7.75656 11.283 7.57033C10.8803 7.22887 10.3798 7.03788 9.85271 6.97617C9.58472 6.94444 9.31497 6.94942 9.04629 6.98207C8.92773 6.99623 8.8467 7.11113 8.81618 7.21767C8.797 7.2839 8.7904 7.46789 8.90995 7.45346C9.42067 7.39116 9.94355 7.43328 10.419 7.62894C10.6455 7.72251 10.8596 7.8484 11.0414 8.01093C11.2383 8.18697 11.4142 8.37901 11.6226 8.54267C12.4561 9.20047 13.4747 9.585 14.2993 10.2534C14.5083 10.4231 14.7024 10.6041 14.8467 10.8315C14.9821 11.0458 15.0748 11.2892 15.1412 11.5333C15.261 11.9723 15.3165 12.5062 15.1788 12.949C14.9409 13.7147 13.9713 14.1588 13.2244 14.3434C12.6734 14.4797 12.1316 14.367 11.5825 14.2978C11.2964 14.2616 11.0058 14.24 10.718 14.284C10.4302 14.328 10.1522 14.4242 9.88998 14.5556C9.46703 14.7683 9.12544 15.0721 8.74267 15.3403C8.35991 15.6085 7.88081 15.8322 7.39516 15.9053C6.9095 15.9785 6.42102 15.923 5.97575 15.7297C5.53048 15.5363 5.17235 15.2233 4.91296 14.8103C4.6717 14.4256 4.50311 13.9499 4.51644 13.4918C4.52976 13.0337 4.76136 12.5793 5.02485 12.1887C5.30943 11.7667 5.6169 11.3592 5.90246 10.9368C6.04234 10.7306 6.18217 10.5202 6.27632 10.2889C6.37621 10.0437 6.40883 9.7875 6.47926 9.53463C6.71858 8.66808 7.34785 7.95382 8.20389 7.62919C8.43191 7.54324 8.66816 7.48408 8.90943 7.45153C9.02846 7.43517 9.1083 7.3237 9.13954 7.21593C9.15799 7.15093 9.16579 6.96351 9.04577 6.98013L9.04774 6.97961Z" fill="#FF3D00"/>
<path d="M3.17524 7.07256C3.09449 7.05071 2.93118 7.01992 2.84784 7.00809C2.57654 6.96792 2.36245 7.02322 2.1075 7.10706C1.85353 7.19064 1.68926 7.32163 1.51307 7.52622C1.3746 7.68654 1.27201 7.87451 1.19916 8.07108C0.670273 9.4946 1.66462 10.5483 1.91746 10.7518C2.1703 10.9553 2.72544 11.4289 3.60431 11.154C4.48319 10.8792 4.87382 10.2703 4.85487 9.45946C4.84421 8.99847 4.66532 8.54735 4.45394 8.14427C4.18089 7.62519 3.74218 7.22402 3.17648 7.07326L3.17524 7.07256Z" fill="#FF541E"/>
<path d="M3.28385 6.8444C3.0486 6.78526 2.80335 6.73605 2.55965 6.77133C2.31594 6.8066 2.04094 6.8865 1.82244 7.02373C1.33841 7.32737 1.0477 7.8919 0.93388 8.42767C0.750087 9.2928 1.02464 10.1915 1.64051 10.8247C2.09662 11.2947 2.71959 11.5648 3.3869 11.4294C3.82325 11.3415 4.25713 11.1145 4.54921 10.7794C4.84128 10.4444 4.99782 10.0287 5.02528 9.59577C5.06515 8.96903 4.84821 8.35623 4.5303 7.82329C4.253 7.35919 3.81667 6.99051 3.28458 6.84317C3.17286 6.81202 3.08158 6.9162 3.03754 7.00773C3.00723 7.07176 2.95634 7.26763 3.06681 7.29808C3.48272 7.41338 3.82864 7.6572 4.08783 7.99465C4.37437 8.36723 4.58931 8.85839 4.65777 9.32254C4.68634 9.51575 4.68854 9.71292 4.65515 9.9072C4.64318 9.97667 4.62478 10.0458 4.60265 10.1128C4.5898 10.1515 4.54224 10.2574 4.52581 10.2866C4.35987 10.5806 4.0559 10.7729 3.73542 10.8877C3.3852 11.0137 3.01107 11.0425 2.65991 10.9129C2.4315 10.8281 2.23158 10.6922 2.05073 10.5409C1.58498 10.149 1.2688 9.53587 1.22677 8.93418C1.19146 8.4363 1.34356 7.90167 1.71613 7.54817C2.06917 7.21233 2.62159 7.18752 3.06733 7.30001C3.1805 7.3287 3.26961 7.22821 3.31437 7.13545C3.34422 7.07362 3.39604 6.87336 3.2851 6.84511L3.28385 6.8444Z" fill="#FF3D00"/>
<path d="M5.87713 2.79479C5.79406 2.76424 5.62412 2.71659 5.53721 2.69536C5.25446 2.62824 5.02489 2.66904 4.75124 2.73822C4.47759 2.80741 4.29478 2.93612 4.09492 3.14291C3.93821 3.30603 3.81548 3.50148 3.72449 3.70912C3.06455 5.21435 4.03473 6.44949 4.28586 6.69385C4.53699 6.93821 5.08683 7.5022 6.03251 7.27986C6.97819 7.05753 7.43373 6.42709 7.47213 5.54294C7.49453 5.03995 7.33937 4.53174 7.14509 4.07438C6.89536 3.48486 6.46287 3.00851 5.87812 2.79452L5.87713 2.79479Z" fill="#FF541E"/>
<path d="M5.98601 2.56798C5.74501 2.48346 5.48764 2.41265 5.22938 2.42904C4.94326 2.44773 4.6376 2.52342 4.39211 2.6741C3.86856 2.99558 3.54593 3.59454 3.40766 4.16896C3.19263 5.06316 3.42449 6.00329 3.99032 6.7214C4.40794 7.25248 5.04544 7.63973 5.75264 7.55481C6.23181 7.49683 6.70847 7.29559 7.04883 6.95176C7.38918 6.60793 7.56758 6.16357 7.62752 5.7023C7.71365 5.04349 7.53308 4.35779 7.24434 3.76836C6.98196 3.234 6.55843 2.7832 5.98699 2.56772C5.79007 2.49417 5.57899 2.95039 5.77021 3.02236C6.21367 3.1893 6.56341 3.5025 6.80902 3.8995C7.07856 4.33462 7.2577 4.88507 7.29389 5.3941C7.30873 5.59514 7.29601 5.80355 7.2476 6.00082C7.20458 6.1749 7.14396 6.32264 7.05035 6.45747C6.84467 6.75279 6.50082 6.93397 6.14802 7.03058C5.7529 7.13852 5.34625 7.11288 4.98448 6.92405C4.76384 6.80922 4.57569 6.64635 4.40515 6.47047C3.95401 6.00326 3.67922 5.32416 3.67444 4.68039C3.67012 4.15247 3.85594 3.59016 4.25498 3.22129C4.46292 3.0289 4.73636 2.94321 5.01441 2.91012C5.27692 2.87809 5.52502 2.93793 5.77073 3.02429C5.96983 3.09416 6.17941 2.63627 5.98751 2.56965L5.98601 2.56798Z" fill="#FF3D00"/>
<path d="M12.9765 4.44626C13.0355 4.38696 13.1615 4.27864 13.2278 4.22672C13.4426 4.05629 13.6557 3.99713 13.9184 3.94227C14.1811 3.8874 14.3879 3.91897 14.6428 4.00805C14.8429 4.07765 15.0257 4.18915 15.1871 4.32296C16.3569 5.29132 16.0226 6.70101 15.9054 7.00369C15.7884 7.30733 15.5441 7.99402 14.6456 8.19544C13.7471 8.39686 13.1043 8.06485 12.7153 7.35319C12.494 6.94863 12.4234 6.4685 12.4049 6.01374C12.3819 5.42768 12.5612 4.86089 12.9757 4.44749L12.9765 4.44626Z" fill="#FF541E"/>
<path d="M13.0407 4.61515C13.1846 4.47512 13.3409 4.34211 13.5313 4.26935C13.739 4.18991 13.9735 4.13636 14.1969 4.1552C14.6754 4.1968 15.097 4.51042 15.3868 4.86763C15.653 5.19595 15.8103 5.59385 15.8527 6.01216C15.8693 6.17648 15.8689 6.34019 15.8517 6.50425C15.8363 6.6554 15.8229 6.73146 15.7908 6.85188C15.7804 6.89193 15.7666 6.93084 15.755 6.97019C15.7372 7.02983 15.773 6.92707 15.7557 6.96896C15.7464 6.9932 15.7378 7.01622 15.7285 7.04046C15.7088 7.08921 15.6882 7.13822 15.6663 7.18653C15.6536 7.21376 15.6406 7.24002 15.6276 7.26628C15.6221 7.27709 15.5745 7.36334 15.5984 7.32276C15.4352 7.59945 15.1869 7.80265 14.8629 7.91225C14.5129 8.0309 14.1027 8.06314 13.75 7.94746C13.4241 7.84118 13.1683 7.6229 12.9783 7.34665C12.6729 6.90355 12.5732 6.33077 12.5787 5.80021C12.5834 5.36099 12.7267 4.93535 13.0417 4.61488C13.118 4.53749 13.1877 4.38835 13.141 4.28077C13.0942 4.17319 12.9811 4.20765 12.913 4.27661C12.5466 4.64916 12.326 5.12866 12.2538 5.63877C12.1769 6.18226 12.248 6.80203 12.4555 7.30865C12.6148 7.69874 12.882 8.05789 13.2525 8.27543C13.623 8.49298 14.0438 8.52415 14.4505 8.45555C14.9045 8.37842 15.3188 8.18045 15.6173 7.82609C15.8265 7.57951 15.9649 7.2929 16.073 6.99164C16.3305 6.27553 16.2562 5.40396 15.8732 4.75387C15.5695 4.23884 15.0681 3.81616 14.4633 3.70072C14.1832 3.64739 13.8862 3.70419 13.619 3.79753C13.3519 3.89086 13.1189 4.07649 12.9138 4.27538C12.836 4.3511 12.768 4.50288 12.8145 4.60949C12.861 4.7161 12.9739 4.68068 13.0424 4.61365L13.0407 4.61515Z" fill="#FF3D00"/>
<path d="M8.4978 2.09266C8.55447 2.02467 8.67782 1.89843 8.74247 1.83659C8.95378 1.63709 9.17299 1.55764 9.44457 1.48073C9.71615 1.40382 9.93882 1.42388 10.2153 1.50303C10.4326 1.56595 10.6366 1.67384 10.8192 1.80818C12.1434 2.78177 11.9207 4.33653 11.8254 4.67371C11.7301 5.0109 11.5359 5.77424 10.6058 6.05454C9.67562 6.33483 8.9659 6.01663 8.49057 5.27013C8.21968 4.84573 8.09994 4.32802 8.03952 3.8348C7.96103 3.1994 8.0974 2.57062 8.49681 2.09292L8.4978 2.09266Z" fill="#FF541E"/>
<path d="M8.56222 2.26174C8.7053 2.09501 8.86294 1.92749 9.06543 1.83286C9.28361 1.72987 9.53722 1.65674 9.7803 1.6703C10.3139 1.70126 10.7925 2.03481 11.1264 2.42266C11.6226 2.99894 11.8081 3.78582 11.6965 4.52289C11.6929 4.54871 11.688 4.57383 11.6834 4.59992C11.6779 4.63452 11.6965 4.54256 11.6853 4.59113C11.6834 4.59992 11.6815 4.6087 11.6797 4.61748C11.6688 4.65973 11.6578 4.70101 11.6457 4.74255C11.631 4.79411 11.6161 4.8447 11.5992 4.89582C11.5952 4.90829 11.5596 5.0079 11.5792 4.95502C11.5658 4.99174 11.55 5.02705 11.5344 5.06332C11.5188 5.0996 11.5029 5.13078 11.4853 5.16346C11.4778 5.17891 11.4691 5.19367 11.4604 5.20843C11.436 5.2512 11.4933 5.15818 11.4471 5.2296C11.404 5.29706 11.354 5.36636 11.3094 5.41661C11.1813 5.55655 11.0257 5.66865 10.8511 5.74545C10.4831 5.90723 10.0347 5.97768 9.64208 5.87062C9.27103 5.76918 8.97483 5.53379 8.7477 5.2333C8.39731 4.76808 8.24822 4.1723 8.20163 3.60082C8.16135 3.10014 8.27573 2.60978 8.60086 2.21308C8.66189 2.13771 8.71288 1.96977 8.63758 1.88952C8.55451 1.79995 8.445 1.90695 8.39149 1.97099C8.03693 2.40353 7.8552 2.95749 7.84326 3.50737C7.83096 4.08738 7.95362 4.72234 8.21606 5.24115C8.42458 5.65327 8.74453 6.03243 9.17286 6.23345C9.60119 6.43448 10.04 6.42252 10.4723 6.31184C12.1988 5.86994 12.4385 3.57964 11.6193 2.30196C11.2737 1.76401 10.7179 1.33107 10.0721 1.21626C9.75867 1.16047 9.43793 1.23502 9.14842 1.35919C8.85891 1.48336 8.63212 1.68804 8.43112 1.92206C8.35885 2.00665 8.28279 2.14403 8.33183 2.25617C8.37677 2.35699 8.49549 2.33553 8.55973 2.26034L8.56222 2.26174Z" fill="#FF3D00"/>
</svg>
