<svg width="32" height="32" viewBox="0 0 32 32" fill="none" xmlns="http://www.w3.org/2000/svg">
<g clip-path="url(#clip0_313_5778)">
<g clip-path="url(#clip1_313_5778)">
<path d="M15.9628 12.8271C13.3898 13.1557 11.5441 15.0437 11.1035 17.5215C10.9469 18.4065 10.5215 18.8904 10.0344 19.6413C9.1637 20.9827 7.94675 22.1868 7.74117 23.834C7.56242 25.2735 8.43989 27.1276 9.64496 27.9367C11.6351 29.2754 14.0039 28.8708 15.8591 27.4312C16.4555 26.9695 17.788 25.8045 19.4232 25.7694C20.7026 25.7432 21.9453 26.2312 23.2248 25.9601C24.9424 25.5956 27.0754 24.4792 27.3623 22.6316C27.5688 21.3025 27.2461 19.5244 26.3357 18.478C26.2306 18.3589 26.1147 18.2482 25.9962 18.1419C24.1944 16.5263 21.7939 15.8608 20.0958 14.0867C19.0696 13.0143 17.4898 12.6332 15.961 12.8275L15.9628 12.8271Z" fill="black"/>
<path d="M16.0848 12.4078C14.2398 12.6537 12.6106 13.6977 11.6604 15.2886C11.4093 15.7093 11.205 16.1506 11.048 16.6142C10.8909 17.0778 10.8515 17.5467 10.6947 17.9973C10.5591 18.3871 10.3167 18.7281 10.0857 19.0698C9.81679 19.4658 9.55402 19.8639 9.27137 20.2507C8.69528 21.0401 8.09727 21.8317 7.74345 22.7438C7.38964 23.6558 7.32109 24.5688 7.55918 25.5063C7.78116 26.3838 8.24605 27.244 8.89386 27.884C9.54341 28.5235 10.4112 28.9278 11.3112 29.0953C12.2112 29.2628 13.1814 29.1464 14.0504 28.8271C14.9193 28.5077 15.5988 28.0201 16.3025 27.4763C17.1046 26.8583 18.021 26.2961 19.0538 26.2034C20.0866 26.1108 21.1506 26.4497 22.2045 26.4636C23.1039 26.4748 24.0172 26.1951 24.8266 25.8144C25.636 25.4337 26.3408 24.943 26.8907 24.2655C27.4811 23.5367 27.7187 22.6668 27.7302 21.7508C27.7404 20.7743 27.5576 19.7631 27.1014 18.8932C26.6451 18.0233 25.8039 17.3615 24.9523 16.8074C24.1006 16.2533 23.2517 15.8218 22.412 15.3124C21.9915 15.0587 21.5787 14.792 21.194 14.4901C20.7881 14.1719 20.4511 13.7891 20.0586 13.458C19.3428 12.851 18.4529 12.5114 17.5159 12.4017C17.0395 12.3453 16.5599 12.3542 16.0823 12.4122C15.8715 12.4374 15.7274 12.6417 15.6732 12.8311C15.6391 12.9488 15.6274 13.2759 15.8399 13.2502C16.7478 13.1395 17.6774 13.2144 18.5226 13.5622C18.9253 13.7286 19.306 13.9524 19.629 14.2413C19.9792 14.5543 20.2919 14.8957 20.6624 15.1866C22.1441 16.356 23.955 17.0396 25.421 18.228C25.7926 18.5297 26.1375 18.8514 26.394 19.2557C26.6349 19.6366 26.7995 20.0693 26.9177 20.5033C27.1306 21.2838 27.2293 22.2329 26.9845 23.02C26.5616 24.3813 24.8379 25.1708 23.51 25.499C22.5304 25.7413 21.5673 25.541 20.591 25.4179C20.0825 25.3535 19.5659 25.3152 19.0543 25.3934C18.5426 25.4716 18.0484 25.6427 17.5822 25.8762C16.8302 26.2544 16.223 26.7945 15.5425 27.2713C14.862 27.7481 14.0103 28.1457 13.1469 28.2758C12.2835 28.4059 11.4151 28.3073 10.6235 27.9635C9.83194 27.6197 9.19527 27.0632 8.73413 26.329C8.30521 25.6451 8.00551 24.7995 8.0292 23.9851C8.05288 23.1707 8.46461 22.3628 8.93304 21.6685C9.43896 20.9182 9.98557 20.1937 10.4932 19.4429C10.7419 19.0762 10.9905 18.7022 11.1579 18.2911C11.3355 17.8551 11.3934 17.3996 11.5187 16.9501C11.9441 15.4096 13.0628 14.1398 14.5847 13.5627C14.99 13.4099 15.41 13.3047 15.839 13.2468C16.0506 13.2177 16.1925 13.0196 16.2481 12.828C16.2808 12.7124 16.2947 12.3792 16.0813 12.4088L16.0848 12.4078Z" fill="#484848"/>
<path d="M5.64481 12.5731C5.50126 12.5342 5.21093 12.4795 5.06277 12.4585C4.58045 12.3871 4.19986 12.4854 3.74661 12.6344C3.29511 12.783 3.00308 13.0159 2.68985 13.3796C2.44368 13.6646 2.2613 13.9988 2.13179 14.3482C1.19154 16.8789 2.95927 18.7522 3.40876 19.114C3.85826 19.4758 4.84518 20.3176 6.40762 19.829C7.97005 19.3404 8.66451 18.2579 8.63083 16.8165C8.61188 15.9969 8.29385 15.1949 7.91807 14.4784C7.43264 13.5555 6.65271 12.8423 5.64702 12.5743L5.64481 12.5731Z" fill="black"/>
<path d="M5.83807 12.1679C5.41985 12.0627 4.98385 11.9752 4.55059 12.038C4.11733 12.1007 3.62844 12.2427 3.24 12.4867C2.37951 13.0265 1.86269 14.0301 1.66034 14.9826C1.3336 16.5206 1.82169 18.1182 2.91658 19.244C3.72743 20.0796 4.83494 20.5596 6.02127 20.319C6.797 20.1627 7.56834 19.7591 8.08759 19.1635C8.60684 18.5678 8.88512 17.8288 8.93394 17.0592C9.00482 15.945 8.61915 14.8556 8.05398 13.9081C7.561 13.083 6.78529 12.4276 5.83936 12.1657C5.64075 12.1103 5.47847 12.2955 5.40018 12.4582C5.34629 12.5721 5.25582 12.9203 5.45222 12.9744C6.19162 13.1794 6.80658 13.6128 7.26737 14.2128C7.77677 14.8751 8.15888 15.7483 8.28059 16.5734C8.33137 16.9169 8.33528 17.2675 8.27593 17.6128C8.25464 17.7364 8.22194 17.8592 8.1826 17.9784C8.15975 18.0471 8.0752 18.2354 8.046 18.2874C7.75098 18.8101 7.21059 19.1518 6.64085 19.356C6.01825 19.5799 5.35312 19.6311 4.72884 19.4008C4.32277 19.2501 3.96737 19.0085 3.64585 18.7393C2.81785 18.0427 2.25574 16.9527 2.18103 15.883C2.11826 14.9979 2.38866 14.0475 3.05101 13.419C3.67864 12.822 4.66071 12.7779 5.45314 12.9778C5.65434 13.0288 5.81274 12.8502 5.89233 12.6853C5.94538 12.5754 6.03752 12.2193 5.84028 12.1691L5.83807 12.1679Z" fill="#484848"/>
<path d="M10.4481 4.96871C10.3004 4.91441 9.99827 4.8297 9.84376 4.79195C9.3411 4.67262 8.93298 4.74517 8.44648 4.86816C7.95999 4.99115 7.635 5.21996 7.27969 5.58759C7.0011 5.8776 6.78291 6.22505 6.62116 6.59419C5.44793 9.27016 7.17269 11.466 7.61914 11.9004C8.06559 12.3348 9.04309 13.3374 10.7243 12.9422C12.4055 12.5469 13.2154 11.4261 13.2836 9.85432C13.3234 8.96012 13.0476 8.05662 12.7022 7.24355C12.2582 6.19552 11.4894 5.34866 10.4498 4.96824L10.4481 4.96871Z" fill="black"/>
<path d="M10.6418 4.56526C10.2133 4.41501 9.75579 4.28911 9.29666 4.31826C8.78799 4.35148 8.24459 4.48604 7.80817 4.75391C6.87741 5.32543 6.30386 6.39025 6.05804 7.41144C5.67576 9.00114 6.08796 10.6725 7.09388 11.9491C7.8363 12.8933 8.96965 13.5817 10.2269 13.4307C11.0788 13.3276 11.9261 12.9699 12.5312 12.3586C13.1363 11.7474 13.4534 10.9574 13.56 10.1374C13.7131 8.96617 13.3921 7.74714 12.8788 6.69927C12.4124 5.7493 11.6594 4.94787 10.6435 4.5648C10.2934 4.43404 9.91818 5.24509 10.2581 5.37304C11.0465 5.66983 11.6683 6.22662 12.1049 6.93241C12.5841 7.70595 12.9026 8.68453 12.9669 9.58948C12.9933 9.94687 12.9707 10.3174 12.8846 10.6681C12.8081 10.9776 12.7003 11.2402 12.5339 11.4799C12.1683 12.0049 11.557 12.327 10.9298 12.4988C10.2274 12.6907 9.50442 12.6451 8.86127 12.3094C8.46902 12.1052 8.13453 11.8157 7.83134 11.503C7.02933 10.6724 6.54081 9.46513 6.53232 8.32066C6.52462 7.38213 6.85497 6.38247 7.56438 5.72669C7.93405 5.38467 8.42018 5.23232 8.91448 5.1735C9.38117 5.11656 9.82223 5.22294 10.259 5.37648C10.613 5.50068 10.9856 4.68666 10.6444 4.56823L10.6418 4.56526Z" fill="#484848"/>
<path d="M23.0693 7.90415C23.1742 7.79873 23.3983 7.60616 23.5161 7.51386C23.8981 7.21087 24.2768 7.1057 24.7439 7.00816C25.2109 6.91062 25.5785 6.96675 26.0316 7.12512C26.3873 7.24885 26.7123 7.44707 26.9992 7.68495C29.0789 9.40649 28.4846 11.9126 28.2762 12.4507C28.0683 12.9905 27.6341 14.2113 26.0367 14.5694C24.4392 14.9274 23.2966 14.3372 22.605 13.072C22.2117 12.3528 22.0861 11.4992 22.0532 10.6908C22.0122 9.64889 22.3311 8.64128 23.068 7.90633L23.0693 7.90415Z" fill="black"/>
<path d="M23.1836 8.20487C23.4394 7.95593 23.7173 7.71948 24.0559 7.59012C24.4249 7.44888 24.842 7.3537 25.2391 7.38718C26.0897 7.46114 26.8392 8.01868 27.3544 8.65372C27.8277 9.23741 28.1073 9.94479 28.1828 10.6884C28.2123 10.9806 28.2115 11.2716 28.1809 11.5633C28.1535 11.832 28.1297 11.9672 28.0727 12.1813C28.0543 12.2525 28.0297 12.3217 28.009 12.3916C27.9774 12.4976 28.041 12.3149 28.0103 12.3894C27.9937 12.4325 27.9784 12.4734 27.9619 12.5165C27.927 12.6032 27.8903 12.6903 27.8514 12.7762C27.8288 12.8246 27.8056 12.8713 27.7825 12.918C27.7727 12.9372 27.6881 13.0906 27.7307 13.0184C27.4405 13.5103 26.9991 13.8715 26.4231 14.0664C25.8008 14.2773 25.0717 14.3346 24.4446 14.129C23.8652 13.94 23.4105 13.552 23.0727 13.0609C22.5297 12.2731 22.3525 11.2549 22.3623 10.3116C22.3706 9.53081 22.6254 8.77411 23.1853 8.2044C23.321 8.06681 23.4449 7.80167 23.3618 7.61042C23.2787 7.41917 23.0776 7.48042 22.9567 7.60302C22.3053 8.26534 21.913 9.11778 21.7847 10.0246C21.6479 10.9908 21.7743 12.0927 22.1432 12.9933C22.4265 13.6868 22.9014 14.3253 23.5601 14.712C24.2188 15.0988 24.9669 15.1542 25.6899 15.0323C26.497 14.8951 27.2335 14.5432 27.7642 13.9132C28.1361 13.4749 28.3822 12.9653 28.5743 12.4297C29.0321 11.1567 28.9 9.6072 28.2191 8.45148C27.6793 7.53587 26.7879 6.78444 25.7128 6.57922C25.2148 6.48441 24.6868 6.58539 24.2118 6.75132C23.7368 6.91725 23.3227 7.24726 22.958 7.60083C22.8196 7.73545 22.6988 8.00528 22.7814 8.19481C22.8641 8.38434 23.0648 8.32137 23.1866 8.20221L23.1836 8.20487Z" fill="#484848"/>
<path d="M15.1073 3.72043C15.208 3.59956 15.4273 3.37514 15.5422 3.2652C15.9179 2.91052 16.3076 2.76929 16.7904 2.63256C17.2732 2.49582 17.6691 2.53149 18.1606 2.67221C18.5469 2.78407 18.9095 2.97587 19.2342 3.21468C21.5882 4.94552 21.1924 7.70953 21.023 8.30897C20.8536 8.90842 20.5084 10.2655 18.8548 10.7638C17.2012 11.2621 15.9394 10.6964 15.0944 9.36927C14.6128 8.61477 14.4 7.69441 14.2925 6.81757C14.153 5.68796 14.3954 4.57013 15.1055 3.7209L15.1073 3.72043Z" fill="black"/>
<path d="M15.2216 4.02109C15.4759 3.72468 15.7562 3.42687 16.1162 3.25863C16.504 3.07555 16.9549 2.94554 17.387 2.96964C18.3357 3.02469 19.1865 3.61765 19.7801 4.30716C20.6622 5.33167 20.992 6.73057 20.7937 8.04091C20.7872 8.08681 20.7785 8.13147 20.7703 8.17784C20.7606 8.23936 20.7937 8.07588 20.7737 8.16223C20.7703 8.17784 20.767 8.19346 20.7637 8.20907C20.7445 8.28418 20.7247 8.35757 20.7033 8.43142C20.6772 8.52308 20.6507 8.61302 20.6206 8.7039C20.6134 8.72607 20.5503 8.90315 20.5851 8.80914C20.5613 8.87441 20.5331 8.93719 20.5054 9.00168C20.4777 9.06617 20.4494 9.1216 20.4181 9.17969C20.4048 9.20718 20.3893 9.23341 20.3739 9.25964C20.3305 9.33569 20.4324 9.17032 20.3502 9.29728C20.2736 9.41721 20.1847 9.54042 20.1055 9.62975C19.8777 9.87853 19.6011 10.0778 19.2907 10.2144C18.6365 10.502 17.8393 10.6272 17.1413 10.4369C16.4817 10.2565 15.9551 9.83806 15.5513 9.30386C14.9284 8.4768 14.6633 7.41764 14.5805 6.40168C14.5089 5.51157 14.7123 4.63982 15.2903 3.93457C15.3988 3.80058 15.4894 3.50203 15.3555 3.35936C15.2079 3.20013 15.0132 3.39035 14.918 3.5042C14.2877 4.27315 13.9646 5.25798 13.9434 6.23555C13.9215 7.26667 14.1396 8.39548 14.6062 9.31782C14.9769 10.0505 15.5457 10.7245 16.3071 11.0819C17.0686 11.4393 17.8487 11.418 18.6173 11.2213C21.6866 10.4357 22.1127 6.36402 20.6565 4.09258C20.042 3.13624 19.0538 2.36656 17.9058 2.16245C17.3486 2.06328 16.7784 2.19581 16.2637 2.41655C15.749 2.63729 15.3458 3.00118 14.9885 3.41721C14.86 3.5676 14.7248 3.81183 14.812 4.01119C14.8919 4.19042 15.1029 4.15227 15.2171 4.01859L15.2216 4.02109Z" fill="#484848"/>
</g>
</g>
<defs>
<clipPath id="clip0_313_5778">
<rect width="32" height="32" fill="white"/>
</clipPath>
<clipPath id="clip1_313_5778">
<rect width="28" height="25" fill="white" transform="translate(-1 7) rotate(-15)"/>
</clipPath>
</defs>
</svg>
