<svg width="202" height="144" viewBox="0 0 202 144" fill="none" xmlns="http://www.w3.org/2000/svg">
<g clip-path="url(#clip0_513_5109)">
<path d="M106.245 58.9785C105.974 56.236 105.618 53.5002 105.169 50.7841C104.193 44.9375 102.603 39.1436 99.9905 33.8429C97.6485 29.0946 94.8381 24.2346 90.1409 21.4527C88.993 20.7753 87.7263 20.2755 86.4926 19.7954C85.7339 19.4995 84.9621 19.2824 84.1572 19.1312C82.0131 18.73 79.935 18.8023 77.9954 19.9335C76.7815 20.6438 75.6072 21.8473 74.8947 23.1889C74.6968 23.1889 74.5055 23.1889 74.3208 23.1889C73.4104 23.2218 72.434 23.3599 71.6027 23.7413C71.0881 23.9715 70.7253 24.399 70.5604 24.8725C70.5406 24.8133 70.5274 24.7541 70.5142 24.6949C69.8874 22.768 68.6868 20.9068 66.8395 19.9335C66.2062 19.6639 65.5663 19.4008 64.9329 19.1312C63.5145 18.7497 62.0961 18.7497 60.6843 19.1312C58.5996 19.5192 56.5281 20.407 54.7271 21.5119C52.9062 22.6299 51.1052 23.9781 49.7462 25.6354C46.3486 29.7983 45.3524 33.4746 45.7351 38.532C45.9989 42.0702 47.358 44.7863 49.3965 46.8513C48.9083 48.1798 48.4201 49.574 47.9649 51.0143C48.0441 50.7709 44.9632 50.1856 44.6729 50.1659C43.492 50.0738 42.2847 50.2119 41.1896 50.6657C39.349 51.4286 38.1813 53.1516 38.0163 55.1114C37.6733 59.2086 42.0142 62.2075 45.4382 63.365C45.0358 69.547 46.2496 75.5842 50.7489 80.201C56.0267 85.7384 64.4184 87.2115 70.7847 87.7311C79.1895 88.4151 87.2051 87.9613 94.9239 84.3573C102.148 80.9836 106.337 73.9467 106.621 66.6862C106.72 64.1147 106.495 61.5367 106.245 58.985V58.9785Z" fill="black"/>
<path d="M41.3281 21.8998C41.2885 21.696 41.2555 21.4921 41.2357 21.2817C41.2357 21.2159 41.2291 21.1435 41.2225 21.0778V21.1962C41.2225 21.1304 41.2291 21.058 41.2423 20.9923C41.1895 21.1567 41.1829 21.1962 41.2093 21.1107C41.2555 20.9989 41.2225 21.058 41.1235 21.2948C40.9454 21.525 40.9058 21.5907 40.9916 21.4855C41.0774 21.3869 41.0246 21.4395 40.8267 21.6565C40.7409 21.742 40.6419 21.8012 40.5298 21.8472C40.411 21.8998 40.4044 21.9064 40.51 21.867C40.4308 21.9064 40.3583 21.9196 40.2791 21.8998C40.1867 21.8867 40.1933 21.8867 40.2923 21.8998C40.3319 21.913 40.3781 21.9262 40.411 21.9459L40.1735 21.8209C40.2725 21.8735 40.3451 21.9393 40.4176 22.0182L40.2527 21.8078C40.3055 21.8801 40.3385 21.9525 40.3781 22.0314C40.4836 22.2221 40.3253 21.7946 40.3649 22.0051C40.4044 22.2155 40.4176 21.696 40.3649 21.9788C40.3451 22.0906 40.3649 22.0248 40.4176 21.7815C40.4836 21.6039 40.5826 21.4461 40.7013 21.308C40.9256 21.0975 40.9718 21.0449 40.8465 21.1633L41.051 21.0186C40.919 21.0909 40.9652 21.0778 41.1763 20.9726C41.1301 20.9923 41.0774 21.012 41.0246 21.0252C41.0246 21.0054 41.3412 20.9857 41.0246 21.0186C40.919 21.0317 40.8135 21.0252 40.7013 21.0186L39.9558 23.7676C40.2263 23.6558 40.4968 23.5506 40.7739 23.4585C40.919 23.4124 41.0708 23.3664 41.2159 23.327C41.2819 23.3072 41.3478 23.2941 41.4138 23.2743C41.6447 23.2152 41.2951 23.2941 41.4468 23.2678C41.6843 23.2217 41.9284 23.1691 42.1725 23.1625C42.1923 23.1625 42.3044 23.1757 42.311 23.1625C42.2847 23.1954 42.0735 23.1165 42.2319 23.1625C42.3374 23.1954 42.4364 23.2152 42.5353 23.2678L42.2978 23.1428C42.3704 23.1888 42.4232 23.2349 42.4826 23.2941L42.3176 23.0836C42.377 23.1691 42.3506 23.2152 42.3572 23.1034C42.3704 22.9389 42.3572 22.7877 42.4166 22.6233C42.5287 22.3142 42.7728 21.9919 43.0433 21.8012C43.1687 21.7157 43.1819 21.7025 43.0763 21.7683L43.2676 21.6828C43.2676 21.6828 43.0037 21.7157 43.1951 21.7223C43.3864 21.7289 43.0961 21.7354 43.0631 21.742C42.8916 21.7617 42.7267 21.7683 42.5551 21.7683C42.4694 21.7683 42.4232 21.7683 42.5353 21.7683C42.4364 21.7617 42.3308 21.742 42.2319 21.7289C42.0801 21.7026 41.9284 21.6697 41.7767 21.6302C41.4204 21.5447 41.0774 21.4198 40.7343 21.2948L39.6985 24.0175C39.8371 23.9583 40.101 23.8202 40.2593 23.8334C40.1142 23.8597 40.0878 23.8728 40.1801 23.8531C40.2263 23.8465 40.2791 23.8399 40.3253 23.8334C40.4242 23.8202 40.5232 23.8136 40.6222 23.807C40.7211 23.8005 40.8201 23.807 40.919 23.807C41.1499 23.807 40.7739 23.7742 41.0246 23.8136C41.2225 23.8465 41.4072 23.886 41.5985 23.9386L42.951 21.1501C42.476 21.1698 42.001 21.183 41.5326 21.2027C41.3149 21.2093 41.0972 21.2159 40.8794 21.229C40.7673 21.229 40.6617 21.2356 40.5496 21.2422C40.4836 21.2422 40.4176 21.2422 40.3451 21.2422C40.477 21.2619 40.4836 21.2553 40.3649 21.229L40.6024 21.354C40.5166 21.308 40.477 21.2751 40.4242 21.2027L40.5892 21.4132C40.5364 21.308 40.5364 21.3277 40.5892 21.4789C40.5826 21.4263 40.576 21.3737 40.576 21.3211C40.5694 21.5184 40.5694 21.5447 40.576 21.3935L40.5892 21.2948C40.6222 20.9857 40.6551 20.6898 40.6617 20.3807C40.6749 19.8348 40.5496 19.3087 40.1735 18.8944C39.1444 17.7632 37.5083 18.7826 36.9079 19.8348C36.5253 20.499 36.4593 21.2225 36.71 21.9393C36.842 22.3142 37.0465 22.6561 37.2774 22.9718C37.8447 23.7413 38.5176 24.2806 39.3951 24.6751C39.659 24.7935 40.1208 24.6028 40.3385 24.4779C40.6881 24.274 41.0378 23.9188 41.2291 23.5703C41.5392 23.0113 41.7371 22.2287 41.0378 21.913C40.9586 21.8801 40.886 21.8407 40.8069 21.8012L41.0444 21.9262C40.4902 21.6302 40.0086 21.229 39.6128 20.7358L39.7777 20.9462C39.6392 20.7687 39.5138 20.578 39.4017 20.3807C39.3423 20.2689 39.1246 19.9598 39.1576 19.848C39.1906 19.9926 39.1972 20.0058 39.1708 19.8874C39.1642 19.8348 39.1576 19.7822 39.151 19.723V19.8874C39.052 20.2754 38.8409 20.6108 38.511 20.8805C38.3131 21.0778 38.0756 21.1896 37.8117 21.2159C37.9305 21.2159 37.8975 21.2027 37.7128 21.1962C37.7326 21.2225 37.9239 21.2553 37.9701 21.2751L37.7326 21.1501C37.8843 21.229 37.9965 21.3277 38.102 21.4592L37.9371 21.2488C37.9965 21.3343 38.036 21.4198 38.069 21.5184C37.9899 21.2882 38.069 21.6499 38.069 21.7157C38.0888 22.0182 38.102 21.4724 38.069 21.7815C38.0558 21.913 38.0426 22.0445 38.0229 22.1761C37.9569 22.7351 37.9041 23.4848 38.4451 23.8465C38.9465 24.1819 39.6722 24.0438 40.2461 24.0241C40.8201 24.0043 41.3413 23.9846 41.8888 23.9649C42.6013 23.9386 43.2412 23.2349 43.5249 22.6496C43.7492 22.1892 43.9076 21.3606 43.2412 21.1698C42.2253 20.8805 41.1103 20.9462 40.1274 21.3408C39.5204 21.5842 38.9333 22.1366 38.7222 22.7679C38.5638 23.248 38.5308 23.8531 39.0916 24.0635C39.9756 24.3989 40.9388 24.6554 41.8954 24.5633C43.294 24.4252 44.752 23.3993 44.9301 21.9262C44.9961 21.3737 44.8114 20.8279 44.2968 20.5648C43.934 20.3807 43.5381 20.3215 43.1357 20.3478C42.2055 20.407 41.2357 20.7226 40.3847 21.0844C39.6985 21.3803 39.1312 21.959 38.9333 22.689C38.8673 22.9192 38.8145 23.248 38.9465 23.4716C39.1114 23.7479 39.3291 23.8136 39.6392 23.8334C40.8003 23.9123 41.935 23.1231 42.5222 22.1695C43.0169 21.3606 43.2149 20.2097 42.4892 19.4665C42.1989 19.1706 41.7305 19.0522 41.3281 19.1114C40.6024 19.2166 39.9624 19.6507 39.494 20.2031C39.0652 20.7029 38.7617 21.2948 38.6562 21.9459C38.5704 22.4523 38.6298 22.9521 38.7222 23.4519C38.7749 23.7347 38.9003 23.978 39.1972 24.0701C39.494 24.1622 39.8899 24.0241 40.1406 23.8728C40.4968 23.6492 40.8267 23.3401 41.0312 22.9652C41.1961 22.6627 41.3808 22.2747 41.3149 21.9196L41.3281 21.8998Z" fill="#222222"/>
<path d="M40.3715 22.6627C41.394 23.6755 42.1329 24.9513 42.4826 26.385C42.8982 28.0818 42.542 29.8114 41.526 31.2319C38.4187 35.5527 33.4048 37.7493 32.7187 38.0715C32.0326 38.3938 29.4333 39.4 27.5531 39.4C26.4711 39.4 25.1121 39.4263 24.3073 38.5911C23.5024 37.7558 23.5486 36.4603 23.5486 35.4014C23.5486 33.5271 24.558 30.936 24.8812 30.252C25.2045 29.568 27.408 24.5633 31.7423 21.4723C33.7149 20.0584 36.1229 20.0649 38.2472 21.1303C39.0388 21.5249 39.7579 22.0445 40.3715 22.6561V22.6627Z" fill="#FF6F1E"/>
<path d="M82.409 15.2378C82.2836 13.1925 82.0131 11.1209 81.4919 9.13475C81.1621 7.76025 80.5288 6.55674 79.5919 5.53738C78.8465 4.38648 77.8503 3.47892 76.6166 2.81469C74.0701 1.47307 71.2729 1.00614 68.4427 1.74929C63.3628 3.07775 59.0878 7.51034 57.9135 12.6269C57.234 15.5995 57.333 18.1578 57.9465 21.1172C58.3687 23.1494 59.3451 25.1092 60.2159 26.9572C60.8823 28.187 61.7927 29.1801 62.9472 29.9232C63.9697 30.8571 65.177 31.4884 66.5559 31.8172C67.9677 32.2579 69.3729 32.3236 70.7847 32.008C72.1965 31.9422 73.5093 31.5279 74.7298 30.7518C76.4847 29.6273 78.0746 28.0686 78.985 26.1746C79.0444 26.1285 79.0972 26.0891 79.1565 26.043C80.4694 24.7212 81.3798 23.1691 81.8878 21.3737C82.1715 19.3152 82.5277 17.3028 82.409 15.2312V15.2378Z" fill="black"/>
<path d="M94.2245 26.0496C94.1651 26.0957 94.1124 26.1351 94.053 26.1812C93.136 28.0752 91.5526 29.6339 89.7978 30.7585C88.5773 31.5279 87.2645 31.9488 85.8527 32.0146C84.4409 32.3302 83.0356 32.2645 81.6238 31.8239C80.245 31.495 79.0377 30.8637 78.0152 29.9298C76.8607 29.1867 75.9502 28.1936 75.2839 26.9638C74.4065 25.1092 73.4301 23.156 73.0145 21.1238C72.4009 18.1578 72.302 15.5995 72.9815 12.6335C74.1492 7.51037 78.4242 3.08436 83.5106 1.7559C86.928 0.861485 90.761 1.72301 93.4461 4.01823C94.4554 4.87975 95.2999 5.93858 95.8804 7.12893C96.5863 8.55604 97.3846 10.7789 97.3846 13.2451C97.3846 17.533 95.9992 21.6762 94.7721 24.7409L94.2245 26.0496Z" fill="black"/>
<path d="M94.2971 66.0548C94.3565 66.1469 94.4093 66.2324 94.4489 66.331L93.4725 64.0227C93.5054 64.1279 93.5318 64.22 93.5516 64.3252L93.2086 61.7603C93.2218 61.905 93.2218 62.0366 93.2086 62.1812L93.5516 59.6164C93.5252 59.7611 93.4856 59.8926 93.4395 60.0307C93.7627 59.2612 94.0926 58.4918 94.4159 57.7223C94.3565 57.8539 94.2839 57.9722 94.2047 58.0972C94.7127 57.4461 95.2141 56.795 95.7221 56.144C95.6297 56.2558 95.5374 56.3544 95.4252 56.4465L97.3846 54.9339C97.2988 54.9996 97.2131 55.0457 97.1141 55.0983C97.886 54.776 98.6579 54.4472 99.4297 54.125C99.3308 54.1644 99.2318 54.1973 99.1263 54.217L101.699 53.8751L101.594 53.8882C100.261 53.8356 99.0141 54.1184 97.8596 54.7169C96.6589 55.1049 95.6232 55.7691 94.7457 56.7161C93.8023 57.5908 93.136 58.6233 92.7402 59.8203C92.1332 60.9711 91.8561 62.2075 91.9089 63.5426L92.252 66.1074C92.7138 67.745 93.545 69.1655 94.7457 70.369L96.7051 71.8816C98.2159 72.7563 99.8454 73.1969 101.594 73.1969C103.777 72.9207 105.255 72.8615 107.162 71.6054C107.782 71.1977 108.811 70.5071 109.418 69.7903C109.88 69.2444 110.625 68.3566 110.995 67.7516C111.041 67.6726 111.08 67.5937 111.127 67.5148C111.384 67.0216 111.978 65.6405 112.143 65.1078C112.169 65.0223 112.195 64.9368 112.222 64.8513C112.4 64.1476 112.525 62.9047 112.585 62.1812C112.591 62.0957 112.598 62.0037 112.598 61.9182C112.598 61.4775 112.42 60.5371 112.413 60.4779C112.347 60.011 112.321 59.4717 112.195 58.9916L112.162 58.893L111.186 56.5846C111.14 56.4859 111.094 56.4005 111.034 56.3084C110.427 55.1838 109.596 54.2828 108.54 53.5988C107.604 52.7439 106.509 52.1717 105.248 51.8692C103.962 51.468 102.676 51.4089 101.389 51.6982C100.103 51.7574 98.902 52.1389 97.787 52.8425L95.8277 54.3551C94.627 55.5587 93.7957 56.9792 93.3339 58.6167L92.9909 61.1816C92.9909 62.9244 93.4395 64.5488 94.3103 66.0548H94.2971Z" fill="black"/>
<path d="M74.6835 7.76024C71.7874 11.2524 70.1513 15.5798 70.0391 20.1044C70.0193 20.8936 71.0089 20.7818 71.4575 20.5187C72.1568 20.111 72.6186 19.3678 72.6384 18.5655C72.6846 16.8161 73.0408 15.0668 73.6544 13.4292C73.9776 12.5611 74.2745 11.9363 74.7297 11.1472C75.2377 10.2593 75.594 9.76609 76.2075 9.02952C76.5703 8.58889 77.0849 7.61556 76.511 7.13547C75.937 6.65539 75.0464 7.33277 74.6901 7.76024H74.6835Z" fill="#222222"/>
<path d="M60.3347 28.1936L60.0708 29.0025C59.952 29.3708 60.0312 29.8574 60.2225 30.1863C60.4138 30.5151 60.7767 30.8045 61.1395 30.89C61.984 31.0807 62.7624 30.6335 63.0329 29.818L63.2968 29.0091C63.4156 28.6408 63.3364 28.1541 63.1451 27.8253C62.9538 27.4965 62.5909 27.2071 62.2281 27.1216C61.3836 26.9309 60.6052 27.3781 60.3347 28.1936Z" fill="#FF6F1E"/>
<path d="M71.484 28.2199L71.2201 29.0289C71.1013 29.3971 71.1805 29.8838 71.3718 30.2126C71.5631 30.5415 71.926 30.8308 72.2888 30.9163C73.1333 31.107 73.9117 30.6598 74.1822 29.8443L74.4461 29.0354C74.5649 28.6671 74.4857 28.1805 74.2944 27.8516C74.1031 27.5228 73.7402 27.2335 73.3774 27.148C72.5329 26.9572 71.7545 27.4044 71.484 28.2199Z" fill="#FF6F1E"/>
<path d="M113.699 59.715C113.185 55.5257 110.361 51.6521 106.159 50.521L106.634 51.1392C105.895 46.2067 104.727 41.3006 102.906 36.6445C101.086 31.9883 98.8293 27.6214 95.6429 23.9451L95.7748 25.1158C97.8331 20.2031 99.6144 14.3368 98.2026 9.02955C97.5429 6.54361 96.3422 4.24182 94.3102 2.59111C92.2783 0.940398 89.6262 0.0525648 86.9807 -4.75233e-05C83.7019 -0.0592364 80.6342 1.3613 78.0679 3.28822L79.5786 2.97255C77.771 1.22319 75.2377 0.256438 72.7505 0.0459883C70.2634 -0.164461 67.862 0.473464 65.6519 1.5849C61.621 3.61705 58.296 7.47748 56.9766 11.7917C56.086 14.7051 55.9672 17.7632 56.4488 20.7621L57.9596 18.6576C53.1238 20.6306 48.9082 24.1096 46.4475 28.7394C44.3627 32.6591 43.7624 37.4797 44.8377 41.8005C45.4381 44.2075 46.6058 46.3251 48.3409 48.1074L48.2089 46.9367C47.7009 48.3112 47.2259 49.6989 46.7773 51.0997L49.2645 50.2447C49.1391 49.1267 46.7641 48.9952 45.9263 48.8439C43.7822 48.4625 41.4732 48.9755 39.7249 50.2776C37.8777 51.6653 36.7298 53.9013 36.71 56.2031C36.6968 58.1892 37.6666 59.9649 39.0256 61.3591C40.5561 62.9177 42.5683 64.0292 44.62 64.746L44.1582 63.8056C43.8218 69.251 44.6266 74.9002 47.9516 79.3986C51.2766 83.8969 55.9145 86.2974 61.0537 87.6653C66.1929 89.0332 71.6488 89.4409 76.9266 89.4015C83.1675 89.3489 89.3821 88.2177 95.0425 85.5411C100.545 82.9368 104.773 78.0701 106.739 72.3419L105.334 73.769C110.731 71.6119 114.682 65.5549 113.693 59.715C113.409 58.0511 110.889 60.0306 111.094 61.2473C111.298 62.464 111.232 63.4965 111.034 64.6868C110.942 65.2261 110.75 65.7128 110.539 66.2126C110.427 66.4757 110.315 66.7387 110.196 67.0018C110.144 67.1136 110.097 67.232 110.038 67.3438C110.196 67.0215 109.893 67.5805 109.847 67.6463C109.141 68.7183 108.25 69.6061 107.181 70.3164C106.574 70.7175 105.849 70.9477 105.262 71.362C104.417 71.9539 104.226 72.9601 103.856 73.8545C102.814 76.3602 101.191 78.616 99.1394 80.3982C96.7116 82.4961 93.7363 83.7851 90.695 84.7519C84.1901 86.8103 77.1905 86.909 70.4481 86.2447C64.8933 85.6989 59.0349 84.5085 54.4235 81.2005C51.6197 79.1881 49.4294 76.4588 48.1429 73.2561C46.8565 70.0533 46.52 66.4099 46.7311 62.9243C46.7575 62.5166 46.7047 62.1351 46.2693 61.9839C43.1291 60.8922 38.5968 58.0182 39.395 54.0854C39.8107 52.0336 41.9482 51.3759 43.8548 51.5469C44.3693 51.5929 44.8905 51.7179 45.3985 51.8297C45.7613 51.9086 46.1308 51.9875 46.4936 52.0928C46.5992 52.1256 46.7443 52.1914 46.8499 52.2046C47.0544 52.2309 46.7971 52.1059 46.9093 52.244L46.6718 51.7508V51.7771C46.7377 52.3624 47.2655 52.5005 47.7603 52.3492C48.3738 52.1585 48.9742 51.5206 49.1655 50.9221C49.6075 49.5213 50.0891 48.1402 50.5971 46.7592C50.7422 46.358 50.7884 45.9174 50.4652 45.5886C47.061 42.0833 46.2561 36.7168 47.404 32.0869C48.6509 27.0756 52.8665 23.2349 57.5374 21.3343C58.2763 21.0317 59.1933 20.1176 59.0481 19.2298C58.2433 14.1921 59.2856 9.04928 63.3165 5.64263C65.0912 4.14318 67.3342 3.06462 69.6696 2.85417C72.4603 2.60426 75.4422 3.54471 77.4609 5.49137C77.8898 5.90569 78.6155 5.43875 78.9717 5.17569C82.8047 2.30174 88.1088 1.94661 91.9946 4.94551C96.0981 8.11541 96.5665 13.6002 95.6231 18.3222C95.1415 20.7161 94.3432 23.0376 93.3998 25.2802C93.2283 25.6879 93.2349 26.1154 93.5317 26.4508C96.5863 29.9758 98.7831 34.4019 100.465 38.7226C102.148 43.0434 103.335 47.9035 104.048 52.6583C104.087 52.9345 104.232 53.1976 104.523 53.2765C106.238 53.7369 107.9 54.8746 109.048 56.2228C110.196 57.571 110.896 59.4979 111.107 61.2407C111.199 61.997 111.997 61.9641 112.525 61.655C113.139 61.2933 113.798 60.4647 113.706 59.7018L113.699 59.715Z" fill="#222222"/>
<path d="M27.3222 37.3548C28.0347 40.3405 29.5982 44.076 33.1739 44.2404C36.7496 44.4048 40.5232 41.7413 41.0576 38.0848C41.3676 35.9671 40.5364 33.8955 39.5534 32.0672C38.8607 30.7717 36.4989 33.034 37.1058 34.1586C37.8909 35.6186 38.8145 37.4468 38.4517 39.1567C38.3791 39.5053 38.2801 39.7486 38.0888 40.0314C38.1944 39.8736 37.8579 40.3076 37.8051 40.3603C38.0097 40.1498 37.6732 40.4655 37.627 40.5049C37.5413 40.5773 37.1718 40.8206 37.0135 40.8995C36.6638 41.0705 36.2746 41.2021 35.8986 41.2875C34.434 41.6295 33.1277 41.3599 32.059 40.2879C30.9045 39.1239 30.2843 37.3877 29.9083 35.8224C29.5125 34.1652 27.0253 36.1578 27.309 37.3548H27.3222Z" fill="#222222"/>
<path d="M32.2965 35.8815C34.3285 41.5176 36.3604 47.1537 38.3858 52.7898C38.676 53.5922 38.9663 54.3945 39.2566 55.1968C39.5205 55.9203 40.5628 55.4073 40.9323 55.0982C41.4733 54.6378 41.968 53.8289 41.7042 53.1055C39.6722 47.4694 37.6403 41.8333 35.6149 36.1972C35.3246 35.3949 35.0344 34.5925 34.7441 33.7902C34.4802 33.0668 33.4378 33.5797 33.0684 33.8888C32.5274 34.3492 32.0326 35.1581 32.2965 35.8815Z" fill="#222222"/>
<path d="M107 143C158.915 143 201 126.882 201 107C201 87.1178 158.915 71 107 71C55.0852 71 13 87.1178 13 107C13 126.882 55.0852 143 107 143Z" fill="#EEEEEE"/>
<path d="M199.549 107.782C199.543 109.579 199.133 111.239 198.376 112.984C197.694 114.552 196.577 116.159 195.193 117.714C194.883 118.068 194.666 118.298 194.188 118.77C193.741 119.21 193.282 119.636 192.816 120.056C191.867 120.896 190.918 121.65 189.931 122.365C187.617 124.038 185.159 125.488 182.64 126.793C176.472 129.995 169.889 132.304 163.262 134.18C155.189 136.469 146.942 138.05 138.652 139.153C119.708 141.685 100.379 141.868 81.3918 139.763C65.7984 138.031 49.8823 134.895 35.4307 128.256C30.3611 125.927 25.366 123.093 21.1838 119.216C18.2612 116.513 15.531 113.017 14.7243 108.956C14.3458 107.04 14.3768 105.394 14.7802 103.524C15.1339 101.91 16.0026 100.093 16.9457 98.6827C18.1247 96.918 19.5643 95.3961 21.2521 93.9069C23.2067 92.1881 25.2792 90.7383 27.5068 89.3869C33.1224 85.9756 39.222 83.4959 45.3961 81.4688C53.0655 78.9497 60.9336 77.1522 68.8637 75.8336C87.603 72.7109 106.783 72.1074 125.69 73.5965C142.028 74.8823 158.626 77.7098 174.021 83.8173C179.6 86.0281 185.097 88.7112 189.956 92.3981C193.437 95.0418 196.781 98.3153 198.513 102.547C199.195 104.22 199.549 105.925 199.555 107.769C199.555 108.556 200.449 108.444 200.889 108.182C201.535 107.795 202 107.021 202 106.233C201.95 95.9668 191.954 89.1508 184.303 85.0638C178.048 81.7246 171.378 79.2908 164.627 77.3424C156.411 74.9611 148.01 73.3145 139.564 72.1599C120.13 69.503 100.299 69.3127 80.8085 71.5038C72.0903 72.4813 63.4094 73.977 54.8836 76.155C47.7354 77.9787 40.6554 80.2879 33.9353 83.4762C28.7044 85.9559 23.5355 88.9474 19.2726 93.0606C16.015 96.2095 13.1855 100.133 12.2795 104.797C10.3684 114.65 18.6273 122.208 25.7942 126.688C31.5215 130.263 37.7576 132.888 44.0868 135.013C51.8866 137.631 59.9098 139.494 67.9826 140.858C87.2183 144.119 106.932 144.755 126.348 143.167C142.959 141.809 159.874 138.91 175.479 132.546C181.219 130.204 186.835 127.344 191.799 123.474C195.565 120.535 199.059 116.802 200.871 112.157C201.603 110.275 201.975 108.274 201.988 106.24C201.988 105.453 201.088 105.564 200.653 105.827C200.002 106.214 199.549 106.988 199.543 107.775L199.549 107.782Z" fill="#222222"/>
<path d="M162.846 99.753C164.502 101.075 166.052 102.601 166.976 104.534C167.319 105.258 167.563 106.014 167.662 106.81C167.701 107.132 167.715 107.461 167.715 107.783C167.715 108.132 167.734 107.527 167.715 107.875C167.701 108.013 167.688 108.151 167.675 108.289C167.655 108.46 167.622 108.631 167.589 108.802C167.569 108.908 167.543 109.006 167.523 109.111C167.444 109.46 167.616 108.822 167.51 109.164C167.378 109.578 167.226 109.98 167.048 110.374C167.233 109.966 166.923 110.604 166.864 110.703C166.771 110.867 166.672 111.032 166.567 111.196C166.501 111.295 166.435 111.394 166.369 111.492C166.138 111.834 166.6 111.196 166.342 111.525C166.191 111.722 166.045 111.913 165.887 112.104C165.729 112.295 165.557 112.485 165.386 112.676C165.3 112.775 165.208 112.867 165.115 112.959C165.155 112.919 165.373 112.709 165.142 112.926C164.746 113.307 164.337 113.682 163.915 114.031C162.932 114.846 162.298 115.28 161.131 116.004C158.795 117.444 156.308 118.601 153.755 119.601C146.96 122.258 139.782 123.896 132.584 125.04C123.665 126.46 114.614 127.098 105.589 127.138C95.1848 127.184 84.7546 126.454 74.5091 124.645C73.7505 124.514 73.038 125.139 72.6751 125.75C72.4376 126.158 72.1012 127.276 72.8664 127.407C82.4654 129.098 92.2293 129.867 101.973 129.946C111.493 130.025 121.039 129.446 130.46 128.019C138.086 126.862 145.739 125.191 152.95 122.422C158.063 120.456 163.36 117.891 167.068 113.748C168.605 112.031 169.852 109.92 170.208 107.619C170.875 103.35 168.143 99.7728 164.97 97.2474C163.915 96.399 161.797 98.9244 162.852 99.7662L162.846 99.753Z" fill="#DDDDDD"/>
<path d="M44.7687 99.444C45.6593 98.7469 46.6753 98.0695 47.8562 97.379C49.1031 96.6555 50.3895 95.9913 51.7024 95.3994C54.8492 93.9789 58.128 92.8477 61.4464 91.8941C69.7062 89.5134 78.2627 88.1849 86.8127 87.4221C96.8735 86.5277 107.027 86.4487 117.101 87.1656C125.901 87.7903 134.708 89.0267 143.252 91.2562C150.054 93.0319 157.238 95.3665 162.846 99.7531C163.914 100.588 166.025 98.0629 164.963 97.2343C159.976 93.3278 153.735 91.0326 147.718 89.2701C139.254 86.7973 130.473 85.4096 121.699 84.6336C111.486 83.726 101.195 83.6274 90.969 84.364C81.9308 85.0085 72.8992 86.2909 64.1315 88.5993C57.719 90.2894 51.1218 92.5123 45.6131 96.2807C45.0194 96.6884 44.4388 97.1093 43.8715 97.5565C43.3701 97.9445 42.7565 98.8981 43.0996 99.5492C43.4624 100.246 44.3465 99.786 44.7753 99.4506L44.7687 99.444Z" fill="#DDDDDD"/>
<path d="M157.287 70.6124C156.971 67.9883 156.186 65.5024 154.483 63.4439C152.517 61.0632 150.076 59.0968 147.438 57.5053C144.251 55.5784 140.095 53.4081 136.526 52.5071C135.239 52.1849 133.9 52.1586 132.541 52.3098C129.572 52.6453 126.531 53.8093 123.853 54.4933C119.188 55.6836 114.524 56.874 109.86 58.0709C100.208 60.5963 90.5235 63.0099 80.8519 65.4827C75.2311 66.9164 69.485 68.0081 63.9763 69.6982C62.5051 70.1454 60.9877 70.2441 59.6947 71.1845C55.7364 74.0848 57.478 79.4052 57.7551 83.509C58.118 88.7965 58.4742 94.0841 58.8371 99.3716C59.0548 102.535 59.2659 105.705 59.4836 108.868C59.6881 111.874 60.3082 115.695 63.5079 116.352C64.636 116.582 65.8565 116.477 67.0044 116.51C70.877 116.628 74.7495 116.655 78.6221 116.674C89.7384 116.734 100.848 116.668 111.964 116.576C117.968 116.53 123.965 116.471 129.968 116.405C134.566 116.352 135.648 116.471 143.143 116.332C146.408 116.273 150.446 116.332 153.091 114.353C154.444 113.34 155.038 111.749 155.163 110.111C155.394 107.145 155.592 104.179 155.79 101.206C156.218 94.7154 156.621 88.2243 157.017 81.7333C157.228 78.2543 157.723 74.2887 157.281 70.6058L157.287 70.6124Z" fill="#FF6F1E"/>
<path d="M148.091 69.3628C138.65 70.8096 129.183 72.046 119.69 73.0786C118.911 73.1641 118.232 73.8677 117.968 74.5714C117.77 75.1107 117.843 75.9788 118.628 75.8933C128.121 74.8608 137.595 73.6244 147.029 72.1776C147.814 72.0592 148.48 71.4147 148.751 70.6847C148.942 70.1783 148.882 69.2444 148.091 69.3628Z" fill="#222222"/>
<path d="M120.897 38.4136C122.316 37.3219 123.404 35.9343 124.117 34.3033C124.532 33.3497 124.809 32.2711 125.786 31.7516C127.976 33.6785 128.062 37.5784 129.823 39.9328C130.938 41.4191 132.792 42.1162 134.408 43.0304C138.861 45.5492 143.42 53.9145 138.485 58.1235C134.309 61.6814 127.349 61.4184 122.283 61.5433C118.146 61.642 107.03 60.1951 108.692 53.6646C109.115 51.9876 110.262 50.8893 111.1 49.4491C111.8 48.2587 111.964 47.0092 112.492 45.753C114.016 42.136 117.961 40.6628 120.891 38.4202L120.897 38.4136Z" fill="white"/>
<path d="M121.346 39.3607C122.764 38.2492 124.017 36.8616 124.836 35.2503C125.185 34.5664 125.436 33.8758 125.621 33.1261C125.687 32.8565 125.746 32.5802 125.812 32.3106C125.812 32.2909 125.898 31.9357 125.865 32.0738L125.911 31.9226C125.983 31.745 125.977 31.7319 125.891 31.9029C125.865 31.8897 124.591 32.7447 124.572 32.6986C124.585 32.7447 124.776 32.8828 124.822 32.9354C125.119 33.2576 125.35 33.6719 125.568 34.0402C126.016 34.8163 126.379 35.6383 126.729 36.467C127.356 37.9467 127.916 39.4461 128.932 40.7154C130.733 42.9712 133.405 44.2536 135.536 46.1476C137.515 47.9036 138.947 50.5276 139.25 53.1648C139.389 54.3486 139.297 55.6573 138.558 56.6504C137.918 57.5053 136.79 58.1104 135.84 58.5576C133.234 59.7874 130.272 60.2214 127.422 60.3924C122.771 60.6752 117.427 60.4714 113.132 58.4392C111.199 57.5251 109.391 55.8283 109.913 53.5068C110.289 51.8298 111.747 50.5539 112.472 49.0282C113.29 47.3117 113.482 45.49 114.795 44.0366C115.184 43.6025 115.652 42.6292 115.098 42.1425C114.544 41.6559 113.64 42.3661 113.277 42.7673C111.885 44.3128 111.232 46.0424 110.586 47.9759C109.992 49.745 108.62 51.0735 107.861 52.7637C106.72 55.2825 107.129 58.0906 109.306 59.886C111.212 61.4513 113.785 62.1878 116.167 62.635C118.924 63.1546 121.768 63.3256 124.572 63.2795C127.877 63.2204 131.281 62.8258 134.395 61.6551C137.509 60.4845 140.603 58.4195 141.566 55.0786C142.463 51.9745 141.441 48.6204 139.706 45.9898C137.971 43.3592 135.008 41.8466 132.594 39.775C131.044 38.4399 130.232 36.8945 129.447 35.0333C129.012 33.9876 128.583 32.9354 128.015 31.9555C127.633 31.2847 127.085 30.2324 126.294 29.9694C124.446 29.3446 123.516 32.0081 123.219 33.2971C122.81 35.0596 121.88 36.3486 120.442 37.4798C119.94 37.8744 119.327 38.8214 119.67 39.4725C120.033 40.1696 120.917 39.7092 121.346 39.3738V39.3607Z" fill="#222222"/>
<path d="M58.2632 90.8549L58.8437 99.365C58.8899 100.029 95.3659 99.5952 97.6749 99.582C107.914 99.5228 118.258 99.365 128.477 99.0033C137.674 98.6744 143.387 98.3588 156.021 97.7011L156.634 87.9941C156.634 87.9941 156.581 87.9941 156.575 87.9941C145.221 88.6518 135.081 89.0661 123.714 89.4739C115.501 89.7698 111.457 89.9276 103.236 90.1315C99.6079 90.2236 87.9968 90.5787 83.8274 90.5919C79.6579 90.605 78.952 90.6511 74.8882 90.7037C69.3465 90.776 63.7982 90.8286 58.2566 90.8484L58.2632 90.8549Z" fill="#FF8A50"/>
<path d="M131.552 47.3183C131.274 47.2525 131.03 47.1275 130.773 47.0223C130.681 46.9829 130.885 47.0749 130.885 47.0815C130.885 47.0815 130.793 47.0289 130.78 47.0223C130.727 46.9894 130.674 46.9566 130.621 46.9237C130.489 46.8382 130.364 46.7461 130.239 46.6475C130.113 46.5488 130.001 46.4436 129.896 46.3318C129.843 46.2792 129.797 46.2134 129.744 46.1608C129.665 46.0819 129.783 46.2134 129.79 46.22C129.764 46.1739 129.731 46.1345 129.698 46.0885C129.599 45.9372 129.52 45.7794 129.447 45.6149C129.407 45.5229 129.381 45.4242 129.341 45.3256C129.421 45.5229 129.335 45.2861 129.322 45.2006C129.302 45.0954 129.289 44.9902 129.282 44.8849C129.282 44.8455 129.282 44.7929 129.282 44.76C129.249 44.6219 129.302 44.8849 129.275 44.8784C129.269 44.8784 129.302 44.6548 129.302 44.635C129.302 44.5956 129.322 44.5561 129.322 44.5167C129.341 44.3522 129.21 44.8323 129.295 44.6087C129.322 44.5364 129.348 44.464 129.374 44.3917C129.46 44.1484 129.196 44.7008 129.328 44.4838C129.374 44.4114 129.427 44.3325 129.467 44.2602C129.539 44.1221 129.328 44.4904 129.322 44.464C129.322 44.4509 129.401 44.3588 129.414 44.3457C129.467 44.2799 129.526 44.2141 129.579 44.1484C129.77 43.9182 129.394 44.3194 129.473 44.2536C129.592 44.1484 129.711 44.0366 129.836 43.9313C129.889 43.8919 129.942 43.8524 129.988 43.813C130.219 43.6288 129.685 44.0168 129.882 43.8853C129.988 43.813 130.094 43.7472 130.199 43.6749C130.338 43.5894 130.476 43.5236 130.615 43.4447C130.813 43.3329 130.351 43.5631 130.364 43.5631C130.437 43.5499 130.516 43.5039 130.582 43.4841C130.641 43.4644 130.846 43.4513 130.687 43.4513C130.516 43.4513 130.674 43.4513 130.714 43.4513C130.78 43.4513 130.852 43.4381 130.918 43.4315C131.142 43.425 131.222 43.4447 131.512 43.5565C131.703 43.6354 131.42 43.4907 131.558 43.5828C131.598 43.6091 131.644 43.6354 131.683 43.6683C131.763 43.7275 131.829 43.7932 131.901 43.859C132.027 43.9708 131.895 43.7867 131.961 43.9379C131.98 43.9905 132.013 44.0431 132.04 44.0958C132.099 44.2141 132.04 44.1549 132.04 44.0695C132.04 44.2141 132.046 44.2931 132.066 44.0892C132.06 44.1813 132 44.3194 132.106 44.0037C132.086 44.0563 132.013 44.1813 132.119 44.0037C132.158 43.9379 132.224 43.7604 132.297 43.7275C132.264 43.7406 132.231 43.813 132.205 43.8327C132.073 43.9511 132.363 43.6946 132.343 43.6946C132.33 43.6946 132.027 43.9182 132.271 43.7735C132.475 43.6486 132.165 43.8327 132.119 43.8656C132.073 43.8919 131.782 44.0366 131.928 43.9708C132.099 43.8919 131.862 43.9905 131.822 44.0103C131.763 44.03 131.71 44.0497 131.65 44.0695C131.519 44.1155 131.38 44.1549 131.241 44.1878C131.103 44.2207 131.235 44.1878 131.261 44.1878C131.222 44.1944 131.182 44.201 131.142 44.2076C131.077 44.2141 131.011 44.2273 130.951 44.2339C130.78 44.2536 130.615 44.2733 130.443 44.2799C130.351 44.2799 130.258 44.2799 130.166 44.2799C130.127 44.2799 130.087 44.2799 130.041 44.2799C129.777 44.2799 130.186 44.3128 130.041 44.2799C129.823 44.2404 129.612 44.2141 129.394 44.1484C129.289 44.1155 129.19 44.0826 129.091 44.0431C129.031 44.0234 128.794 43.8919 128.946 43.984C128.728 43.8524 128.523 43.7077 128.339 43.5302C128.121 43.3263 128.035 43.2145 127.897 42.9514C127.824 42.8199 127.765 42.6752 127.719 42.5305C127.771 42.6884 127.699 42.399 127.692 42.3464C127.692 42.2938 127.679 42.2478 127.679 42.1951C127.679 42.1557 127.699 41.886 127.679 42.0636C127.659 42.2214 127.705 41.9123 127.712 41.8597C127.719 41.8203 127.732 41.7742 127.738 41.7348C127.758 41.5769 127.62 42.057 127.725 41.8137C127.765 41.7216 127.798 41.6361 127.837 41.5441C128.095 41.0114 127.91 40.1498 127.178 40.2222C126.353 40.3077 125.786 41.0245 125.456 41.7151C124.908 42.8594 124.928 44.3588 125.68 45.4045C126.432 46.4502 127.441 46.9566 128.662 47.0618C129.882 47.167 131.044 46.8908 132.112 46.3515C133.465 45.6741 134.982 44.0892 134.626 42.445C134.494 41.8269 134.118 41.3007 133.564 40.9916C132.831 40.5839 132.053 40.551 131.248 40.7483C130.78 40.8601 130.344 41.0903 129.935 41.3402C128.154 42.445 126.373 44.4509 126.729 46.7001C126.986 48.3442 128.286 49.7056 129.922 50.087C130.654 50.258 131.426 49.574 131.756 48.9821C132 48.5415 132.33 47.5024 131.565 47.3248L131.552 47.3183Z" fill="#C4F832"/>
<path d="M129.981 55.0655C130.608 54.7564 131.228 54.4473 131.855 54.1382C132.04 54.0329 132.198 53.9014 132.337 53.7436C132.502 53.5923 132.634 53.4213 132.746 53.2306C132.858 53.0596 132.93 52.882 132.97 52.6913C133.029 52.5269 133.049 52.3625 133.029 52.1915C132.983 51.9219 132.851 51.6456 132.554 51.5733L132.264 51.547C132.033 51.5733 131.816 51.6456 131.611 51.7706C130.984 52.0797 130.364 52.3888 129.737 52.6979C129.553 52.8031 129.394 52.9347 129.256 53.0925C129.091 53.2437 128.959 53.4147 128.847 53.6055C128.735 53.7764 128.662 53.954 128.622 54.1447C128.563 54.3091 128.543 54.4736 128.563 54.6445C128.609 54.9142 128.741 55.1904 129.038 55.2627L129.328 55.2891C129.559 55.2627 129.777 55.1904 129.981 55.0655Z" fill="#FEDB22"/>
<path d="M117.249 50.0211C118.027 51.0339 118.806 52.0401 119.584 53.0529C119.756 53.27 120.224 53.1976 120.429 53.1319C120.791 53.0135 121.167 52.7175 121.398 52.4282C121.629 52.1388 121.88 51.7508 121.926 51.3496L121.939 51.0274C121.926 50.8301 121.847 50.6656 121.702 50.5341C120.923 49.5213 120.145 48.5151 119.366 47.5023C119.195 47.2853 118.727 47.3576 118.522 47.4234C118.159 47.5418 117.783 47.8377 117.552 48.1271C117.321 48.4165 117.071 48.8045 117.024 49.2057L117.011 49.5279C117.024 49.7252 117.104 49.8896 117.249 50.0211Z" fill="#005AC5"/>
</g>
<defs>
<clipPath id="clip0_513_5109">
<rect width="202" height="144" fill="white"/>
</clipPath>
</defs>
</svg>
