<svg width="190" height="145" viewBox="0 0 190 145" fill="none" xmlns="http://www.w3.org/2000/svg">
<g clip-path="url(#clip0_241_6305)">
<path d="M70.2373 57.8631C69.6615 57.4601 68.9878 57.0282 68.6711 56.3775C68.6481 56.3257 68.5905 56.199 68.579 56.1587C68.5617 56.1069 68.5214 55.7499 68.5386 55.8305C68.5674 55.6866 68.5617 55.6693 68.5271 55.7902L68.5674 55.6808C68.4292 55.9054 68.268 56.0551 68.078 56.2221C68.0089 56.2854 68.1241 56.2278 68.1759 56.2336C68.268 56.2451 68.3774 56.2797 68.458 56.32C68.6711 56.4294 68.8669 56.6194 68.9532 56.8382C69.0051 56.9706 69.0223 57.0858 69.0281 57.2297C69.0281 57.1549 69.0051 57.4485 69.0223 57.3104C68.959 57.4601 68.959 57.4831 69.0166 57.3737C68.9705 57.4543 68.9244 57.5407 68.8726 57.6155C68.959 57.4946 68.9417 57.5004 68.8381 57.6386C68.9417 57.5349 68.9302 57.5407 68.8035 57.6558L70.2315 58.4044C70.6 57.4831 71.0319 56.677 71.602 55.819C71.6883 55.6923 71.7574 55.5829 71.9302 55.3814C71.7977 55.5369 71.9417 55.3641 72.0165 55.3065C72.0799 55.2547 72.0914 55.2432 72.0396 55.2835C71.9705 55.3353 71.9993 55.3181 72.1259 55.2374C72.1144 55.2374 72.0626 55.2777 72.0396 55.2777C71.9935 55.272 72.1375 55.2777 72.1547 55.295C72.2584 55.3814 72.3044 55.4102 72.3332 55.5369C72.3332 55.5484 72.2987 55.7845 72.3332 55.6463C72.3275 55.6808 72.195 55.9802 72.2699 55.8305C72.3448 55.6808 72.1432 56.0263 72.1547 56.009C72.2411 55.8766 72.172 55.9802 72.1202 56.0493C72.0453 56.1415 71.9647 56.2336 71.8841 56.3257C71.7862 56.4409 71.9878 56.2451 71.7977 56.4121C71.7056 56.4927 71.6192 56.5733 71.5271 56.6539C71.0089 57.0858 70.0818 57.5983 69.3736 57.915L70.2258 59.009C70.3409 58.7441 70.3467 58.7211 70.5597 58.3814C70.6 58.3238 70.6346 58.2604 70.6749 58.2029C70.5885 58.3238 70.6 58.3123 70.7037 58.1741C70.7958 58.0647 70.8822 57.9553 70.9801 57.8459C71.268 57.5176 70.7843 58.0071 71.1125 57.7134C71.2162 57.6213 71.3256 57.5292 71.435 57.437C71.648 57.2528 71.3889 57.4485 71.6077 57.3104C71.7689 57.2067 71.9302 57.1088 72.0972 57.0167L71.3313 55.4275C70.7901 56.0033 70.2546 56.5848 69.7133 57.1606C69.4427 57.4485 69.172 57.7365 68.9072 58.0301C68.8496 58.0877 68.5271 58.508 68.4696 58.4965C68.5099 58.5023 68.9417 58.128 68.9302 58.2489C68.9302 58.2489 68.6538 58.0301 68.625 58.0013C68.5041 57.8804 68.4005 57.7422 68.291 57.6098C68.0953 57.3622 67.8995 57.1088 67.6865 56.867C67.2719 56.4063 66.7191 55.9514 66.0915 55.842C64.5598 55.5714 62.9475 56.7633 62.6481 58.2662C62.3487 59.7691 63.8055 60.5522 65.0435 60.8919C66.6961 61.341 68.4811 61.2259 70.0761 60.6328C70.7094 60.3967 71.2853 59.7575 71.3831 59.0723C71.4695 58.4735 71.0377 58.0704 70.4446 58.2892C68.9532 58.842 67.3352 58.8305 65.8439 58.272C65.579 58.1741 65.3371 58.0589 65.1183 57.8689C65.0032 57.771 64.9629 57.6961 64.888 57.5752C64.8247 57.4773 64.9341 57.5119 64.8707 57.5407C64.8304 57.7307 64.7498 57.8977 64.6347 58.0416C64.2719 58.3238 64.1913 58.4044 64.4043 58.2662C64.2777 58.3238 64.2777 58.3295 64.4158 58.2777C64.318 58.2892 64.3295 58.2892 64.4619 58.272C64.6807 58.2489 64.7901 58.2604 65.0204 58.3756C66.3563 59.032 66.8573 61.485 68.7344 60.4831C69.5463 60.0455 70.1624 59.2105 70.7843 58.5426C71.4062 57.8746 72.0281 57.2067 72.6499 56.5388C72.9609 56.2048 73.2833 55.5253 73.0588 55.0705C72.8342 54.6156 72.2469 54.7538 71.8841 54.9495C70.1912 55.8823 68.8956 57.3967 68.1471 59.1702C67.8937 59.7691 68.222 60.6155 68.9993 60.2643C70.3697 59.6481 71.7114 58.9399 72.7881 57.8746C73.767 56.9073 75.1259 55.1568 74.458 53.677C73.6461 51.8747 71.4465 53.3085 70.6058 54.2816C69.5463 55.5196 68.7517 57.0685 68.1529 58.5714C68.0147 58.9226 67.9801 59.4524 68.3717 59.6539C68.7632 59.8554 69.2757 59.5963 69.5866 59.3257C70.6288 58.4159 71.5616 56.9303 71.2392 55.485C70.9686 54.2874 69.7651 53.5158 68.5617 53.8497C67.1394 54.2413 66.1606 55.819 66.2757 57.2643C66.3851 58.5483 67.4043 59.389 68.3889 60.0742C68.9187 60.4428 69.6384 59.9533 69.9782 59.5272C70.2546 59.1817 70.7843 58.2489 70.243 57.8689L70.2373 57.8631Z" fill="#222222"/>
<path d="M130.991 130.352C131.02 130.795 131.014 131.244 130.991 131.688C130.933 132.592 131.239 134.809 134.843 137.578C137.411 139.553 140.452 139.386 142.697 138.822C144.943 138.258 146.849 136.858 148.058 134.964C150.045 131.86 152.331 125.999 149.665 117.413C147.586 110.711 143.878 109.081 140.693 109.122C136.91 109.174 133.663 111.673 132.436 115.099C131.371 118.076 130.467 122.889 130.997 130.352H130.991Z" fill="#222222"/>
<path d="M164.889 117.454C164.912 117.77 164.906 118.093 164.889 118.41C164.849 119.054 165.067 120.644 167.647 122.624C169.484 124.035 171.66 123.92 173.267 123.511C174.873 123.102 176.238 122.106 177.102 120.753C178.524 118.53 180.159 114.339 178.248 108.195C176.756 103.398 174.108 102.229 171.827 102.264C169.121 102.298 166.795 104.089 165.92 106.542C165.16 108.673 164.515 112.116 164.889 117.459V117.454Z" fill="#222222"/>
<path d="M69.7133 58.5541C72.1144 58.5541 74.4983 59.1875 76.6115 60.4715C79.1105 61.9917 80.7343 64.4504 81.2122 67.3352C82.6575 76.1048 79.3409 84.621 78.9148 85.8129C78.4887 87.0048 76.6173 91.2601 74.4004 93.4769C73.1221 94.7552 71.5559 96.3848 69.6154 96.3502C67.7095 96.3214 66.2009 94.7322 64.9456 93.4769C62.7287 91.2601 60.8573 87.0048 60.4312 85.8129C60.0052 84.621 56.6827 76.1048 58.1338 67.3352C58.796 63.3391 61.6347 60.5061 65.4005 59.2566C66.8055 58.7902 68.2623 58.5541 69.7133 58.5541Z" fill="#FF6F1E"/>
<path d="M63.5291 72.1202L63.3506 72.6672C63.27 72.9148 63.3276 73.243 63.4542 73.4618C63.5809 73.6807 63.8285 73.8822 64.0704 73.9398C64.6404 74.0664 65.1644 73.767 65.3429 73.2142L65.5214 72.6672C65.602 72.4196 65.5444 72.0914 65.4178 71.8726C65.2911 71.6538 65.0435 71.4523 64.8016 71.3947C64.2316 71.268 63.7076 71.5674 63.5291 72.1202Z" fill="black"/>
<path d="M69.886 72.1374L69.7075 72.6844C69.6269 72.932 69.6845 73.2602 69.8112 73.4791C69.9379 73.6979 70.1855 73.8994 70.4273 73.957C70.9974 74.0837 71.5213 73.7842 71.6998 73.2315L71.8784 72.6844C71.959 72.4368 71.9014 72.1086 71.7747 71.8898C71.648 71.671 71.4004 71.4695 71.1586 71.4119C70.5885 71.2852 70.0645 71.5846 69.886 72.1374Z" fill="black"/>
<path d="M55.439 75.6096C59.7748 82.9396 65.8439 89.1756 73.0818 93.6612C73.6403 94.0067 74.3025 93.5518 74.671 93.1142C74.9359 92.7975 75.4887 91.8013 74.9359 91.4558C67.8304 87.0509 61.8362 80.9761 57.5752 73.7785C56.9131 72.6557 54.8747 74.6537 55.439 75.6096Z" fill="#222222"/>
<path d="M111.65 53.7345C111.569 52.3526 111.385 50.9534 111.033 49.6117C110.815 48.6847 110.389 47.8728 109.755 47.1818C109.254 46.4045 108.586 45.7941 107.751 45.345C106.041 44.441 104.153 44.1243 102.247 44.6252C98.8263 45.5235 95.9472 48.5119 95.1583 51.9726C94.7035 53.9764 94.7668 55.7038 95.1814 57.7076C95.4635 59.0781 96.1199 60.4024 96.7073 61.6519C97.1564 62.4868 97.7668 63.149 98.5441 63.6557C99.2351 64.2891 100.041 64.7152 100.974 64.934C101.924 65.2335 102.874 65.2738 103.819 65.0607C104.769 65.0204 105.655 64.7325 106.473 64.2143C107.653 63.4542 108.724 62.4005 109.341 61.1222C109.381 61.0934 109.415 61.0646 109.456 61.0358C110.342 60.1433 110.953 59.0953 111.293 57.8861C111.483 56.4984 111.724 55.1395 111.644 53.7403L111.65 53.7345Z" fill="black"/>
<path d="M119.601 61.0359C119.561 61.0647 119.527 61.0934 119.486 61.1222C118.87 62.4005 117.799 63.4543 116.619 64.2143C115.801 64.7383 114.914 65.0205 113.964 65.0608C113.014 65.2738 112.064 65.2335 111.12 64.9341C110.193 64.7153 109.381 64.2892 108.69 63.6558C107.913 63.1548 107.302 62.4869 106.853 61.652C106.266 60.4025 105.609 59.0781 105.327 57.7077C104.913 55.7039 104.849 53.9764 105.304 51.9726C106.093 48.5178 108.966 45.5235 112.392 44.6253C114.69 44.0207 117.275 44.6023 119.083 46.1569C119.763 46.7385 120.327 47.4525 120.724 48.2586C121.196 49.226 121.738 50.7231 121.738 52.3872C121.738 55.2835 120.805 58.0762 119.976 60.1491L119.607 61.0359H119.601Z" fill="black"/>
<path d="M90.3388 97.5998C93.8916 101.337 99.5403 102.333 103.83 102.684C109.49 103.145 114.88 102.84 120.079 100.41C124.945 98.1353 127.761 93.3791 127.951 88.4732C128.02 86.74 127.87 84.9953 127.697 83.2736C127.513 81.4253 127.277 79.5711 126.972 77.7401C126.315 73.7958 125.244 69.8803 123.482 66.2987C121.905 63.0915 120.016 59.8094 116.855 57.9322C116.083 57.4716 115.225 57.1376 114.396 56.8151C113.884 56.6136 113.365 56.4697 112.824 56.366C111.379 56.0954 109.985 56.1414 108.678 56.9073C107.861 57.3852 107.072 58.2028 106.594 59.1069C106.461 59.1069 106.329 59.1069 106.208 59.1069C105.598 59.1299 104.941 59.222 104.377 59.4754C104.032 59.6308 103.79 59.9245 103.675 60.2355C103.663 60.1951 103.652 60.1548 103.64 60.1145C103.22 58.8132 102.414 57.5579 101.17 56.8958C100.744 56.7172 100.312 56.533 99.8858 56.3545C98.9299 56.0954 97.9798 56.0954 97.024 56.3545C95.619 56.6194 94.2255 57.2182 93.0163 57.961C91.7899 58.7153 90.5749 59.6251 89.6651 60.7422C87.3792 63.5521 86.7112 66.0339 86.9646 69.4542C87.1431 71.8438 88.0586 73.6806 89.429 75.0683C86.8724 82.0183 84.5116 91.5883 90.3446 97.5882" fill="black"/>
<path d="M119.648 88.0471C119.688 88.1105 119.722 88.1681 119.751 88.2372L119.095 86.6825C119.118 86.7516 119.135 86.8149 119.147 86.8898L118.916 85.1566C118.928 85.2545 118.922 85.3466 118.916 85.4387L119.147 83.7055C119.129 83.8034 119.106 83.8898 119.072 83.9819L119.728 82.4272C119.688 82.5194 119.642 82.6 119.584 82.6806L120.603 81.362C120.54 81.4368 120.477 81.5059 120.402 81.5635L121.72 80.5443C121.663 80.5847 121.605 80.6192 121.542 80.6537L123.097 79.9973C123.028 80.0261 122.964 80.0434 122.895 80.0607L124.628 79.8303L124.553 79.8419C123.655 79.8073 122.82 79.9973 122.043 80.4061C121.237 80.671 120.534 81.1201 119.947 81.7535C119.314 82.3466 118.864 83.0434 118.6 83.8495C118.191 84.6268 118.006 85.4618 118.035 86.36L118.266 88.0932C118.577 89.1988 119.135 90.1546 119.941 90.9723L121.26 91.9914C122.279 92.5788 123.373 92.8782 124.548 92.8839C126.016 92.6939 127.012 92.6536 128.296 91.8129C128.711 91.5423 129.408 91.0702 129.816 90.5865C130.127 90.218 130.628 89.6191 130.876 89.2103C130.905 89.1585 130.933 89.1066 130.962 89.0491C131.135 88.7151 131.532 87.7823 131.647 87.4253C131.665 87.3677 131.682 87.3101 131.699 87.2525C131.82 86.7746 131.907 85.9397 131.947 85.4502C131.947 85.3927 131.958 85.3351 131.958 85.2717C131.958 84.9723 131.837 84.3389 131.832 84.2986C131.791 83.9819 131.768 83.6192 131.688 83.2967L131.665 83.2276L131.008 81.6729C130.974 81.6038 130.945 81.5462 130.905 81.4829C130.496 80.7228 129.937 80.1125 129.223 79.6518C128.596 79.076 127.853 78.6845 127.006 78.4829C126.143 78.2123 125.273 78.172 124.409 78.3678C123.54 78.4081 122.734 78.6672 121.985 79.1394L120.667 80.1586C119.861 80.9704 119.302 81.932 118.991 83.0376L118.761 84.7708C118.761 85.9454 119.06 87.0452 119.653 88.0587L119.648 88.0471Z" fill="black"/>
<path d="M132.079 80.7401C131.181 79.1105 129.615 77.7804 127.807 77.2795L128.221 77.8207C127.196 71.3198 125.141 64.4389 120.765 59.3603L120.88 60.3852C122.619 56.2279 124.07 50.8095 121.427 46.704C120.172 44.752 118.053 43.4852 115.755 43.2261C113.129 42.9266 110.717 43.917 108.638 45.466L109.957 45.1896C106.565 41.942 101.377 43.0073 98.095 45.7884C94.6171 48.7366 93.2121 53.1645 93.9088 57.6156L95.2274 55.773C91.168 57.4428 87.5577 60.7595 86.2909 65.055C85.1738 68.8381 85.6978 73.2718 88.502 76.1797L88.3868 75.1547C85.6172 82.7151 83.2045 92.8724 89.8724 99.1602C93.0336 102.137 97.5076 103.283 101.711 103.755C106.721 104.32 111.891 104.296 116.745 102.788C119.423 101.959 122.02 100.721 124.07 98.7744C125.97 96.9722 127.415 94.7495 128.267 92.2736L127.041 93.5231C129.782 92.3945 131.889 89.9876 132.736 87.1604C132.891 86.6364 132.845 86.003 132.16 86.003C131.532 86.003 130.824 86.7515 130.657 87.3101C130.53 87.7419 130.352 88.1508 130.173 88.5596C130.127 88.6632 130.087 88.7669 130.035 88.8705C130.075 88.7899 130.168 88.6632 129.989 88.9454C129.885 89.1124 129.765 89.2678 129.638 89.4175C128.912 90.3273 128.095 90.7361 127.116 91.3062C126.062 91.9223 125.814 93.5403 125.239 94.5595C124.743 95.4348 124.139 96.2524 123.431 96.9607C121.663 98.7341 119.354 99.7533 116.987 100.473C114.413 101.256 111.73 101.573 109.053 101.613C104.481 101.682 99.5403 101.273 95.3311 99.3503C91.1219 97.4271 88.5077 93.7476 87.9665 89.2621C87.3849 84.4138 88.8014 79.5021 90.454 74.9935C90.5807 74.6423 90.6152 74.2565 90.3388 73.9686C88.0989 71.6423 87.5404 68.0492 88.335 64.9744C89.1296 61.8996 91.859 59.3315 94.8474 58.105C95.4923 57.8401 96.2869 57.0397 96.166 56.2624C95.6535 53.0033 96.2581 49.6521 98.8666 47.4352C101.475 45.2184 105.506 44.9132 108.091 47.3892C108.471 47.7519 109.099 47.3489 109.41 47.1128C112.68 44.6713 117.724 45.322 119.636 49.1627C121.45 52.8018 120.269 56.9822 118.79 60.5292C118.64 60.8862 118.646 61.2604 118.905 61.5541C120.949 63.9322 122.417 66.9149 123.546 69.8227C124.674 72.7306 125.44 75.9724 125.941 79.1566C125.981 79.3984 126.102 79.623 126.356 79.6979C127.847 80.1125 129.183 81.218 129.926 82.5654C130.548 83.6997 132.603 81.7132 132.062 80.7343L132.079 80.7401Z" fill="#222222"/>
<path d="M106.295 48.5581C104.273 50.9995 103.139 54.011 103.058 57.1722C103.041 57.8517 103.905 57.7826 104.296 57.535C104.901 57.1549 105.31 56.5446 105.327 55.8248C105.327 55.6924 105.327 55.6809 105.344 55.4909C105.356 55.3239 105.373 55.1626 105.39 54.9957C105.425 54.7078 105.465 54.4256 105.523 54.1377C105.552 53.9765 105.586 53.8152 105.627 53.654C105.644 53.5734 105.667 53.4928 105.684 53.4122C105.655 53.5216 105.655 53.5043 105.696 53.3661C105.782 53.0667 105.88 52.773 105.989 52.4851C106.099 52.1972 106.22 51.9093 106.346 51.6272C106.225 51.892 106.444 51.4372 106.467 51.3911C106.536 51.2644 106.605 51.1377 106.675 51.011C106.83 50.7404 106.997 50.4813 107.17 50.228C107.268 50.0898 107.262 50.0898 107.164 50.2395C107.21 50.1704 107.262 50.107 107.314 50.0437C107.412 49.9113 107.515 49.7846 107.625 49.6579C107.941 49.2721 108.39 48.4199 107.889 47.9996C107.389 47.5792 106.611 48.1723 106.3 48.5466L106.295 48.5581Z" fill="#222222"/>
<path d="M96.7879 62.4812L96.6094 63.0282C96.5288 63.2758 96.5864 63.604 96.713 63.8228C96.8397 64.0416 97.0873 64.2431 97.3291 64.3007C97.8992 64.4274 98.4232 64.128 98.6017 63.5752L98.7802 63.0282C98.8608 62.7806 98.8032 62.4524 98.6765 62.2336C98.5499 62.0148 98.3023 61.8132 98.0604 61.7556C97.4904 61.629 96.9664 61.9284 96.7879 62.4812Z" fill="#FF6F1E"/>
<path d="M104.296 62.4984L104.118 63.0454C104.037 63.293 104.095 63.6212 104.222 63.84C104.348 64.0588 104.596 64.2604 104.838 64.3179C105.408 64.4446 105.932 64.1452 106.11 63.5924L106.289 63.0454C106.369 62.7978 106.312 62.4696 106.185 62.2508C106.058 62.032 105.811 61.8304 105.569 61.7729C104.999 61.6462 104.475 61.9456 104.296 62.4984Z" fill="#FF6F1E"/>
<path d="M111.575 96.2294C110.872 90.5519 108.529 85.4329 103.888 81.909C99.2524 78.385 92.7399 77.1816 87.2237 79.2487C77.3485 82.9454 67.9571 96.8973 73.5137 107.222C78.4944 116.475 97.9107 121.905 103.323 110.492C103.819 109.45 104.216 108.35 104.504 107.227C106.715 105.35 108.149 103.007 108.673 100.473C110.36 99.7648 111.805 98.1007 111.575 96.2351V96.2294Z" fill="#222222"/>
<path d="M169.657 115.582C169.49 113.481 169.565 110.112 170.889 108.057C171.804 106.64 173.146 104.849 175.524 105.92C177.902 106.991 178.449 111.137 178.449 111.137C182.964 108.097 186.113 103.675 188.002 98.4693C191.203 89.6652 184.495 61.3757 184.495 61.3757C184.495 61.3757 175.657 22.8655 142.738 20.9826C109.818 19.0939 91.8417 20.9826 91.8417 20.9826C91.8417 20.9826 77.3658 21.2993 63.1894 32.614C55.7154 38.5851 50.8671 48.0687 46.8422 56.677C44.9247 60.7711 43.18 64.9572 41.5735 69.1894C40.0764 73.1337 38.4929 77.0434 36.8634 80.959C35.9881 83.0722 34.8423 85.3063 32.9479 86.6998C30.5928 88.433 27.564 89.3197 25.1284 91.0299C21.9038 93.3043 18.9039 95.573 17.1131 99.2639C13.0824 107.573 12.1381 119.049 16.8597 127.243C23.5622 138.874 62.7287 142.801 87.5692 142.962C107.256 143.089 117.275 139.657 120.586 138.229L136.404 130.928C136.191 129.005 136.237 127.012 136.438 125.095C136.617 123.442 136.933 121.784 137.532 120.229C138.5 117.73 142.012 113.993 145.07 115.335C145.07 115.335 147.897 116.279 148.853 119.561C149.808 122.843 150.062 124.623 150.062 124.623C155.797 121.98 161.532 119.337 167.261 116.694L169.645 115.588L169.657 115.582ZM50.1358 88.5366C48.656 87.7535 47.3258 86.7228 46.37 85.3466C43.9055 81.8054 46.1339 75.5924 47.2682 71.9763C49.059 66.247 51.8459 60.8574 54.201 55.2893C58.3296 45.5063 63.4428 36.6446 75.0165 35.9421C87.264 35.1993 118.433 36.2646 127.479 37.1859C134.008 37.8481 138.396 39.42 138.396 45.6273C138.396 51.8345 134.607 68.2451 132.805 77.9072C131.193 86.5501 124.818 91.0644 120.822 91.813C117.649 92.4061 114.033 91.9512 110.838 91.9051C104.262 91.8072 97.6862 91.6345 91.1104 91.4444C81.9953 91.1853 72.886 90.8111 63.771 90.5865" fill="#FF6F1E"/>
<path d="M170.791 114.909C170.664 113.199 170.676 111.39 171.154 109.726C171.453 108.684 172.248 106.922 173.515 106.83C175.95 106.657 177.05 109.882 177.315 111.805C177.401 112.438 178.098 112.479 178.553 112.168C182.825 109.254 186.056 105.218 188.175 100.519C189.511 97.5595 189.96 94.6402 189.994 91.4099C190.081 84.3044 188.883 77.147 187.593 70.1797C186.994 66.9495 186.372 63.7134 185.589 60.5234C184.921 57.7941 183.989 55.1281 182.946 52.5197C180.937 47.5044 178.386 42.6906 175.225 38.3029C171.378 32.9594 166.622 28.232 160.893 24.9326C157.732 23.113 154.334 21.7196 150.787 20.8501C146.037 19.6812 141.131 19.6006 136.271 19.3876C126.644 18.9615 116.993 18.7772 107.36 18.9845C102.719 19.0824 98.072 19.2551 93.4424 19.6352C90.6325 19.8712 87.8744 20.1937 85.1162 20.8386C75.4311 23.09 65.7978 28.1053 58.9457 35.372C55.2893 39.253 52.3987 43.8249 49.8882 48.5063C47.2164 53.487 44.8441 58.6463 42.679 63.8631C40.2894 69.6327 38.1762 75.5175 35.729 81.2641C35.2626 82.3639 34.7386 83.4637 34.0073 84.4195C33.2415 85.4272 32.2626 86.1009 31.1628 86.7113C28.7387 88.0529 26.2569 89.0893 23.994 90.7189C21.8923 92.2333 19.8367 93.8628 18.2186 95.9069C16.6006 97.9511 15.5411 100.26 14.6889 102.673C12.9903 107.469 12.236 112.663 12.6851 117.742C13.0479 121.836 14.188 126.431 16.8712 129.661C18.5929 131.734 20.9768 133.168 23.3549 134.36C30.2128 137.803 38.0035 139.444 45.512 140.745C54.5062 142.306 63.6155 143.192 72.7248 143.716C81.8341 144.24 91.859 144.511 101.371 143.578C107.446 142.985 113.688 142.006 119.411 139.789C120.724 139.283 121.991 138.655 123.264 138.062C126.028 136.784 128.791 135.511 131.555 134.233C133.11 133.513 134.665 132.799 136.219 132.079C136.887 131.768 137.624 131.054 137.538 130.237C137.244 127.433 137.377 124.502 138.056 121.761C138.523 119.884 139.438 118.191 141.05 117.051C143.791 115.11 146.785 117.46 147.713 120.2C148.26 121.824 148.691 123.575 148.939 125.273C149.008 125.728 149.457 125.97 149.883 125.774C156.413 122.768 162.943 119.769 169.467 116.746C170.083 116.458 170.687 115.899 170.774 115.185C170.843 114.632 170.434 114.126 169.835 114.402C163.311 117.425 156.782 120.425 150.252 123.431L151.196 123.932C150.937 122.147 150.453 120.344 149.918 118.628C149.325 116.722 148 115.145 146.192 114.287C142.047 112.306 137.67 117.033 136.381 120.586C135.091 124.139 134.889 127.968 135.264 131.584L136.582 129.742C132.287 131.728 127.985 133.709 123.69 135.695C120.396 137.216 117.154 138.471 113.607 139.312C104.964 141.367 95.9415 141.799 87.0913 141.707C78.4368 141.62 69.7824 141.148 61.174 140.256C52.5657 139.363 44.0264 138.131 35.706 135.891C32.3145 134.976 28.9402 133.893 25.7502 132.408C23.3721 131.302 21.0113 129.926 19.1975 128.003C16.5661 125.21 15.4547 120.909 15.0229 117.2C14.4471 112.271 15.0977 107.193 16.7561 102.523C17.568 100.22 18.5756 98.0374 20.2224 96.2064C21.8693 94.3753 23.827 92.9242 25.8308 91.6575C28.0707 90.241 30.6389 89.406 32.8212 87.8917C35.0035 86.3773 36.4891 84.0683 37.5831 81.6096C40.0591 76.0415 42.0687 70.2776 44.3662 64.6347C46.4679 59.487 48.7769 54.4083 51.3795 49.4909C53.7576 45.0053 56.4409 40.6407 59.8842 36.8864C63.5349 32.9076 68.1989 29.8327 72.9954 27.4201C78.5923 24.6102 84.8686 22.6063 91.1565 22.2148C93.3158 22.0823 95.4751 21.8808 97.6401 21.7657C104.648 21.3971 111.667 21.3165 118.686 21.3914C123.972 21.4432 129.258 21.5929 134.538 21.8175C139.358 22.0248 144.235 22.0708 148.951 23.1764C155.711 24.7599 161.808 28.232 166.847 32.9824C171.211 37.0995 174.73 42.0399 177.545 47.3259C179.561 51.1089 181.242 55.0878 182.543 59.1703C182.733 59.7633 182.912 60.3564 183.079 60.9495C183.136 61.1511 183.194 61.3583 183.246 61.5599C183.148 61.1914 183.275 61.6635 183.303 61.7844C183.442 62.343 183.568 62.9073 183.689 63.4716C184.967 69.1951 186.044 74.9762 186.827 80.7919C187.299 84.2986 187.668 87.8283 187.726 91.3696C187.749 92.8033 187.72 94.2429 187.559 95.6651C187.397 97.0874 187.155 98.0893 186.626 99.4194C184.927 103.68 182.157 107.481 178.346 110.083L179.584 110.446C179.186 107.544 177.211 103.341 173.561 104.521C171.534 105.177 170.002 107.371 169.277 109.277C168.442 111.465 168.355 113.924 168.528 116.233C168.58 116.912 169.328 116.843 169.766 116.596C170.33 116.279 170.843 115.559 170.797 114.886L170.791 114.909Z" fill="#222222"/>
<path d="M51.0628 87.4367C49.249 86.4579 47.4295 85.0586 46.7443 83.0376C46.1166 81.2007 46.4045 79.1163 46.7903 77.2622C47.7059 72.8342 49.3987 68.4984 51.1895 64.3698C52.226 61.9744 53.3315 59.6021 54.3853 57.2125C55.2547 55.2432 56.0609 53.2451 56.9994 51.2989C58.5426 48.0859 60.3852 44.9189 62.8497 42.3854C65.3141 39.8518 68.4638 38.1359 71.9302 37.4967C74.8208 36.967 77.8495 37.0131 80.7804 36.967C87.9435 36.8518 95.1181 36.9843 102.281 37.1858C108.955 37.3701 115.634 37.6177 122.296 38.0495C124.945 38.2223 127.335 38.3432 129.995 38.8557C132.931 39.42 135.978 40.5773 136.939 43.6867C137.365 45.0686 137.302 46.5082 137.198 47.8153C137.083 49.3239 136.882 50.8267 136.657 52.3181C136.07 56.2336 135.315 60.1203 134.544 63.9955C133.772 67.8707 132.926 71.9071 132.154 75.863C131.78 77.7804 131.48 79.6978 130.772 81.5289C130.116 83.2391 129.189 84.8226 128.014 86.2103C126.31 88.2256 123.914 90.0049 121.369 90.5576C119.118 91.0471 116.475 90.8801 114.091 90.7649C111.402 90.6382 108.707 90.621 106.012 90.5691C94.8359 90.3388 83.6652 89.9415 72.4945 89.5845C69.7421 89.4981 66.9897 89.4118 64.2374 89.3427C63.1606 89.3139 61.819 91.7726 63.3046 91.8071C74.8956 92.1008 86.4809 92.573 98.072 92.8666C103.709 93.0106 109.341 93.12 114.978 93.3042C117.172 93.3733 119.458 93.3849 121.582 92.7342C122.987 92.3023 124.335 91.5998 125.532 90.7592C128.82 88.4617 131.342 85.2026 132.805 81.4656C133.576 79.4906 133.933 77.4176 134.336 75.3505C134.722 73.387 135.12 71.4235 135.517 69.46C136.375 65.245 137.239 61.0359 138.01 56.8037C138.632 53.4006 139.265 49.963 139.473 46.5024C139.663 43.3412 139.156 40.0706 136.306 38.2107C133.455 36.3509 130.145 36.1206 127.001 35.8499C120.799 35.3144 114.569 35.0783 108.344 34.8653C100.715 34.6004 93.0797 34.4219 85.4444 34.4507C78.7075 34.4737 71.412 34.0361 65.5329 37.8825C58.4102 42.5408 55.2778 50.6367 51.9669 58.082C49.8018 62.9533 47.5792 67.7613 45.9669 72.8515C44.775 76.6115 43.1627 81.218 44.6944 85.1105C45.489 87.1316 47.3489 88.6229 49.203 89.6248C49.7845 89.9415 50.4064 89.5384 50.7922 89.0778C51.0398 88.7841 51.6271 87.7304 51.0571 87.4195L51.0628 87.4367Z" fill="#222222"/>
<path d="M87.2295 80.9646C86.2103 77.6537 82.4099 76.9512 79.5136 77.9992C78.6614 78.3101 77.9935 78.9723 77.7631 79.7957C76.243 81.2237 75.3563 83.1988 76.0472 85.3868C77.0606 88.6056 80.6537 88.9511 83.2909 87.667C85.7381 86.4809 88.122 83.8725 87.2237 80.9646H87.2295Z" fill="black"/>
<path d="M87.2295 80.9646C86.2103 77.6537 82.4099 76.9512 79.5136 77.9992C78.6614 78.3101 77.9935 78.9723 77.7631 79.7957C76.243 81.2237 75.3563 83.1988 76.0472 85.3868C77.0606 88.6056 80.6537 88.9511 83.2909 87.667C85.7381 86.4809 88.122 83.8725 87.2237 80.9646H87.2295Z" fill="black"/>
<path d="M88.3005 80.0491C87.598 77.8725 85.6229 76.5827 83.4061 76.3639C80.7631 76.1048 77.6077 77.0837 76.7324 79.8706L77.3773 78.9666C75.8111 80.4694 74.6422 82.4041 74.6825 84.6383C74.7113 86.3024 75.529 88.0471 77.0146 88.8878C80.2161 90.6958 84.1489 88.8532 86.4463 86.4291C88.0759 84.7016 88.9741 82.3926 88.3062 80.0548C88.122 79.4042 87.1431 79.8879 86.8437 80.1412C86.3427 80.5673 85.9799 81.2295 86.17 81.8859C86.4579 82.8878 86.2218 83.8667 85.6863 84.6556C85.7899 84.5059 85.5884 84.7822 85.5654 84.811C85.479 84.9204 85.3869 85.0298 85.2947 85.1335C85.1738 85.2659 85.0529 85.3868 84.8456 85.5711C84.431 85.9339 84.0567 86.1815 83.5558 86.4521C82.9051 86.8091 82.0299 87.0797 81.1604 87.1258C80.3428 87.1719 79.4733 87.0337 78.7593 86.6191C77.0779 85.6402 76.4733 83.2679 77.3831 81.6383C77.6134 81.2237 77.8898 80.907 78.1662 80.6249C78.552 80.2333 78.6902 79.8879 78.9205 79.4214C78.9032 79.456 78.886 79.4733 78.8687 79.5078C78.9435 79.3869 78.9608 79.3811 79.0299 79.3351C79.7439 78.909 80.6595 78.7996 81.4829 78.7881C83.6018 78.7478 85.5078 79.8188 86.1757 81.8859C86.383 82.5308 87.3273 82.0644 87.6383 81.7995C88.1277 81.385 88.525 80.6997 88.312 80.0548L88.3005 80.0491Z" fill="#212121"/>
<path d="M38.4929 108.523C35.6138 106.669 31.8193 105.926 28.4393 106.018C27.9095 106.035 27.3798 106.133 26.8788 106.306C26.2569 106.398 25.6639 106.617 25.1341 107.009C22.9172 108.65 21.5756 110.947 22.2781 113.797C22.7675 115.772 24.2128 117.321 25.9978 118.214C29.0323 119.734 32.9766 120.511 36.3221 119.722C41.5908 118.479 43.2376 111.581 38.4929 108.523Z" fill="white"/>
<path d="M39.4199 107.417C37.5658 106.243 35.4872 105.494 33.3279 105.114C32.2454 104.924 31.1456 104.815 30.0458 104.786C28.8826 104.757 27.8462 104.924 26.7176 105.201C24.6792 105.707 22.8136 107.619 21.8577 109.438C20.9019 111.258 20.6831 113.36 21.3971 115.329C22.8827 119.406 27.9786 120.926 31.8884 121.22C35.6829 121.502 39.5063 120.275 41.4122 116.763C43.1685 113.527 42.5869 109.519 39.4142 107.417C38.4123 106.749 36.61 108.989 37.5658 109.623C39.5524 110.941 40.6867 113.314 39.9209 115.611C39.8633 115.778 39.6906 116.193 39.6791 116.21C39.61 116.348 39.5294 116.481 39.4487 116.613C39.4487 116.607 39.1666 117.016 39.3163 116.815C38.9823 117.258 38.6887 117.546 38.2395 117.834C36.9958 118.634 35.4469 118.795 34.0073 118.801C32.1763 118.801 30.3509 118.433 28.6293 117.822C27.0458 117.258 25.5026 116.492 24.4374 115.145C23.4758 113.924 22.9633 112.22 23.3433 110.682C23.6428 109.496 24.6447 108.218 25.779 107.717C27.6101 106.911 29.9767 107.193 31.8884 107.533C33.8 107.872 35.8442 108.534 37.5658 109.623C38.585 110.268 40.3758 108.022 39.4142 107.417H39.4199Z" fill="#222222"/>
<path d="M98.3944 113.072C94.5768 111.811 89.9185 111.943 85.9281 112.859C85.3005 113.003 84.6959 113.239 84.1373 113.538C83.4233 113.78 82.7612 114.16 82.2199 114.696C79.9339 116.959 78.8341 119.694 80.2794 122.521C81.2756 124.479 83.3255 125.763 85.6344 126.275C89.5615 127.145 94.404 127.012 98.2101 125.377C104.199 122.803 104.682 115.15 98.4002 113.072H98.3944Z" fill="white"/>
<path d="M99.1142 111.863C96.6497 111.068 94.0182 110.832 91.4329 110.941C90.143 110.999 88.8532 111.143 87.5865 111.379C86.3197 111.615 85.122 112.007 83.9013 112.525C81.5865 113.515 79.6575 115.888 78.8744 118.26C78.0913 120.632 78.5693 122.964 80.147 124.807C81.7247 126.649 83.9243 127.358 86.1412 127.715C88.6229 128.118 91.1795 128.158 93.6612 127.755C97.8301 127.087 102.051 125.124 103.565 120.886C104.181 119.164 104.227 117.223 103.467 115.536C102.638 113.699 100.974 112.49 99.1084 111.857C98.0604 111.5 96.4482 113.861 97.6746 114.281C100.185 115.139 102.131 117.367 101.711 120.143C101.527 121.352 100.951 122.331 100.179 123.033C98.9414 124.162 97.2428 124.726 95.6075 125.1C93.5576 125.567 91.3926 125.665 89.3024 125.504C87.3907 125.354 85.3062 125.037 83.6537 124.006C82.0011 122.976 80.7458 121.3 80.7631 119.314C80.7746 117.667 81.9378 115.686 83.4118 114.932C85.5135 113.849 87.9147 113.544 90.2525 113.417C92.763 113.285 95.2793 113.509 97.6804 114.281C98.7399 114.621 100.346 112.254 99.1142 111.857V111.863Z" fill="#222222"/>
<path d="M33.5697 32.326C42.4963 32.326 49.7327 25.0896 49.7327 16.163C49.7327 7.23641 42.4963 0 33.5697 0C24.6432 0 17.4067 7.23641 17.4067 16.163C17.4067 25.0896 24.6432 32.326 33.5697 32.326Z" fill="#FF6F1E"/>
<path d="M23.2742 19.163C20.6658 17.9193 17.8271 17.9769 15.0114 18.1208C12.783 18.236 10.14 18.8751 8.75232 20.7811C8.42411 21.2302 8.2053 21.6851 8.07286 22.14C6.27634 22.0766 4.51436 22.4394 2.96543 23.3434C1.06526 24.4547 0.535511 26.7637 1.9117 28.5199C3.08059 30.0113 5.25139 30.3395 7.01913 30.3913C8.88475 30.4489 11.188 30.6389 12.8809 29.7522C13.5949 29.3779 14.2398 28.8942 14.781 28.3299C16.0306 28.3472 17.2916 28.2263 18.5353 28.1629C20.28 28.0708 22.1687 28.0823 23.7234 27.2935C27.4489 25.399 26.8558 20.8674 23.2685 19.1573L23.2742 19.163Z" fill="white"/>
<path d="M23.9882 17.9538C21.0574 16.6007 17.4183 16.5661 14.2628 17.0037C11.1592 17.4356 8.04982 19.0594 7.03064 22.2206L8.5335 20.9135C6.39149 20.8617 4.12856 21.3684 2.37234 22.6351C0.869474 23.7234 -0.241839 25.6178 0.046066 27.5295C0.662183 31.6063 5.53353 31.6984 8.72928 31.6869C11.1995 31.6754 13.4049 30.9498 15.1726 29.1648L14.3146 29.5679C15.5699 29.5794 16.8194 29.4643 18.0689 29.4009C19.1169 29.3433 20.1764 29.3318 21.2128 29.1591C23.3203 28.8136 25.2435 27.8002 26.4354 25.9864C27.3279 24.6274 27.6158 22.9749 27.1437 21.4087C26.6715 19.8425 25.4393 18.6736 23.9825 17.9538C23.0151 17.4759 21.3568 19.7849 22.5487 20.378C24.1552 21.1783 25.6351 23.1591 24.9556 24.9787C24.8404 25.2896 24.7022 25.4796 24.4892 25.6812C24.0804 26.0727 23.5621 26.3146 23.0266 26.4873C21.5698 26.9537 19.9691 26.8731 18.4605 26.971C17.6543 27.0228 16.8482 27.0804 16.0421 27.1034C15.6217 27.1149 15.2071 27.0631 14.8156 27.2359C14.3722 27.4316 14.067 27.852 13.687 28.1456C12.6045 28.9921 11.3435 29.1879 10.0018 29.2224C7.73889 29.28 4.14007 29.4758 2.7351 27.2762C2.21687 26.47 2.00382 25.2436 2.77541 24.5871C4.01915 23.5219 6.04025 23.3434 7.59493 23.3837C8.23408 23.401 8.92505 22.6179 9.0978 22.0766C9.77725 19.9749 12.4087 19.5085 14.3377 19.3761C17.1246 19.1918 19.9633 19.1918 22.543 20.3837C23.5276 20.8386 25.1802 18.5181 23.9767 17.9596L23.9882 17.9538Z" fill="#222222"/>
</g>
<defs>
<clipPath id="clip0_241_6305">
<rect width="190" height="144.206" fill="white"/>
</clipPath>
</defs>
</svg>
