<svg width="144" height="117" viewBox="0 0 144 117" fill="none" xmlns="http://www.w3.org/2000/svg">
<g clip-path="url(#clip0_513_6492)">
<path d="M105.29 100.42C105.44 96.5501 105.11 92.6701 104.73 88.8201C104.32 84.6901 103.79 80.5701 103.11 76.4801C101.65 67.6801 97.48 62.2201 93.56 54.2401C90.05 47.0901 87.61 36.5001 80.56 32.3201C78.84 31.3001 76.93 30.5501 75.08 29.8201C73.94 29.3801 72.78 29.0501 71.58 28.8201C68.36 28.2201 65.25 28.3301 62.33 30.0301C60.51 31.1001 58.75 32.9101 57.68 34.9301C57.38 34.9301 57.09 34.9301 56.81 34.9301C55.45 34.9801 53.98 35.1901 52.73 35.7601C51.95 36.1101 51.41 36.7601 51.17 37.4601C51.14 37.3701 51.12 37.2801 51.1 37.1901C50.16 34.2901 48.36 31.4901 45.59 30.0201C44.63 29.6201 43.68 29.2101 42.72 28.8101C40.59 28.2401 38.47 28.2401 36.34 28.8101C33.21 29.4001 30.1 30.7301 27.4 32.4001C24.67 34.0801 21.96 36.1101 19.93 38.6101C14.83 44.8801 13.34 50.4101 13.91 58.0301C14.31 63.3601 16.35 67.4501 19.41 70.5501C15.87 80.1701 12.5 92.0601 13.57 102.88H105.1C105.2 102.06 105.28 101.23 105.31 100.41L105.29 100.42Z" fill="black"/>
<path d="M137.34 65.0399C137.34 65.0399 136.2 62.6299 129.89 60.5499C121.21 53.5299 84.83 50.4199 84.83 50.4199L82.66 58.0799C82.14 58.0999 81.58 58.1199 80.97 58.1399C77.51 58.1999 74.5 58.2299 71.87 58.2399C69.25 58.2399 66.23 58.1999 62.77 58.1399C56.97 57.9799 55.33 57.6799 55.33 57.6799V57.9699C52.47 57.8899 49.37 57.7999 46.02 57.6799C42.86 57.5699 39.69 57.5199 36.53 57.5699C31.98 57.6399 27.42 57.8899 22.91 58.4999C19.92 58.9099 16.93 59.4699 14.05 60.3599C12.29 60.8999 10.55 61.5699 8.96997 62.4899C6.08997 64.1499 4.29997 66.9399 3.10997 69.9299C2.30997 71.9599 1.92997 74.1299 1.94997 76.3099C1.97997 78.2799 2.32997 80.2299 2.90997 82.1099C3.12997 82.8299 3.37997 83.5399 3.65997 84.2399C3.75997 84.4899 4.31997 85.4399 4.22997 85.6799C1.16997 94.0399 1.89997 105.18 11.18 109.56C14.38 111.07 18.01 111.83 21.49 112.39C29.63 113.71 37.7 113.47 45.9 113.83C60.45 114.47 74.79 114.42 89.37 114.15C98.24 113.99 107.13 113.74 115.93 112.64C122.1 111.86 127.25 111.86 132.84 109.11C137.44 106.85 140.12 103.01 140.91 98.0599C141.31 95.5399 141.19 92.9499 140.75 90.4399C140.59 89.5299 139.18 86.4699 139.47 85.6799C140.47 83.0399 143.83 72.5399 137.31 65.0399H137.34Z" fill="black"/>
<path d="M68.94 22.9599C68.76 19.8799 68.34 16.7599 67.57 13.7699C67.08 11.6999 66.13 9.88989 64.72 8.35989C63.6 6.62989 62.11 5.25989 60.25 4.25989C56.43 2.23989 52.23 1.53989 47.98 2.64989C40.35 4.64989 33.93 11.3199 32.18 19.0299C31.16 23.4999 31.31 27.3499 32.23 31.8199C32.86 34.8799 34.32 37.8299 35.64 40.6199C36.64 42.4799 38.01 43.9599 39.74 45.0899C41.28 46.4999 43.08 47.4499 45.15 47.9399C47.27 48.5999 49.38 48.6999 51.5 48.2199C53.62 48.1199 55.59 47.4899 57.42 46.3299C60.05 44.6299 62.44 42.2899 63.81 39.4299C63.89 39.3599 63.98 39.2999 64.06 39.2299C66.03 37.2399 67.4 34.8999 68.15 32.1999C68.57 29.0999 69.12 26.0699 68.93 22.9499L68.94 22.9599Z" fill="black"/>
<path d="M86.68 39.2401C86.6 39.3101 86.51 39.3701 86.43 39.4401C85.06 42.3001 82.67 44.6401 80.04 46.3401C78.21 47.5001 76.24 48.1301 74.12 48.2301C72 48.7001 69.89 48.6101 67.77 47.9501C65.7 47.4601 63.89 46.5101 62.36 45.1001C60.63 43.9801 59.26 42.4901 58.26 40.6301C56.95 37.8401 55.48 34.8901 54.85 31.8301C53.93 27.3701 53.78 23.5101 54.8 19.0401C56.55 11.3301 62.97 4.66006 70.6 2.66006C75.72 1.32006 81.49 2.61006 85.52 6.07006C87.03 7.37006 88.3 8.96006 89.18 10.7501C90.24 12.9001 91.44 16.2501 91.44 19.9601C91.44 26.4201 89.36 32.6501 87.52 37.2701L86.7 39.2401H86.68Z" fill="black"/>
<path d="M118.59 69.5801C118.73 69.4901 118.86 69.4201 119.01 69.3501C117.85 69.8401 116.69 70.3301 115.54 70.8201C115.69 70.7701 115.84 70.7301 116 70.7001L112.14 71.2201C112.36 71.2001 112.56 71.2001 112.77 71.2201C111.48 71.0501 110.19 70.8701 108.91 70.7001C109.13 70.7401 109.33 70.7901 109.53 70.8701C108.37 70.3801 107.21 69.8901 106.06 69.4001C106.26 69.4901 106.44 69.5901 106.62 69.7201L103.68 67.4501C103.85 67.5901 104 67.7301 104.14 67.8901C103.38 66.9101 102.62 65.9301 101.87 64.9501C101.96 65.0801 102.04 65.2101 102.12 65.3501C101.63 64.1901 101.14 63.0301 100.65 61.8801C100.71 62.0301 100.76 62.1701 100.79 62.3301C100.62 61.0401 100.44 59.7501 100.27 58.4701L100.29 58.6301C100.21 60.6301 100.63 62.5001 101.54 64.2301C102.13 66.0301 103.13 67.5901 104.55 68.9101C105.87 70.3301 107.43 71.3301 109.23 71.9201C110.96 72.8301 112.83 73.2501 114.83 73.1701C116.12 73.0001 117.41 72.8201 118.69 72.6501C121.15 71.9601 123.29 70.7101 125.11 68.9101L127.38 65.9701C128.7 63.7001 129.36 61.2601 129.36 58.6301C128.94 55.3501 128.85 53.1401 126.97 50.2701C126.36 49.3401 125.31 47.8001 124.24 46.8801C123.42 46.1801 122.08 45.0701 121.17 44.5101C121.05 44.4401 120.94 44.3801 120.82 44.3201C120.08 43.9401 118 43.0401 117.2 42.7901C117.07 42.7501 116.95 42.7101 116.81 42.6701C115.75 42.4101 113.88 42.2101 112.79 42.1201C112.66 42.1101 112.53 42.1001 112.39 42.1001C111.73 42.1001 110.31 42.3601 110.22 42.3801C109.52 42.4701 108.71 42.5201 107.98 42.7101L107.83 42.7601L104.36 44.2301C104.21 44.3001 104.08 44.3701 103.94 44.4601C102.25 45.3701 100.89 46.6201 99.86 48.2001C98.58 49.6001 97.71 51.2501 97.26 53.1401C96.65 55.0701 96.57 57.0001 97 58.9401C97.09 60.8701 97.66 62.6801 98.73 64.3501C99.49 65.3301 100.25 66.3101 101 67.2901C102.81 69.0901 104.95 70.3401 107.42 71.0301C108.71 71.2001 110 71.3801 111.28 71.5501C113.9 71.5501 116.35 70.8801 118.62 69.5701L118.59 69.5801Z" fill="black"/>
<path d="M57.3301 11.6801C52.9701 16.9401 50.5201 23.4601 50.3501 30.2901C50.3201 31.4901 51.8201 31.3201 52.5001 30.9201C53.5601 30.3001 54.2601 29.1701 54.2901 27.9501C54.4201 22.5801 56.5001 17.3901 59.6401 13.6001C60.1901 12.9301 60.9701 11.4501 60.1001 10.7201C59.2301 9.99009 57.8801 11.0201 57.3401 11.6701L57.3301 11.6801Z" fill="#222222"/>
<path d="M35.81 42.4601L35.42 43.6801C35.24 44.2301 35.36 44.9601 35.65 45.4601C35.94 45.9601 36.48 46.4001 37.03 46.5201C38.3 46.8101 39.47 46.1401 39.87 44.9101L40.26 43.6901C40.44 43.1401 40.32 42.4101 40.03 41.9101C39.74 41.4101 39.2 40.9701 38.65 40.8501C37.38 40.5601 36.21 41.2301 35.81 42.4601Z" fill="#FF6F1E"/>
<path d="M52.54 42.5099C52.41 42.9199 52.28 43.3199 52.15 43.7299C51.97 44.2799 52.09 45.0099 52.38 45.5099C52.67 46.0099 53.21 46.4499 53.76 46.5699C55.03 46.8599 56.2 46.1899 56.6 44.9599L56.99 43.7399C57.17 43.1899 57.05 42.4599 56.76 41.9599C56.47 41.4599 55.93 41.0199 55.38 40.8999C54.11 40.6099 52.94 41.2799 52.54 42.5099Z" fill="#FF6F1E"/>
<path d="M10.81 86.4501C14.03 86.3401 17.26 86.2301 20.48 86.1201C20.94 86.1001 21.41 86.0901 21.87 86.0701C23.01 86.0301 24.14 84.8201 24.48 83.8001C24.78 82.9101 24.68 81.7501 23.48 81.7901C20.26 81.9001 17.03 82.0101 13.81 82.1201C13.35 82.1401 12.88 82.1501 12.42 82.1701C11.28 82.2101 10.15 83.4201 9.80998 84.4401C9.50998 85.3301 9.60998 86.4901 10.81 86.4501Z" fill="#222222"/>
<path d="M118.9 87.52C122.51 87.6 126.12 87.67 129.72 87.75C130.24 87.76 130.76 87.77 131.28 87.78C133.15 87.82 135.48 83.55 132.9 83.5C129.29 83.42 125.68 83.35 122.08 83.27C121.56 83.26 121.04 83.25 120.52 83.24C118.65 83.2 116.32 87.47 118.9 87.52Z" fill="#222222"/>
<path d="M141.3 85.5499C143.27 80.3099 143.98 74.2899 142.25 68.8899C141.49 66.5399 140.15 64.4099 138.56 62.5799C137.93 61.8499 137.14 61.2799 136.32 60.7799C135.56 60.3099 134.75 59.8999 133.94 59.5299C132.93 59.0699 131.78 58.8099 130.87 58.1699L131.21 59.4099C131.8 52.5499 128.31 45.3899 122.04 42.2299C120.91 41.6599 119.72 41.1299 118.51 40.7299C117.04 40.2399 115.4 40.1399 113.86 40.0199C112.53 39.9199 111.21 40.2099 109.89 40.3799C107.9 40.6399 105.93 41.5299 104.15 42.4299C102.28 43.3799 100.56 44.7699 99.27 46.4299C97.9 48.1799 96.62 49.9099 95.82 52.0099L98.87 49.7699C97.06 49.5199 95.25 49.2899 93.44 49.0799L94.05 49.5899C92.34 45.5099 90.84 41.3199 88.62 37.4699L88.57 38.9299C91.6 31.6799 94.6 23.1799 93.06 15.2299C92.29 11.2299 90.6 7.34989 87.58 4.54989C84.56 1.74989 80.5 0.229892 76.4 0.019892C71.27 -0.240108 66.45 1.92989 62.42 4.94989L64.71 4.46989C59.07 -0.990108 50.45 -0.990108 43.79 2.37989C37.78 5.41989 32.83 11.1599 30.81 17.5999C29.42 22.0399 29.23 26.7099 29.96 31.2899L32.25 28.0899C25.25 30.9499 19.2 35.8899 15.4 42.4699C12.09 48.2199 11.13 54.9699 12.23 61.4899L14.52 58.2899C11.64 59.0999 8.64999 60.4099 6.40999 62.4299C4.16999 64.4499 2.59999 66.9699 1.46999 69.7099C0.249992 72.6499 -0.220009 75.8899 0.0999915 79.0599C0.259991 80.6299 0.619992 82.1899 1.07999 83.6999C1.29999 84.4099 1.52999 85.1399 1.82999 85.8299C1.91999 86.0299 2.02999 86.2199 2.11999 86.4199C2.17999 86.5399 2.27999 87.0299 2.28999 86.8399L2.44999 85.8099C-0.510009 94.0399 -0.340009 105.2 7.78999 110.47C12.99 113.84 19.84 114.64 25.87 115.18C32.76 115.79 39.69 115.75 46.59 116.03C60.58 116.6 74.58 116.54 88.57 116.28C95.47 116.15 102.37 115.98 109.25 115.39C112.53 115.11 115.79 114.68 119.06 114.33C122.03 114.02 125 113.66 127.89 112.87C134.04 111.19 139.42 107.41 141.81 101.33C143.07 98.1199 143.36 94.5699 143 91.1599C142.86 89.8399 142.59 88.6199 142.15 87.3799C141.97 86.8799 141.78 86.3799 141.63 85.8599C141.58 85.6999 141.54 85.5499 141.5 85.3899C141.47 85.2499 141.45 85.1099 141.43 84.9599C141.4 85.1599 141.4 85.1699 141.44 84.9899C141.7 83.9099 140.75 83.3399 139.81 83.6299C138.63 83.9899 137.82 85.1999 137.54 86.3399C137.29 87.3599 137.73 88.4999 138.05 89.4499C138.44 90.6299 138.81 91.5499 138.95 92.5399C139.39 95.6699 139.34 98.9699 138.08 101.92C135.82 107.2 129.61 108.89 124.41 109.61C109.45 111.71 94.37 112.01 79.29 112.15C63.87 112.29 48.43 111.95 33.03 111.26C29.29 111.09 25.56 110.76 21.87 110.13C18.49 109.55 14.9 108.82 11.86 107.15C7.48999 104.75 5.11999 100.34 4.66999 95.4699C4.42999 92.8399 4.69999 90.1499 5.36999 87.5999C5.73999 86.2099 6.52999 84.9099 5.92999 83.4799C5.26999 81.9199 4.65999 80.4099 4.31999 78.7299C3.56999 75.0199 3.92999 71.2299 5.78999 67.8899C7.53999 64.7499 10.47 63.2899 13.85 62.3499C14.98 62.0299 16.35 60.3899 16.14 59.1499C15.26 53.9199 15.64 48.3299 18.26 43.6299C21.21 38.3499 25.99 34.4299 31.57 32.1499C32.69 31.6899 34.08 30.2999 33.86 28.9499C32.65 21.2999 34.25 13.5199 40.4 8.39989C46.39 3.40989 55.59 2.60989 61.47 8.29989C62.12 8.92989 63.22 8.22989 63.76 7.81989C67.38 5.09989 71.94 3.68989 76.44 4.49989C80.94 5.30989 84.98 7.92989 87.11 11.9699C91.53 20.3399 88.73 30.0799 85.3 38.2899C84.94 39.1499 84.56 39.9099 84.98 40.8399C85.56 42.1099 86.3 43.3199 86.89 44.5899C88.12 47.2799 89.16 50.0499 90.3 52.7699C90.43 53.0299 90.63 53.1999 90.91 53.2799C92.72 53.4999 94.53 53.7299 96.34 53.9699C97.71 54.1599 98.93 52.9199 99.39 51.7299C100.27 49.4199 102.17 47.1599 104.41 46.0799C106.65 44.9999 109.46 44.0699 112.09 44.2899C117.26 44.7199 121.88 47.1099 124.81 51.4799C126.44 53.9099 127.05 56.4799 127.29 59.3699C127.36 60.2099 127 61.3099 127.62 61.9899C128.1 62.5099 128.87 62.7199 129.51 62.9499C130.83 63.4299 132.12 63.9799 133.31 64.7399C133.93 65.1399 134.54 65.5799 135.06 66.1199C135.2 66.2599 135.33 66.4099 135.45 66.5599C135.13 66.1599 135.38 66.4999 135.45 66.6099C136.9 68.6999 138.23 70.5899 138.8 73.1299C139.37 75.6699 139.36 78.3499 138.95 80.9399C138.64 82.8399 138.33 84.0399 137.67 85.7999C137.33 86.6999 137.52 87.8099 138.67 87.8099C139.82 87.8099 140.92 86.5099 141.28 85.5399L141.3 85.5499Z" fill="#222222"/>
</g>
<defs>
<clipPath id="clip0_513_6492">
<rect width="143.23" height="116.48" fill="white"/>
</clipPath>
</defs>
</svg>
