<svg width="140" height="47" viewBox="0 0 140 47" fill="none" xmlns="http://www.w3.org/2000/svg">
<g clip-path="url(#clip0_576_5188)">
<g clip-path="url(#clip1_576_5188)">
<path d="M36.4693 22.9279C36.4291 29.8058 34.6668 35.2333 31.1789 39.212C27.6911 43.1908 22.2837 45.1793 14.9533 45.1793H0V0.676514H14.9533C22.2819 0.716907 27.6911 2.72557 31.1789 6.70434C34.6668 10.6831 36.4291 16.0904 36.4693 22.9279ZM26.5394 22.9279C26.5394 19.0887 25.7808 16.0004 24.2635 13.6612C22.7462 11.3221 20.452 10.1525 17.3773 10.1525H10.343V35.7015H17.3773C20.4502 35.7015 22.7462 34.5613 24.2635 32.2827C25.7808 30.0041 26.5394 26.8846 26.5394 22.9261V22.9279Z" fill="black"/>
<path d="M50.6658 8.71301H40.4398V0.676514H50.6658V8.71301ZM40.4398 12.1924H50.6658V45.1793H40.4398V12.1924Z" fill="black"/>
<path d="M69.8949 31.3243C69.8949 32.604 69.8821 33.8635 70.0813 34.5025C70.2787 35.1433 70.712 35.5821 71.381 35.8226C71.8143 35.9824 72.2768 36.043 72.7703 36.0026C73.2621 35.964 74.092 35.8318 75.0371 35.4719L76.7518 44.2796C75.2144 44.9993 73.3425 45.4602 71.1361 45.6585C68.9297 45.8586 66.959 45.5979 65.226 44.8782C63.1768 44.0391 61.7382 42.6804 60.9119 40.8002C60.0838 38.9219 59.6707 36.4028 59.6707 33.243V21.5472H54.3511V12.1905H59.6707V0.676514H69.8967V12.1924H76.516V21.549H69.8967V31.3243H69.8949Z" fill="black"/>
<path d="M122.327 45.9578C119.725 45.9578 117.342 45.5484 115.175 44.7276C113.007 43.9087 111.135 42.7392 109.56 41.2189C108.022 39.7005 106.821 37.8809 105.955 35.7602C105.088 33.6414 104.655 31.2619 104.655 28.6234C104.655 25.985 105.118 23.5265 106.044 21.3673C106.969 19.208 108.24 17.3885 109.858 15.9105C111.433 14.4324 113.294 13.2922 115.442 12.4917C117.59 11.693 119.884 11.2927 122.328 11.2927C124.773 11.2927 127.006 11.693 129.154 12.4917C131.302 13.2922 133.183 14.4324 134.799 15.9105C136.375 17.3903 137.636 19.2099 138.582 21.3673C139.527 23.5265 140 25.9464 140 28.6234C140 31.3004 139.556 33.6414 138.671 35.7602C137.784 37.8809 136.572 39.6986 135.035 41.2189C133.459 42.7392 131.586 43.9087 129.419 44.7276C127.251 45.5484 124.888 45.9578 122.327 45.9578ZM122.208 36.4818C124.178 36.4818 125.932 35.8319 127.469 34.5319C129.006 33.2338 129.774 31.2637 129.774 28.6234C129.774 25.9832 129.006 24.1654 127.469 22.8067C125.932 21.448 124.178 20.7669 122.208 20.7669C120.237 20.7669 118.572 21.448 117.095 22.8067C115.618 24.1673 114.877 26.1062 114.877 28.6234C114.877 31.1407 115.616 33.232 117.095 34.5319C118.572 35.8319 120.276 36.4818 122.208 36.4818Z" fill="black"/>
<path d="M75.0371 35.4701L76.3752 34.9138L79.0186 43.1064L76.75 44.2778L75.0371 35.4701Z" fill="black"/>
<path d="M95.0468 31.3243C95.0468 32.604 95.034 33.8635 95.2333 34.5025C95.4307 35.1433 95.864 35.5821 96.533 35.8226C96.9663 35.9824 97.4288 36.043 97.9223 36.0026C98.4141 35.964 99.244 35.8318 100.189 35.4719L101.904 44.2796C100.366 44.9993 98.4945 45.4602 96.2881 45.6585C94.0816 45.8586 92.111 45.5979 90.378 44.8782C88.3288 44.0391 86.8901 42.6804 86.0639 40.8002C85.2358 38.9219 84.8226 36.4028 84.8226 33.243V21.5472H79.5031V12.1905H84.8226V0.676514H95.0487V12.1924H101.668V21.549H95.0487V31.3243H95.0468Z" fill="black"/>
<path d="M100.189 35.4701L101.527 34.9138L104.171 43.1064L101.904 44.2778L100.189 35.4701Z" fill="black"/>
</g>
</g>
<defs>
<clipPath id="clip0_576_5188">
<rect width="140" height="46" fill="white" transform="translate(0 0.676514)"/>
</clipPath>
<clipPath id="clip1_576_5188">
<rect width="140" height="45.2812" fill="white" transform="translate(0 0.676514)"/>
</clipPath>
</defs>
</svg>
