<svg width="170" height="178" viewBox="0 0 170 178" fill="none" xmlns="http://www.w3.org/2000/svg">
<circle cx="85" cy="85" r="85" fill="#FF763B"/>
<mask id="mask0_308_4357" style="mask-type:alpha" maskUnits="userSpaceOnUse" x="0" y="0" width="170" height="170">
<circle cx="85" cy="85" r="85" fill="#FF763B"/>
</mask>
<g mask="url(#mask0_308_4357)">
<path d="M97.7085 64.5103C97.5146 61.2089 97.076 57.8666 96.2395 54.6674C95.709 52.4494 94.699 50.5177 93.1892 48.8619C91.9854 47.0016 90.394 45.54 88.4149 44.4668C84.3343 42.3102 79.8355 41.5538 75.2958 42.7497C67.1347 44.8961 60.2793 52.0406 58.4022 60.2992C57.3106 65.0929 57.4739 69.2119 58.4532 73.9954C59.1265 77.2763 60.6975 80.4346 62.0951 83.4192C63.1663 85.4021 64.6251 87.0068 66.4818 88.2026C68.1242 89.7153 70.0523 90.7272 72.2762 91.2587C74.5409 91.9742 76.8057 92.0662 79.0602 91.5653C81.3249 91.4631 83.4366 90.7885 85.3851 89.5416C88.2007 87.7222 90.7511 85.2078 92.2201 82.1518C92.3119 82.0802 92.4037 82.0087 92.4955 81.9371C94.6072 79.8111 96.066 77.2968 96.8719 74.4144C97.3208 71.1028 97.9023 67.8525 97.7085 64.5103Z" fill="black"/>
<path d="M116.683 81.9474C116.592 82.019 116.5 82.0905 116.408 82.1621C114.939 85.2181 112.389 87.7325 109.573 89.5519C107.614 90.7988 105.513 91.4734 103.248 91.5756C100.983 92.0867 98.7186 91.9845 96.4641 91.269C94.2503 90.7375 92.3223 89.7256 90.6696 88.2129C88.813 87.0068 87.3542 85.4123 86.283 83.4295C84.8752 80.4347 83.3144 77.2866 82.6411 74.0057C81.6617 69.2222 81.4985 65.0929 82.5901 60.3095C84.4671 52.0509 91.3327 44.9064 99.4837 42.76C104.962 41.3188 111.124 42.7089 115.429 46.4089C117.051 47.7989 118.397 49.5059 119.336 51.4274C120.468 53.7374 121.754 57.3147 121.754 61.2907C121.754 68.2103 119.53 74.8847 117.561 79.8317L116.683 81.9474Z" fill="black"/>
<path d="M46.9054 169.296C55.3829 178.23 68.8488 180.601 79.0707 181.439C92.5672 182.543 105.421 181.807 117.806 176.001C129.405 170.564 136.127 159.208 136.576 147.495C136.74 143.345 136.383 139.195 135.974 135.066C135.536 130.64 134.975 126.225 134.24 121.84C132.679 112.416 130.119 103.064 125.926 94.509C122.172 86.8433 117.663 79.014 110.124 74.5269C108.288 73.4333 106.247 72.6258 104.268 71.849C103.054 71.3686 101.81 71.0211 100.524 70.786C97.0763 70.1421 93.7506 70.2545 90.6391 72.0841C88.6907 73.2289 86.8136 75.1708 85.671 77.3377C85.3548 77.3377 85.0385 77.3377 84.7427 77.3377C83.2839 77.3888 81.7231 77.6137 80.3765 78.2269C79.5501 78.6051 78.9687 79.2899 78.7034 80.0463C78.6728 79.9543 78.6524 79.8521 78.6218 79.7601C77.6221 76.6529 75.694 73.6479 72.7254 72.0739C71.7052 71.6446 70.6851 71.2051 69.6649 70.7758C67.39 70.1625 65.1151 70.1625 62.8401 70.7758C59.494 71.3993 56.1684 72.8405 53.2814 74.6189C50.3637 76.4178 47.4665 78.5949 45.2936 81.2728C39.8358 87.988 38.2444 93.9162 38.8565 102.083C39.2849 107.786 41.4578 112.171 44.7325 115.503C38.6422 132.102 33.0008 154.966 46.9156 169.296" fill="black"/>
<path d="M116.785 146.483C116.887 146.636 116.959 146.769 117.03 146.933L115.459 143.212C115.52 143.376 115.551 143.529 115.582 143.703L115.031 139.563C115.051 139.799 115.051 140.013 115.031 140.238L115.582 136.099C115.541 136.334 115.48 136.548 115.398 136.763L116.969 133.042C116.877 133.257 116.765 133.451 116.632 133.645L119.06 130.497C118.917 130.681 118.764 130.835 118.581 130.988L121.723 128.555C121.58 128.658 121.447 128.739 121.294 128.821L125.008 127.247C124.844 127.319 124.691 127.36 124.518 127.4L128.65 126.848L128.476 126.869C126.334 126.787 124.345 127.237 122.488 128.208C120.56 128.831 118.897 129.905 117.489 131.428C115.969 132.838 114.898 134.504 114.276 136.436C113.307 138.296 112.858 140.289 112.939 142.436L113.49 146.575C114.225 149.212 115.561 151.502 117.489 153.444L120.631 155.876C123.059 157.287 125.671 157.992 128.476 158.002C131.975 157.552 134.352 157.46 137.413 155.437C138.402 154.783 140.055 153.658 141.034 152.513C141.779 151.634 142.972 150.204 143.564 149.222C143.636 149.1 143.707 148.967 143.768 148.844C144.176 148.047 145.135 145.819 145.4 144.96C145.441 144.817 145.492 144.684 145.523 144.551C145.808 143.417 146.013 141.413 146.104 140.238C146.115 140.095 146.125 139.952 146.125 139.809C146.125 139.093 145.839 137.581 145.829 137.489C145.727 136.732 145.676 135.863 145.482 135.087L145.431 134.923L143.86 131.203C143.778 131.039 143.717 130.906 143.615 130.753C142.636 128.934 141.299 127.482 139.616 126.378C138.117 124.998 136.352 124.068 134.332 123.588C132.261 122.934 130.2 122.842 128.129 123.312C126.058 123.404 124.13 124.017 122.345 125.162L119.203 127.595C117.275 129.537 115.949 131.826 115.204 134.463L114.653 138.603C114.653 141.413 115.367 144.03 116.775 146.463L116.785 146.483Z" fill="black"/>
<path d="M145.768 129.588C144.819 127.717 143.462 126.01 141.759 124.774C139.841 123.383 138.127 122.137 135.801 121.503L136.535 122.464C135.291 114.512 133.455 106.621 130.537 99.1085C127.619 91.5961 123.998 84.5436 118.887 78.6154L119.091 80.4347C122.427 72.4317 125.263 62.9363 122.916 54.2995C121.825 50.2724 119.795 46.5316 116.449 43.9354C113.103 41.3393 108.981 40.0208 104.788 40.0003C99.6367 39.9696 94.8114 42.2183 90.7716 45.2641L93.1077 44.7735C90.1595 41.9219 86.0075 40.3785 81.9677 40.0616C77.9279 39.7448 74.1636 40.8282 70.6645 42.6271C64.2682 45.9183 59.0246 52.102 56.9435 59.0114C55.5357 63.6824 55.3521 68.5681 56.1172 73.372L58.4533 70.1013C50.7818 73.2391 44.1101 78.7687 40.1519 86.1176C36.7446 92.4342 35.7551 100.223 37.4587 107.214C38.4176 111.118 40.2947 114.563 43.0899 117.455L42.8859 115.636C36.408 133.339 30.7257 156.97 45.9463 171.944C53.3322 179.201 63.9621 182.032 73.9596 183.207C85.7831 184.597 98.0248 184.587 109.512 181.132C115.816 179.231 121.937 176.4 126.803 171.882C131.302 167.702 134.73 162.459 136.709 156.633L134.536 158.85C140.749 156.336 145.462 150.796 147.369 144.408C147.645 143.478 147.563 142.354 146.349 142.354C145.237 142.354 143.982 143.682 143.687 144.674C143.37 145.747 142.922 146.779 142.473 147.802C142.391 147.986 142.309 148.17 142.228 148.343C141.861 149.13 142.697 147.699 141.993 148.783C141.626 149.345 141.218 149.866 140.8 150.387C140.014 151.358 139.229 152.197 138.198 152.922C137.637 153.321 137.066 153.709 136.464 154.047C135.709 154.476 134.822 154.711 134.158 155.283C132.985 156.285 132.669 157.951 132.088 159.331C131.588 160.517 130.996 161.661 130.333 162.765C129.017 164.973 127.405 167.027 125.538 168.796C121.162 172.915 115.643 175.327 109.94 177.023C103.697 178.884 97.1781 179.609 90.6798 179.671C79.703 179.773 67.8081 178.751 57.7698 173.957C52.9343 171.647 48.5477 168.121 45.5383 163.654C42.5288 159.188 41.0802 154.486 40.5294 149.416C39.2542 137.836 42.6207 126.123 46.5584 115.35C46.7829 114.726 46.8543 114.041 46.3544 113.53C40.8558 107.837 39.5092 98.9961 41.4883 91.4837C43.5898 83.4601 50.2922 77.3173 57.78 74.251C58.9226 73.7808 60.3406 72.3601 60.1162 70.9803C58.8308 62.8648 60.5038 54.5448 66.941 49.0357C69.7974 46.5827 73.4087 44.8144 77.1832 44.4465C81.6821 44.007 86.5482 45.5197 89.8229 48.6882C90.4859 49.3321 91.6081 48.6166 92.159 48.1976C98.1779 43.6697 106.451 42.9746 112.695 47.4923C115.806 49.7512 117.703 52.9197 118.836 56.5482C120.131 60.6979 119.825 65.0623 119.009 69.2836C118.244 73.2084 116.938 77.0107 115.408 80.7005C115.143 81.3342 115.153 81.9985 115.612 82.5198C120.519 88.2129 124.049 95.3676 126.752 102.349C129.456 109.33 131.322 117.169 132.526 124.835C132.598 125.264 132.812 125.673 133.261 125.796C135.352 126.368 136.76 127.441 138.484 128.678C139.994 129.772 141.146 131.162 141.983 132.828C143.013 134.851 146.665 131.356 145.768 129.577V129.588Z" fill="#222222"/>
<path d="M85.3546 52.4802C80.7231 58.0813 78.1116 65.0418 77.9279 72.309C77.8973 73.5355 79.4276 73.3617 80.1213 72.9529C81.2026 72.3192 81.9167 71.1642 81.9473 69.9173C82.0901 64.1935 84.2835 58.5821 87.701 54.4426C88.262 53.7578 89.0577 52.2451 88.1702 51.499C87.2827 50.7528 85.9055 51.8056 85.3546 52.47V52.4802Z" fill="#222222"/>
<path d="M62.289 85.4123L61.8707 86.7206C61.6769 87.3134 61.8095 88.1005 62.1155 88.6217C62.4216 89.143 63.0031 89.6234 63.5948 89.7563C64.9516 90.0629 66.2063 89.3474 66.6348 88.0289L67.0531 86.7206C67.2469 86.1278 67.1143 85.3408 66.8082 84.8195C66.5022 84.2982 65.9207 83.8179 65.329 83.685C63.9722 83.3783 62.7174 84.0938 62.289 85.4123Z" fill="#FF6F1E"/>
<path d="M80.1824 85.4532L79.7641 86.7615C79.5703 87.3543 79.7029 88.1414 80.009 88.6626C80.315 89.1839 80.8965 89.6643 81.4882 89.7972C82.845 90.1038 84.0998 89.3883 84.5282 88.0698L84.9465 86.7615C85.1403 86.1687 85.0077 85.3817 84.7017 84.8604C84.3956 84.3391 83.8141 83.8587 83.2224 83.7259C81.8656 83.4192 80.6109 84.1347 80.1824 85.4532Z" fill="#FF6F1E"/>
<path d="M116.612 139.175C107.635 137.693 97.9738 139.114 90.4349 144.48C83.3551 149.519 78.4074 157.634 78.4788 166.475C78.4788 167.692 79.9478 167.538 80.6721 167.119C81.7229 166.506 82.5084 165.32 82.4982 164.084C82.4472 157.409 86.2523 151.093 91.7815 147.485C98.3002 143.223 106.512 142.221 114.082 143.468C115.265 143.662 116.357 142.712 116.918 141.751C117.285 141.127 117.816 139.369 116.622 139.175H116.612Z" fill="#222222"/>
</g>
</svg>
