<svg width="110" height="142" viewBox="0 0 110 142" fill="none" xmlns="http://www.w3.org/2000/svg">
<g clip-path="url(#clip0_513_6537)">
<path d="M60.6698 24.0816C60.4784 20.8379 60.0454 17.5541 59.2196 14.4109C58.696 12.2317 57.699 10.3337 56.2085 8.70688C55.0202 6.87919 53.4492 5.44316 51.4955 4.38872C47.4673 2.26981 43.0262 1.52669 38.5448 2.70163C30.4884 4.8105 23.721 11.83 21.868 19.9441C20.7905 24.654 20.9516 28.701 21.9184 33.4007C22.583 36.6243 24.1339 39.7274 25.5135 42.6597C26.5709 44.6079 28.011 46.1845 29.8439 47.3595C31.4652 48.8457 33.3686 49.8399 35.5639 50.3621C37.7996 51.065 40.0352 51.1554 42.2608 50.6634C44.4965 50.5629 46.5811 49.9001 48.5046 48.675C51.284 46.8875 53.8017 44.4171 55.2518 41.4144C55.3425 41.3442 55.4331 41.2739 55.5237 41.2036C57.6083 39.1148 59.0484 36.6444 59.844 33.8125C60.2871 30.5588 60.8611 27.3654 60.6698 24.0816Z" fill="black"/>
<path d="M79.4011 41.2136C79.3104 41.2838 79.2198 41.3541 79.1292 41.4244C77.679 44.4271 75.1614 46.8975 72.3819 48.685C70.4483 49.9101 68.3738 50.5729 66.1382 50.6733C63.9025 51.1754 61.6668 51.075 59.4412 50.3721C57.2559 49.8499 55.3526 48.8557 53.7212 47.3694C51.8883 46.1845 50.4483 44.6179 49.3909 42.6697C48.0011 39.7273 46.4603 36.6343 45.7957 33.4107C44.8289 28.711 44.6678 24.6539 45.7453 19.9541C47.5983 11.84 54.3758 4.82049 62.4221 2.71162C67.83 1.29566 73.9126 2.6614 78.1624 6.29669C79.7636 7.66244 81.0929 9.33949 82.0194 11.2274C83.1372 13.497 84.4061 17.0118 84.4061 20.9182C84.4061 27.7168 82.2107 34.2744 80.2671 39.1348L79.4011 41.2136Z" fill="black"/>
<path d="M10.5187 127.035C18.8873 135.811 32.1804 138.141 42.2711 138.965C55.5944 140.049 68.2833 139.326 80.5089 133.622C91.9591 128.28 98.5956 117.123 99.0387 105.614C99.1999 101.537 98.8474 97.4602 98.4446 93.4031C98.0115 89.0548 97.4577 84.7166 96.7326 80.4084C95.1918 71.1495 92.6641 61.9609 88.5251 53.5555C84.8191 46.0238 80.368 38.3315 72.9258 33.9229C71.1131 32.8484 69.099 32.0551 67.1453 31.2919C65.9469 30.8199 64.7183 30.4784 63.4494 30.2475C60.0456 29.6148 56.7626 29.7253 53.6911 31.5228C51.7676 32.6476 49.9146 34.5556 48.7867 36.6845C48.4745 36.6845 48.1624 36.6845 47.8703 36.6845C46.4302 36.7347 44.8894 36.9557 43.5601 37.5582C42.7444 37.9298 42.1704 38.6026 41.9086 39.3457C41.8783 39.2554 41.8582 39.1549 41.828 39.0646C40.8411 36.0117 38.9377 33.0593 36.0072 31.5128C35.0002 31.091 33.9931 30.6592 32.9861 30.2374C30.7403 29.6349 28.4946 29.6349 26.2489 30.2374C22.9457 30.85 19.6627 32.266 16.8128 34.0133C13.9326 35.7807 11.0726 37.9197 8.92755 40.5508C3.53981 47.1486 1.9688 52.973 2.57304 60.9968C2.996 66.6004 5.14102 70.9085 8.37367 74.1823C2.36156 90.4908 -3.20745 112.955 10.5288 127.035" fill="black"/>
<path d="M79.5017 104.62C79.6024 104.771 79.6729 104.902 79.7434 105.062L78.1925 101.407C78.2529 101.568 78.2832 101.718 78.3134 101.889L77.7696 97.8219C77.7897 98.0528 77.7897 98.2637 77.7696 98.4846L78.3134 94.4175C78.2731 94.6485 78.2127 94.8594 78.1321 95.0703L79.683 91.4149C79.5923 91.6258 79.4816 91.8166 79.3506 92.0074L81.7474 88.9144C81.6064 89.0952 81.4554 89.2458 81.2741 89.3964L84.3758 87.0064C84.2348 87.1068 84.1039 87.1871 83.9529 87.2675L87.6186 85.721C87.4574 85.7913 87.3064 85.8314 87.1352 85.8716L91.2137 85.3293L91.0425 85.3494C88.9277 85.2691 86.964 85.7109 85.1311 86.6649C83.2278 87.2775 81.5863 88.3319 80.1966 89.8282C78.6961 91.2141 77.6386 92.8509 77.0243 94.7489C76.0676 96.5766 75.6245 98.5349 75.7051 100.644L76.2489 104.711C76.974 107.302 78.2932 109.551 80.1966 111.459L83.2983 113.849C85.6951 115.235 88.2731 115.928 91.0425 115.938C94.4967 115.496 96.8432 115.406 99.8643 113.417C100.841 112.775 102.473 111.67 103.439 110.545C104.175 109.682 105.353 108.276 105.937 107.312C106.007 107.191 106.078 107.061 106.138 106.94C106.541 106.157 107.488 103.968 107.75 103.124C107.79 102.984 107.84 102.853 107.87 102.722C108.152 101.608 108.354 99.6395 108.444 98.4846C108.454 98.3441 108.465 98.2035 108.465 98.0629C108.465 97.3599 108.183 95.8737 108.173 95.7833C108.072 95.0402 108.021 94.1866 107.83 93.4234L107.78 93.2627L106.229 89.6073C106.148 89.4466 106.088 89.3161 105.987 89.1655C105.02 87.3779 103.701 85.9519 102.04 84.8674C100.559 83.5117 98.817 82.5978 96.823 82.1258C94.7787 81.4831 92.7445 81.3928 90.7001 81.8547C88.6558 81.9451 86.7525 82.5476 84.9901 83.6723L81.8884 86.0624C79.9851 87.9704 78.6759 90.2199 77.9408 92.8108L77.397 96.8779C77.397 99.6395 78.1019 102.21 79.4916 104.6L79.5017 104.62Z" fill="black"/>
<path d="M108.112 88.0205C107.176 86.1828 105.836 84.5057 104.154 83.2906C102.261 81.9249 100.569 80.6997 98.2732 80.0771L98.9983 81.0211C97.7697 73.2082 95.957 65.4556 93.0768 58.0746C90.1966 50.6935 86.6216 43.7644 81.5762 37.9399L81.7776 39.7274C85.0707 31.8643 87.8703 22.5351 85.5541 14.0494C84.4765 10.0928 82.4725 6.4173 79.1694 3.86657C75.8662 1.31584 71.7977 0.0203889 67.6588 0.000304413C62.5731 -0.0298223 57.8098 2.17947 53.8218 5.17206L56.128 4.69003C53.2176 1.88825 49.1189 0.371869 45.131 0.0605592C41.143 -0.25075 37.427 0.813725 33.9728 2.58116C27.6586 5.81476 22.4823 11.8903 20.4279 18.6789C19.0382 23.2682 18.8569 28.0684 19.6122 32.7882L21.9184 29.5747C14.3453 32.6577 7.75919 38.0905 3.85182 45.3109C0.48826 51.517 -0.488582 59.1692 1.1932 66.0381C2.13983 69.8742 3.99281 73.2584 6.75214 76.1004L6.55072 74.3129C0.155933 91.706 -5.45336 114.924 9.57189 129.636C16.863 136.766 27.3565 139.547 37.2256 140.702C48.8973 142.068 60.982 142.058 72.3214 138.663C78.545 136.796 84.5873 134.014 89.391 129.575C93.8321 125.468 97.2158 120.316 99.1695 114.592L97.0244 116.771C103.157 114.301 107.81 108.858 109.693 102.582C109.965 101.668 109.885 100.563 108.686 100.563C107.588 100.563 106.35 101.869 106.058 102.843C105.746 103.897 105.302 104.912 104.859 105.916C104.779 106.097 104.698 106.277 104.618 106.448C104.255 107.221 105.081 105.815 104.386 106.88C104.023 107.432 103.621 107.944 103.208 108.456C102.432 109.41 101.657 110.234 100.64 110.947C100.086 111.339 99.5219 111.72 98.9278 112.052C98.1826 112.473 97.3064 112.704 96.6518 113.267C95.4937 114.251 95.1815 115.888 94.6075 117.243C94.1141 118.408 93.53 119.533 92.8754 120.618C91.5763 122.787 89.9851 124.805 88.1422 126.543C83.822 130.59 78.3738 132.96 72.7444 134.627C66.5812 136.454 60.1461 137.167 53.7312 137.227C42.8953 137.328 31.1531 136.324 21.2436 131.614C16.4702 129.344 12.1399 125.88 9.16906 121.491C6.19826 117.103 4.76824 112.483 4.22443 107.502C2.96561 96.1246 6.28889 84.6162 10.1761 74.0317C10.3977 73.4191 10.4682 72.7463 9.97471 72.2442C4.54669 66.6506 3.21738 57.9641 5.17106 50.5831C7.24559 42.6999 13.8619 36.6645 21.2537 33.6518C22.3816 33.1899 23.7814 31.794 23.5599 30.4383C22.291 22.4648 23.9425 14.2904 30.2971 8.87765C33.1168 6.46751 36.6818 4.7302 40.4079 4.36868C44.849 3.93686 49.6526 5.42311 52.8853 8.53621C53.5399 9.16887 54.6476 8.46591 55.1914 8.05418C61.133 3.60547 69.3002 2.9226 75.4634 7.36127C78.5349 9.5806 80.4081 12.6937 81.5259 16.2587C82.8048 20.3358 82.5027 24.6239 81.6971 28.7713C80.9418 32.6275 79.6528 36.3632 78.1422 39.9885C77.8803 40.6111 77.8904 41.2639 78.3436 41.776C83.1875 47.3695 86.6719 54.3991 89.3406 61.2579C92.0093 68.1168 93.8522 75.8192 95.0405 83.3509C95.111 83.7727 95.3225 84.1743 95.7656 84.2948C97.8301 84.8572 99.2198 85.9116 100.922 87.1268C102.412 88.2013 103.55 89.567 104.376 91.2039C105.393 93.1923 108.998 89.7578 108.112 88.0105V88.0205Z" fill="#222222"/>
<path d="M48.4745 12.2619C43.9025 17.765 41.3244 24.6038 41.1431 31.7438C41.1129 32.9489 42.6235 32.7782 43.3083 32.3765C44.3758 31.7538 45.0807 30.6191 45.1109 29.3939C45.2519 23.7703 47.4171 18.2571 50.7907 14.19C51.3446 13.5172 52.1301 12.0309 51.254 11.2978C50.3778 10.5647 49.0183 11.5991 48.4745 12.2518V12.2619Z" fill="#222222"/>
<path d="M25.7048 44.618L25.2919 45.9034C25.1006 46.4859 25.2315 47.2591 25.5336 47.7713C25.8357 48.2834 26.4097 48.7554 26.9938 48.886C28.3332 49.1872 29.5719 48.4843 29.9949 47.1888L30.4077 45.9034C30.5991 45.321 30.4682 44.5477 30.1661 44.0356C29.8639 43.5234 29.2899 43.0514 28.7058 42.9209C27.3664 42.6196 26.1278 43.3226 25.7048 44.618Z" fill="#FF6F1E"/>
<path d="M43.3685 44.6581L42.9556 45.9435C42.7643 46.526 42.8952 47.2992 43.1973 47.8114C43.4994 48.3235 44.0734 48.7955 44.6575 48.9261C45.9969 49.2273 47.2356 48.5244 47.6585 47.2289L48.0714 45.9435C48.2628 45.3611 48.1319 44.5878 47.8297 44.0757C47.5276 43.5635 46.9536 43.0915 46.3695 42.961C45.0301 42.6597 43.7915 43.3627 43.3685 44.6581Z" fill="#FF6F1E"/>
<path d="M79.3305 97.4402C70.4684 95.9841 60.9316 97.3799 53.4895 102.652C46.5005 107.603 41.6163 115.576 41.6868 124.263C41.6868 125.458 43.1369 125.307 43.852 124.896C44.8892 124.293 45.6647 123.128 45.6546 121.913C45.6042 115.356 49.3605 109.149 54.8188 105.605C61.2538 101.417 69.3606 100.433 76.833 101.658C78.0012 101.849 79.0787 100.915 79.6326 99.9708C79.9951 99.3582 80.5188 97.631 79.3405 97.4402H79.3305Z" fill="#222222"/>
</g>
<defs>
<clipPath id="clip0_513_6537">
<rect width="110" height="142" fill="white"/>
</clipPath>
</defs>
</svg>
