<?xml version="1.0" standalone="no"?>
<!DOCTYPE svg PUBLIC "-//W3C//DTD SVG 20010904//EN"
 "http://www.w3.org/TR/2001/REC-SVG-20010904/DTD/svg10.dtd">
<svg version="1.0" xmlns="http://www.w3.org/2000/svg"
 width="700.000000pt" height="700.000000pt" viewBox="0 0 700.000000 700.000000"
 preserveAspectRatio="xMidYMid meet">
<metadata>
Created by potrace 1.14, written by Peter Selinger 2001-2017
</metadata>
<g transform="translate(0.000000,700.000000) scale(0.100000,-0.100000)"
fill="#000000" stroke="none">
<path d="M1200 6993 c-448 -47 -837 -310 -1044 -704 -63 -121 -98 -219 -129
-362 l-22 -102 0 -2320 c0 -2577 -5 -2385 66 -2596 157 -470 540 -795 1054
-895 22 -5 1080 -9 2350 -11 2533 -2 2383 -6 2587 57 113 35 273 108 333 152
5 5 39 29 74 55 226 166 416 450 486 728 45 178 44 125 42 2540 -2 2152 -3
2295 -20 2378 -113 559 -538 974 -1095 1067 -101 17 -236 18 -2377 17 -1248 0
-2286 -2 -2305 -4z"/>
</g>
</svg>
